<svg xmlns="http://www.w3.org/2000/svg" width="111.834" height="26.1" viewBox="0 0 111.834 26.1"><g id="actinver-seeklogo.com" transform="translate(-7.55 -1.7)"><path id="Trazado_814" data-name="Trazado 814" d="M51.277,8.126a.393.393,0,0,1,.4.4V13.1H55.81a.394.394,0,0,1,.4.4v1.54a.425.425,0,0,1-.4.4H51.673v7.79c0,1.276.484,1.893,1.584,1.893a6.118,6.118,0,0,0,2.421-.7.3.3,0,0,1,.4.132l.7,1.672a.3.3,0,0,1-.132.352l-.044.044a11.223,11.223,0,0,1-4.181,1.056c-2.421,0-3.433-1.232-3.433-4.049v-8.23H46.876a.394.394,0,0,1-.4-.4v-1.54a.394.394,0,0,1,.4-.4h2.113V8.478a.394.394,0,0,1,.4-.4h2.069M39.394,13.1a7.574,7.574,0,0,1,5.15,2.289.461.461,0,0,1-.044.572l-.132.132L43.223,17.1a.4.4,0,0,1-.528,0l-.044-.044a4.482,4.482,0,0,0-3.213-1.408,4.886,4.886,0,0,0-4.8,4.753,4.82,4.82,0,0,0,4.753,4.885,4.487,4.487,0,0,0,3.477-1.584l.22-.22a.36.36,0,0,1,.528,0L44.851,24.5a.49.49,0,0,1,.088.528,7.246,7.246,0,0,1-5.59,2.729,7.392,7.392,0,0,1-7.394-7.306,7.527,7.527,0,0,1,7.438-7.35M20.116,2.184,30.987,26.832a.651.651,0,0,1,0,.572.576.576,0,0,1-.528.264H28.214a.752.752,0,0,1-.748-.528L25.353,22.43l-.132-.352H13.382l-.132.352c-.308.748-.616,1.452-.968,2.2v.044c-.352.836-.748,1.673-1.1,2.509a.792.792,0,0,1-.748.484H8.144a.627.627,0,0,1-.528-.264.653.653,0,0,1,0-.572L18.575,2.184a.88.88,0,0,1,.792-.484.958.958,0,0,1,.748.484M14.7,19.085h9.2l-.352-.792L19.808,9.71,19.28,8.566,18.8,9.71l-3.741,8.583-.352.792m3.873-16.9a.88.88,0,0,1,.792-.484.95.95,0,0,1,.748.484M73.328,13.011c5.194,0,5.942,4.225,5.942,6.778v7.482a.434.434,0,0,1-.4.44H76.849a.434.434,0,0,1-.4-.44V19.613c0-2.553-1.32-4.093-3.521-4.093a5.343,5.343,0,0,0-4.577,2.509l-.044.044v9.155a.434.434,0,0,1-.4.44H65.933a.434.434,0,0,1-.4-.44V13.8a.425.425,0,0,1,.4-.4h1.012c.132,0,.22.132.264.176l.44,1.276.22.616.44-.484a7.5,7.5,0,0,1,5.018-1.981M94.1,13.1a.285.285,0,0,1,.264.4L87.588,27.448a.384.384,0,0,1-.7,0L80.106,13.5a.28.28,0,0,1,.264-.4h2.2a.42.42,0,0,1,.352.22l4.4,9.331,4.445-9.331a.449.449,0,0,1,.352-.22h2.113m-32.262.088a.394.394,0,0,1,.4.4V27.316a.394.394,0,0,1-.4.4H59.992a.434.434,0,0,1-.4-.44V13.584a.394.394,0,0,1,.4-.4H62.06" transform="translate(0 0)" fill="#fff"></path><path id="Trazado_815" data-name="Trazado 815" d="M126.717,16.3a1.783,1.783,0,0,1,0,3.565A1.7,1.7,0,0,1,125,18.1a1.74,1.74,0,0,1,1.717-1.8" transform="translate(-65.757 -8.174)" fill="#fff"></path><path id="Trazado_816" data-name="Trazado 816" d="M227.7,27.532a3.4,3.4,0,0,1,2.333.572.362.362,0,0,1,.044.308l-.88,1.849a.326.326,0,0,1-.4.176,4.167,4.167,0,0,0-1.408-.308,4.31,4.31,0,0,0-3.653,2.025l-.044.088v9.507a.434.434,0,0,1-.4.44h-1.893a.434.434,0,0,1-.4-.44V28.28a.394.394,0,0,1,.4-.4h1.012a.325.325,0,0,1,.264.22l.4,1.276.22.7.44-.616a4.847,4.847,0,0,1,3.961-1.937M212.474,27.4a6.331,6.331,0,0,1,6.6,6.382c0,.22-.044.616-.044.88a.417.417,0,0,1-.4.352H207.984v.4a4.578,4.578,0,0,0,4.8,4.225,6.934,6.934,0,0,0,3.565-1.1l.264-.132a.288.288,0,0,1,.352.088l1.012,1.32.044.044a.328.328,0,0,1-.044.4,8.548,8.548,0,0,1-5.414,1.761,7.04,7.04,0,0,1-7.262-7.306,7.045,7.045,0,0,1,7.174-7.306m-4.313,6.074h8.186a4.291,4.291,0,0,0-.7-2.157,4.107,4.107,0,0,0-6.866.088,3.285,3.285,0,0,0-.616,2.069" transform="translate(-110.713 -14.389)" fill="#fff"></path></g></svg>