<svg xmlns="http://www.w3.org/2000/svg" width="93" height="58.644" viewBox="0 0 93 58.644"><g id="Grupo_2525" data-name="Grupo 2525" transform="translate(-131.761 -286.128)"><g id="Grupo_2526" data-name="Grupo 2526" transform="translate(131.761 311.987)"><g id="Grupo_2525-2" data-name="Grupo 2525" transform="translate(0 0)"><path id="Trazado_50284" data-name="Trazado 50284" d="M347.758,387.082a2.5,2.5,0,0,1,.588-1.911,1.5,1.5,0,0,1,1.37-.528,5.642,5.642,0,0,1,.95.094c.06.01,1.181.411.651.031s-.48-1.662-.48-1.662c-.063-.007-.122-.016-.187-.023a11.409,11.409,0,0,0-1.224-.059,4.218,4.218,0,0,0-3.086,1.052,4.049,4.049,0,0,0-1.068,3.017v.9h-1.6v1.7h1.6v8.8h2.563v-8.8h3.058v-1.7h-3.134Z" transform="translate(-287.117 -383.023)" fill="#fff"></path><path id="Trazado_50285" data-name="Trazado 50285" d="M382.552,410.611H380.3V399.684h2.256Z" transform="translate(-313.968 -395.238)" fill="#fff"></path><path id="Trazado_50286" data-name="Trazado 50286" d="M308.077,409.47a4.186,4.186,0,0,0,2.635-.622v1.84c-.621.472-3.157.77-5.245.6s-4.6-1.789-4.1-6.562,4.375-4.127,4.5-4.4c5.643-.1,4.847,5.916,4.847,5.916h-6.637C303.976,409.023,306.213,409.445,308.077,409.47Zm-4.051-4.648h4.027s.249-2.933-2.113-2.933C304.026,401.888,304.026,404.822,304.026,404.822Z" transform="translate(-256.056 -395.705)" fill="#fff"></path><path id="Trazado_50287" data-name="Trazado 50287" d="M191.41,409.47a4.186,4.186,0,0,0,2.635-.622v1.84c-.621.472-3.157.77-5.245.6s-4.6-1.789-4.1-6.562,4.375-4.127,4.5-4.4c5.643-.1,4.847,5.916,4.847,5.916h-6.637C187.309,409.023,189.546,409.445,191.41,409.47Zm-4.051-4.648h4.027s.249-2.933-2.113-2.933C187.359,401.888,187.359,404.822,187.359,404.822Z" transform="translate(-170.525 -395.705)" fill="#fff"></path><path id="Trazado_50288" data-name="Trazado 50288" d="M231.337,410.658h2.933v-6.687s.771-2.088,2.685-1.964A1.263,1.263,0,0,1,238,403.275c.025,1.119,0,7.333,0,7.333h2.635v-6.736s1.566-2.486,3.281-1.641c0,0,.522-.025.522,1.467v6.886h2.908v-8.377s-1.069-3.5-4.425-2.163a3.939,3.939,0,0,0-2.063,1.889,3.358,3.358,0,0,0-4.126-1.988c-1.459.358-2.784,2.411-2.51,1.939v-1.914h-2.908Z" transform="translate(-204.744 -395.277)" fill="#fff"></path><path id="Trazado_50289" data-name="Trazado 50289" d="M143.987,386.812v2.179s-3.736-1.868-6.939-.267c0,0-3.38.934-1.779,7.3,0,0,.667,5.6,8.851,2.179v1.912s-1.067,1.023-4.047.979c0,0-7.161.978-8.184-5.649,0,0-1.735-9.519,7.606-9.029Z" transform="translate(-131.761 -385.494)" fill="#fff"></path></g></g><path id="Trazado_50290" data-name="Trazado 50290" d="M313.865,286.128a25.652,25.652,0,0,0-25.617,25.485q1.469.078,2.936.2c0-.045,0-.09,0-.135a22.484,22.484,0,1,1,23.47,22.459,1.031,1.031,0,0,1,.015.159v3.188a25.687,25.687,0,0,0-.8-51.36Z" transform="translate(-114.724)" fill="#fff" opacity="0.5"></path><circle id="Elipse_67" data-name="Elipse 67" cx="2.836" cy="2.836" r="2.836" transform="translate(196.339 308.813)" fill="#fff" opacity="0.5"></circle><g id="Grupo_2537" data-name="Grupo 2537" transform="translate(132.484 333.851)" opacity="0.5"><g id="Grupo_2528" data-name="Grupo 2528" transform="translate(0 0.067)"><g id="Grupo_2527" data-name="Grupo 2527"><path id="Trazado_50291" data-name="Trazado 50291" d="M137.23,468.817a2.317,2.317,0,0,1-.964.174,1.7,1.7,0,0,1-1.8-1.853,1.813,1.813,0,0,1,1.906-1.917,1.984,1.984,0,0,1,.867.162l-.119.385a1.67,1.67,0,0,0-.731-.152,1.358,1.358,0,0,0-1.424,1.506,1.323,1.323,0,0,0,1.4,1.468,1.9,1.9,0,0,0,.774-.152Z" transform="translate(-134.468 -465.215)" fill="#fff"></path><path id="Trazado_50292" data-name="Trazado 50292" d="M155.439,467.382h-1.414V468.7h1.581v.395h-2.058v-3.65h1.977v.4h-1.5v1.154h1.414Z" transform="translate(-148.457 -465.378)" fill="#fff"></path><path id="Trazado_50293" data-name="Trazado 50293" d="M168.072,469.093v-3.65h.52l1.165,1.847a10.214,10.214,0,0,1,.65,1.187l.016-.006c-.043-.487-.054-.931-.054-1.5v-1.527h.444v3.65h-.477l-1.159-1.852a10.683,10.683,0,0,1-.677-1.219l-.016.005c.027.46.032.9.032,1.506v1.56Z" transform="translate(-159.104 -465.378)" fill="#fff"></path><path id="Trazado_50294" data-name="Trazado 50294" d="M186.491,465.844h-1.11v-.4h2.7v.4h-1.116v3.249h-.477Z" transform="translate(-171.794 -465.378)" fill="#fff"></path><path id="Trazado_50295" data-name="Trazado 50295" d="M202.549,465.418a5.5,5.5,0,0,1,.9-.076,1.508,1.508,0,0,1,1.056.3.931.931,0,0,1,.287.7.959.959,0,0,1-.683.926v.016a.916.916,0,0,1,.531.737,5.82,5.82,0,0,0,.282,1h-.487a4.55,4.55,0,0,1-.238-.872c-.108-.5-.309-.693-.737-.709h-.444v1.582h-.471Zm.471,1.663h.482c.5,0,.823-.276.823-.693,0-.471-.341-.677-.84-.677a2.1,2.1,0,0,0-.466.037Z" transform="translate(-184.38 -465.304)" fill="#fff"></path><path id="Trazado_50296" data-name="Trazado 50296" d="M222.32,467.052a1.713,1.713,0,0,1-1.695,1.923,1.675,1.675,0,0,1-1.641-1.858,1.73,1.73,0,0,1,1.69-1.918A1.665,1.665,0,0,1,222.32,467.052Zm-2.838.054c0,.785.422,1.484,1.17,1.484s1.17-.688,1.17-1.517c0-.731-.379-1.489-1.164-1.489S219.483,466.309,219.483,467.106Z" transform="translate(-196.429 -465.199)" fill="#fff"></path></g></g><g id="Grupo_2530" data-name="Grupo 2530" transform="translate(0.334 6.985)"><g id="Grupo_2529" data-name="Grupo 2529"><path id="Trazado_50297" data-name="Trazado 50297" d="M138.294,492.31a1.273,1.273,0,0,1-.091.485,1.166,1.166,0,0,1-.255.387,1.315,1.315,0,0,1-.481.305,2.063,2.063,0,0,1-.7.1h-.524v1.467h-.523v-3.936h1.068a2.591,2.591,0,0,1,.6.06,1.352,1.352,0,0,1,.436.186,1.062,1.062,0,0,1,.348.376A1.175,1.175,0,0,1,138.294,492.31Zm-.545.014a.821.821,0,0,0-.071-.354.6.6,0,0,0-.217-.246.872.872,0,0,0-.29-.118,1.988,1.988,0,0,0-.411-.035h-.518v1.573h.442a1.911,1.911,0,0,0,.516-.057.733.733,0,0,0,.322-.181.763.763,0,0,0,.176-.267A.9.9,0,0,0,137.749,492.324Z" transform="translate(-135.719 -491.121)" fill="#fff"></path><path id="Trazado_50298" data-name="Trazado 50298" d="M150.07,495.057h-.558l-.386-1.1h-1.7l-.386,1.1h-.531l1.433-3.936h.7Zm-1.1-1.547-.69-1.933-.693,1.933Z" transform="translate(-143.627 -491.121)" fill="#fff"></path><path id="Trazado_50299" data-name="Trazado 50299" d="M166.628,495.057h-.679l-1.316-1.565h-.738v1.565h-.523v-3.936h1.1a3.21,3.21,0,0,1,.595.046,1.261,1.261,0,0,1,.428.165,1,1,0,0,1,.334.34,1.015,1.015,0,0,1,.12.52,1.159,1.159,0,0,1-.214.713,1.3,1.3,0,0,1-.59.432Zm-1.224-2.829a.723.723,0,0,0-.059-.3.523.523,0,0,0-.2-.221.728.728,0,0,0-.27-.107,1.945,1.945,0,0,0-.367-.03h-.616v1.486h.529a1.9,1.9,0,0,0,.434-.044.683.683,0,0,0,.491-.418A1.007,1.007,0,0,0,165.4,492.229Z" transform="translate(-155.991 -491.121)" fill="#fff"></path><path id="Trazado_50300" data-name="Trazado 50300" d="M179.839,495.057h-.558l-.386-1.1h-1.7l-.386,1.1h-.532l1.433-3.936h.7Zm-1.105-1.547-.69-1.933-.692,1.933Z" transform="translate(-165.452 -491.121)" fill="#fff"></path></g></g><g id="Grupo_2532" data-name="Grupo 2532" transform="translate(17.749 7.061)"><g id="Grupo_2531" data-name="Grupo 2531"><path id="Trazado_50301" data-name="Trazado 50301" d="M200.976,491.408h.476v3.255h1.56v.4h-2.036Z" transform="translate(-200.976 -491.408)" fill="#fff"></path><path id="Trazado_50302" data-name="Trazado 50302" d="M213.176,493.91l-.379,1.148h-.487l1.245-3.651h.563l1.246,3.651h-.5l-.39-1.148Zm1.2-.369-.363-1.05c-.081-.239-.136-.455-.19-.666h-.011c-.054.211-.108.438-.184.66l-.357,1.056Z" transform="translate(-209.285 -491.408)" fill="#fff"></path></g></g><g id="Grupo_2534" data-name="Grupo 2534" transform="translate(27.151 6.175)"><g id="Grupo_2533" data-name="Grupo 2533"><path id="Trazado_50303" data-name="Trazado 50303" d="M236.2,491.193h1.966v.4h-1.489V492.8h1.376v.39h-1.376v1.652H236.2Z" transform="translate(-236.203 -490.364)" fill="#fff"></path><path id="Trazado_50304" data-name="Trazado 50304" d="M249.138,491.193v3.65h-.476v-3.65Z" transform="translate(-245.337 -490.364)" fill="#fff"></path><path id="Trazado_50305" data-name="Trazado 50305" d="M256.033,491.193h.476v3.255h1.56v.395h-2.036Z" transform="translate(-250.741 -490.364)" fill="#fff"></path><path id="Trazado_50306" data-name="Trazado 50306" d="M267.733,493.695l-.379,1.148h-.487l1.246-3.65h.563l1.246,3.65h-.5l-.39-1.148Zm1.2-.368-.363-1.051c-.081-.238-.136-.455-.19-.666h-.011c-.054.211-.108.439-.184.661l-.357,1.056Z" transform="translate(-258.683 -490.364)" fill="#fff"></path><path id="Trazado_50307" data-name="Trazado 50307" d="M284.089,494.843v-3.65h.52l1.164,1.847a10.211,10.211,0,0,1,.65,1.187l.016-.006c-.043-.487-.054-.931-.054-1.5v-1.527h.444v3.65h-.477l-1.159-1.852a10.678,10.678,0,0,1-.677-1.219l-.016.005c.027.46.032.9.032,1.506v1.56Z" transform="translate(-271.309 -490.364)" fill="#fff"></path><path id="Trazado_50308" data-name="Trazado 50308" d="M299.152,491.594h-1.11v-.4h2.7v.4h-1.116v3.249h-.477Z" transform="translate(-281.539 -490.364)" fill="#fff"></path><path id="Trazado_50309" data-name="Trazado 50309" d="M313.723,491.168a5.5,5.5,0,0,1,.9-.076,1.509,1.509,0,0,1,1.056.3.931.931,0,0,1,.287.7.959.959,0,0,1-.682.926v.016a.916.916,0,0,1,.531.737,5.8,5.8,0,0,0,.282,1h-.487a4.549,4.549,0,0,1-.238-.872c-.108-.5-.309-.693-.737-.709h-.444v1.581h-.471Zm.471,1.663h.482c.5,0,.823-.276.823-.693,0-.471-.341-.677-.84-.677a2.1,2.1,0,0,0-.466.037Z" transform="translate(-293.035 -490.29)" fill="#fff"></path><path id="Trazado_50310" data-name="Trazado 50310" d="M331.073,492.8a1.713,1.713,0,0,1-1.695,1.923,1.675,1.675,0,0,1-1.641-1.858,1.73,1.73,0,0,1,1.69-1.918A1.665,1.665,0,0,1,331.073,492.8Zm-2.838.054c0,.785.422,1.484,1.17,1.484s1.17-.688,1.17-1.517c0-.731-.379-1.489-1.164-1.489S328.235,492.059,328.235,492.856Z" transform="translate(-303.309 -490.186)" fill="#fff"></path><path id="Trazado_50311" data-name="Trazado 50311" d="M344.813,491.162a5.47,5.47,0,0,1,.9-.07,1.5,1.5,0,0,1,1.024.3,1,1,0,0,1,.319.764,1.074,1.074,0,0,1-.282.78,1.522,1.522,0,0,1-1.116.4,1.632,1.632,0,0,1-.379-.032v1.462h-.471Zm.471,1.76a1.572,1.572,0,0,0,.39.038c.569,0,.915-.282.915-.775s-.347-.72-.861-.72a1.965,1.965,0,0,0-.444.038Z" transform="translate(-315.828 -490.29)" fill="#fff"></path><path id="Trazado_50312" data-name="Trazado 50312" d="M358.024,488.088l-.693.634h-.385l.5-.634Zm-.558.829v3.65h-.476v-3.65Z" transform="translate(-324.723 -488.088)" fill="#fff"></path><path id="Trazado_50313" data-name="Trazado 50313" d="M365.082,493.695l-.379,1.148h-.487l1.245-3.65h.563l1.246,3.65h-.5l-.39-1.148Zm1.2-.368-.363-1.051c-.081-.238-.135-.455-.19-.666h-.011c-.054.211-.108.439-.184.661l-.357,1.056Z" transform="translate(-330.052 -490.364)" fill="#fff"></path></g></g><g id="Grupo_2536" data-name="Grupo 2536" transform="translate(30.188 0)"><g id="Grupo_2535" data-name="Grupo 2535"><path id="Trazado_50314" data-name="Trazado 50314" d="M250.758,467.24c-.027-.509-.06-1.127-.06-1.576h-.011c-.13.422-.276.883-.46,1.386l-.645,1.771h-.358l-.6-1.739c-.173-.52-.314-.986-.417-1.419H248.2c-.011.455-.038,1.062-.07,1.614l-.1,1.565h-.45l.255-3.65h.6l.623,1.766c.151.45.271.851.368,1.229h.011c.1-.369.227-.769.39-1.229l.65-1.766h.6l.228,3.65h-.466Z" transform="translate(-247.584 -465.128)" fill="#fff"></path><path id="Trazado_50315" data-name="Trazado 50315" d="M271.234,467.132H269.82v1.316H271.4v.395h-2.058v-3.65h1.977v.4h-1.5v1.154h1.414Z" transform="translate(-263.537 -465.128)" fill="#fff"></path><path id="Trazado_50316" data-name="Trazado 50316" d="M285.2,468.843l-.471-.807c-.189-.309-.3-.509-.417-.721H284.3c-.1.211-.211.406-.4.726l-.439.8h-.541L284.043,467l-1.072-1.8h.547l.482.856c.136.238.239.422.336.617h.016c.1-.216.195-.385.33-.617l.493-.856h.547l-1.11,1.777,1.138,1.874Z" transform="translate(-273.496 -465.128)" fill="#fff"></path><path id="Trazado_50317" data-name="Trazado 50317" d="M300.93,465.193v3.65h-.476v-3.65Z" transform="translate(-286.344 -465.128)" fill="#fff"></path><path id="Trazado_50318" data-name="Trazado 50318" d="M311.633,468.567a2.319,2.319,0,0,1-.964.174,1.7,1.7,0,0,1-1.8-1.853,1.814,1.814,0,0,1,1.907-1.917,1.986,1.986,0,0,1,.867.162l-.119.385a1.67,1.67,0,0,0-.731-.152,1.358,1.358,0,0,0-1.424,1.506,1.323,1.323,0,0,0,1.4,1.468,1.9,1.9,0,0,0,.774-.152Z" transform="translate(-292.515 -464.965)" fill="#fff"></path><path id="Trazado_50319" data-name="Trazado 50319" d="M327.3,467.695l-.379,1.148h-.487l1.246-3.65h.563l1.246,3.65h-.5l-.39-1.148Zm1.2-.368-.363-1.051c-.081-.238-.136-.455-.19-.666h-.011c-.054.211-.108.439-.184.661l-.357,1.056Z" transform="translate(-305.388 -465.128)" fill="#fff"></path><path id="Trazado_50320" data-name="Trazado 50320" d="M345.4,468.843v-3.65h.52l1.164,1.847a10.2,10.2,0,0,1,.65,1.187l.016-.006c-.043-.487-.054-.931-.054-1.5v-1.527h.444v3.65h-.477l-1.159-1.852a10.683,10.683,0,0,1-.677-1.219l-.016.005c.027.46.032.9.032,1.506v1.56Z" transform="translate(-319.297 -465.128)" fill="#fff"></path><path id="Trazado_50321" data-name="Trazado 50321" d="M366.8,466.8a1.713,1.713,0,0,1-1.7,1.923,1.675,1.675,0,0,1-1.641-1.858,1.73,1.73,0,0,1,1.69-1.918A1.665,1.665,0,0,1,366.8,466.8Zm-2.838.054c0,.785.422,1.484,1.17,1.484s1.17-.688,1.17-1.517c0-.731-.379-1.489-1.164-1.489S363.96,466.059,363.96,466.856Z" transform="translate(-332.537 -464.949)" fill="#fff"></path></g></g></g></g></svg>