<svg xmlns="http://www.w3.org/2000/svg" width="58.379" height="73.007" viewBox="0 0 58.379 73.007"><g id="Grupo_2511" data-name="Grupo 2511" transform="translate(256.518 -1557.545)"><path id="Trazado_50126" data-name="Trazado 50126" d="M2.522,1671.62-.7,1673.813,3.671,1707l2.4-33.19Z" transform="translate(-230.268 -102.68)" fill="#fff"></path><g id="Grupo_2510" data-name="Grupo 2510" transform="translate(-256.518 1557.545)"><path id="Trazado_50127" data-name="Trazado 50127" d="M-119.3,1775.642c-.434.13-.89.148-1.327.288a5.668,5.668,0,0,0-1.51.7,4.213,4.213,0,0,0-.771.771,1.952,1.952,0,0,0-.217.51,2.36,2.36,0,0,0-.05,1.117,1.8,1.8,0,0,0,.365.74,4.449,4.449,0,0,0,2.008,1.511c.259.116.534.194.8.328-.384-.034-.759.113-1.153-.052a3.141,3.141,0,0,0-.7-.1c-.328-.049-.648-.118-.972-.189-.305-.067-.611-.153-.912-.2a16.264,16.264,0,0,1-2.446-.737,20.764,20.764,0,0,1-1.971-.9c-.553-.25-1.026-.639-1.581-.884a10.4,10.4,0,0,0-1.057-.836c-.442-.4-.948-.735-1.351-1.179a10.571,10.571,0,0,1-1.506-1.922,11.25,11.25,0,0,1-1.123-2.578c-.09-.35-.139-.711-.215-1.062a16.776,16.776,0,0,1-.094-2.107,6.955,6.955,0,0,1,.112-.808,4.062,4.062,0,0,1,.17-.725,7.913,7.913,0,0,1,.829-2.154,9.31,9.31,0,0,1,.7-1.154,10.479,10.479,0,0,1,1.058-1.258,17.314,17.314,0,0,1,2.718-2.228c.142-.092.3-.158.465-.242.247.143.311.432.441.673a6.205,6.205,0,0,0,1.043,1.213,5.471,5.471,0,0,0,1.083.77,7.571,7.571,0,0,0,1.489.626,8.546,8.546,0,0,1,1.129.287.186.186,0,0,0,.1.006,3.407,3.407,0,0,1,.808.1c.265.021.532,0,.8,0h1.248c.028.011.079.021.08.034.011.128,0,.259.023.385s.1.237.091.351c-.034.548.174,1.078.106,1.627-.4,0-.8-.026-1.2.008a6.364,6.364,0,0,0-1.113.2,4.033,4.033,0,0,0-1.123.409,4.828,4.828,0,0,0-1.1.859,3.115,3.115,0,0,0-.743,1.535,3.2,3.2,0,0,0,.328,2,4.68,4.68,0,0,0,.548.815,3.1,3.1,0,0,0,.644.587,7.45,7.45,0,0,0,1.344.738c.377.161.784.186,1.155.344.573-.047,1.129.169,1.7.1a5.794,5.794,0,0,1,.648,0,1.557,1.557,0,0,0,.089.405C-119.348,1774.776-119.332,1775.21-119.3,1775.642Z" transform="translate(147.222 -1740.028)" fill="#fff"></path><path id="Trazado_50128" data-name="Trazado 50128" d="M-63.449,1689.139h2.3l1.7-.1c.238-.037.481.064.721-.063.209-.11.472.021.7-.126a2.052,2.052,0,0,0,.246-.122,4.024,4.024,0,0,1,1.4-.593,3.867,3.867,0,0,1,1.005-.1,5.141,5.141,0,0,1,1.541.368,5.939,5.939,0,0,1,1.18.635,3.189,3.189,0,0,1,.93.975c.036.067.046.147.076.217s.069.137.1.2c-.141.143-.053.395-.253.5a5.543,5.543,0,0,1-.783.392,2.255,2.255,0,0,1-.852.117,2.959,2.959,0,0,0-.618.114l.67.208.13.255-.1.314a1.853,1.853,0,0,0-.22.072c-.154.071-.3.163-.456.225a6.892,6.892,0,0,1-1.672.3,3.308,3.308,0,0,1-.658-.094,7.179,7.179,0,0,1-.759-.1,4.34,4.34,0,0,1-1.617-.673,2.742,2.742,0,0,0-1.012-.337c-.052-.033-.1-.09-.156-.1-.347-.041-.695-.071-1.042-.1-.205,0-.382-.17-.6-.1l-.9-.1h-.6c0-.134-.1-.1-.175-.1-.441,0-.883,0-1.324,0-.311-.068-.6.09-.9.1a6.849,6.849,0,0,0-1.2.1l-.953.1c-.142.222-.426-.024-.575.175a13.3,13.3,0,0,0-1.368.424c-.317.112-.621.263-.932.4-.116.05-.161.184-.312.216-.088.018-.174.182-.208.3-.053.177-.206.351-.139.535a2.756,2.756,0,0,0,.453.856,2.672,2.672,0,0,0,.687.5,5.483,5.483,0,0,0,2.5.691c.413.031.83.005,1.245.005.033.234.073.467.1.7s-.058.486.1.7l.1,1.693c-.349,0-.7-.027-1.047.006-.577.055-1.132-.153-1.7-.106a6.981,6.981,0,0,1-2-.6,1.581,1.581,0,0,1-.844-.364,5.416,5.416,0,0,1-1.36-1.05,4.556,4.556,0,0,1-.988-1.683,2.439,2.439,0,0,1-.155-.835,3.754,3.754,0,0,0,0-.5,3.312,3.312,0,0,1,.627-2.034,4.758,4.758,0,0,1,1.8-1.532,9.118,9.118,0,0,1,1.174-.537,4.713,4.713,0,0,1,.992-.247,2.941,2.941,0,0,1,.806-.117,5.9,5.9,0,0,0,.8.008h4.4Z" transform="translate(92.271 -1675.002)" fill="#fff"></path><path id="Trazado_50129" data-name="Trazado 50129" d="M-149.415,1756.032c-.583,0-1.165-.011-1.748,0a13.964,13.964,0,0,0-1.607-.1c-.221-.14-.485-.042-.7-.113a6.839,6.839,0,0,0-.711-.094c-.835-.189-1.676-.346-2.5-.575s-1.633-.469-2.428-.773a12.941,12.941,0,0,1-1.439-.628c-.3-.156-.628-.245-.928-.41-.627-.344-1.249-.694-1.848-1.083-.367-.239-.735-.476-1.1-.719-.2-.133-.361-.312-.556-.457a12.832,12.832,0,0,1-1.9-1.8,11.317,11.317,0,0,1-1.311-1.749,12,12,0,0,1-1.026-2.072,18.986,18.986,0,0,1-.586-1.958,14.825,14.825,0,0,1-.171-3.367,4.376,4.376,0,0,1,.2-1.213,12.165,12.165,0,0,1,.44-1.364c.207-.5.42-.994.673-1.469a15.2,15.2,0,0,1,1.189-1.807,12.506,12.506,0,0,1,1.526-1.712,16.1,16.1,0,0,1,2.453-1.911c.344-.217.682-.444,1.021-.668a16.014,16.014,0,0,1,1.79-.983,1.533,1.533,0,0,1,.42-.057,3.285,3.285,0,0,0-.32,1.67,3.761,3.761,0,0,0-.658.348c-.381.309-.854.463-1.228.785-.31.267-.666.48-.994.728a13.417,13.417,0,0,0-1.616,1.52,13.5,13.5,0,0,0-1.624,2.169,11.541,11.541,0,0,0-1.151,2.621,9.919,9.919,0,0,0-.254,1.349,9.326,9.326,0,0,0-.068,1.81,9.232,9.232,0,0,0,.316,1.964,9.521,9.521,0,0,0,.878,2.231,14.165,14.165,0,0,0,1.011,1.583,13.739,13.739,0,0,0,1.89,2.055,14.216,14.216,0,0,0,2.1,1.559,15.605,15.605,0,0,0,1.815,1.046,18.9,18.9,0,0,0,1.781.765c.583.2,1.165.4,1.747.6.325.113.666.143.984.274.274.113.581.1.868.193.269.087.573.056.853.116.5.107,1.011.138,1.513.213.456.069.921,0,1.356.1a9.591,9.591,0,0,0,1.461.082A4.725,4.725,0,0,1-149.415,1756.032Z" transform="translate(178.637 -1711.828)" fill="#fff"></path><path id="Trazado_50130" data-name="Trazado 50130" d="M75.295,1727.433h.178l.038-.393a.64.64,0,0,1,.238,0q.673.306,1.336.633a20.106,20.106,0,0,1,2.552,1.554,11.465,11.465,0,0,1,1.681,1.372c.179.183.413.314.588.5a17.534,17.534,0,0,1,2.147,2.756,11.492,11.492,0,0,1,1.135,2.475,8.385,8.385,0,0,1,.377,1.536,5.536,5.536,0,0,1,.123.955,7.347,7.347,0,0,0,0,1,5.914,5.914,0,0,1-.125,1.554,10.831,10.831,0,0,1-.516,1.929,11.007,11.007,0,0,1-.713,1.6c-.35.613-.744,1.2-1.153,1.773a16.467,16.467,0,0,1-4.78,4.226c-.5.286-.984.595-1.5.833-.754.345-1.512.686-2.29.983-.535.2-1.1.318-1.626.535-.284.116-.6.136-.9.243-.16.058-.367.026-.5.115-.184.123-.415.007-.547.12-.155.133-.38-.037-.486.165-.269.034-.538.065-.806.1s-.532.086-.859.14L69,1753.7c.265-.114.3-.392.387-.609a1.466,1.466,0,0,1,.26-.49.839.839,0,0,0,.153,0c.508-.1,1.026-.165,1.52-.309.4-.117.8-.225,1.2-.357.5-.166.993-.328,1.482-.52s.967-.4,1.447-.605a17.862,17.862,0,0,0,2.351-1.31,11.377,11.377,0,0,0,2-1.556c.341-.341.678-.687,1.025-1.022a7.583,7.583,0,0,0,.983-1.192,10.693,10.693,0,0,0,1.42-2.706,8.657,8.657,0,0,0,.555-2.865,8.9,8.9,0,0,1,0-1.048,5.144,5.144,0,0,0-.23-1.808,9.716,9.716,0,0,0-.733-1.989,11.9,11.9,0,0,0-1.476-2.286,16.861,16.861,0,0,0-1.138-1.322c-.222-.212-.459-.409-.7-.6-.373-.3-.745-.6-1.136-.874-.513-.358-1.03-.716-1.572-1.026-.507-.291-1.045-.527-1.576-.772a7.848,7.848,0,0,1-.829-.425c.287-.113.5-.195.7-.279A.259.259,0,0,0,75.295,1727.433Z" transform="translate(-36.384 -1710.099)" fill="#fff"></path><path id="Trazado_50131" data-name="Trazado 50131" d="M-24.048,1561.793c.3,0,.6,0,.893,0,1.153.01,2.3-.2,3.478-.073a5.713,5.713,0,0,0,.325-.729c.288-.994.71-1.94,1.009-2.929a3.025,3.025,0,0,1,.282-.517,3.627,3.627,0,0,1,.43,1.031c.141.34.275.685.389,1.038s.279.682.4,1.034.258.692.38,1.016c1.076.044,2.108.091,3.14.126.413.014.827,0,1.3,0-.045.1-.055.187-.1.221-.624.446-1.221.924-1.813,1.412-.493.408-1.014.782-1.543,1.187.27,1.46.786,2.828,1.134,4.258-.316.013-.492-.222-.7-.355-.782-.493-1.545-1.017-2.314-1.53a.808.808,0,0,1-.149-.122.771.771,0,0,0-.742-.272c-1.166.773-2.271,1.574-3.419,2.348a.991.991,0,0,1,.08-.829,16.979,16.979,0,0,1,.656-2.075,6.17,6.17,0,0,1,.3-1.174,1.459,1.459,0,0,0,0-.217,8.732,8.732,0,0,0-.949-.78c-.348-.284-.705-.558-1.063-.828-.379-.286-.736-.6-1.139-.86A.428.428,0,0,1-24.048,1561.793Z" transform="translate(47.27 -1557.545)" fill="#fff"></path><path id="Trazado_50132" data-name="Trazado 50132" d="M-9.454,1878.711c-.358-.052-.7-.157-1.063-.214a5.273,5.273,0,0,1-1.048-.352,8.413,8.413,0,0,1-1.541-.852,2.561,2.561,0,0,1-.647-.773,1.557,1.557,0,0,1-.3-1.027c.014-.165,0-.333,0-.49.09-.172.164-.344.263-.5a3.4,3.4,0,0,1,1.636-1.207c.376-.156.782-.187,1.145-.369.093-.047.23,0,.343-.016a2.1,2.1,0,0,0,.308-.1c.225,0,.451.005.676,0,.042,0,.082-.062.123-.1a4.919,4.919,0,0,0,.495,0c.17-.017.336-.063.5-.1a1.771,1.771,0,0,0,.281,0c.043-.007.079-.062.118-.1h.5l.5-.1c.17.052.3-.105.454-.1a2.486,2.486,0,0,0,.952-.214c.422-.155.845-.369.9-.9a1.432,1.432,0,0,0-1.007-.67,3.622,3.622,0,0,0-1.195-.114,19.2,19.2,0,0,0,.1-2.074.946.946,0,0,1,0-.245c.005-.03.062-.052.1-.078h.9a4.766,4.766,0,0,1,2.083.386,4.188,4.188,0,0,1,1.615,1.147,2.44,2.44,0,0,1,.3,2.459,2.624,2.624,0,0,1-.6.85,2.451,2.451,0,0,1-.906.7v.156a.963.963,0,0,0-.324.061,5.379,5.379,0,0,1-1.721.52,6.55,6.55,0,0,1-1.551.118,4.928,4.928,0,0,0-1.057.084,3.738,3.738,0,0,1-.941.016c-.17-.052-.3.1-.454.1h-.545c-.218-.07-.4.08-.6.1a1.22,1.22,0,0,0-.862.527.52.52,0,0,0-.043.648,1.473,1.473,0,0,0,.743.622,11.273,11.273,0,0,0,1.163.3c0,.174.077.35.081.5A7.77,7.77,0,0,1-9.454,1878.711Z" transform="translate(38.276 -1837.004)" fill="#fff"></path><path id="Trazado_50133" data-name="Trazado 50133" d="M-195.974,1691.063l-.781-1.711h-2.039l1.488-1.273c-.018-.644-.4-1.231-.5-1.95.6.261,1.066.684,1.643.95.6-.275,1.036-.8,1.667-1.133-.094.688-.318,1.308-.418,1.96l1.563,1.1c-.15.064-.248.145-.337.138a10.393,10.393,0,0,0-1.609.125l-.562,1.793Z" transform="translate(204.559 -1673.119)" fill="#fff"></path><path id="Trazado_50134" data-name="Trazado 50134" d="M-142.4,1645.709l1.556,1.1c-.655.235-1.331.082-1.991.3l-.56,1.811a8.408,8.408,0,0,1-.809-1.746h-1.981c.108-.411.5-.473.712-.725a5.4,5.4,0,0,1,.726-.627c-.155-.594-.414-1.129-.516-1.71a.522.522,0,0,1,.035-.161l1.592.934,1.563-1.142a2.637,2.637,0,0,1-.071.583A10.3,10.3,0,0,0-142.4,1645.709Z" transform="translate(157.21 -1635.135)" fill="#fff"></path><path id="Trazado_50135" data-name="Trazado 50135" d="M256.041,1730.329c-.133-.195.02-.413-.1-.623a1.345,1.345,0,0,1-.044-.578c-.005-.216,0-.432,0-.659a17.85,17.85,0,0,1-1.9-.738l1.9-.733v-1.961a2.482,2.482,0,0,1,.744.825c.185.256.417.449.612.694l1.835-.53c-.01.081,0,.148-.026.19-.326.5-.657.99-.991,1.49.3.57.771,1.005,1.065,1.631-.72-.065-1.336-.391-1.979-.414A5.862,5.862,0,0,1,256.041,1730.329Z" transform="translate(-203.002 -1708.304)" fill="#fff"></path><path id="Trazado_50136" data-name="Trazado 50136" d="M218.389,1687.134l1.58-.962c.017.1.069.2.04.264-.178.38-.265.789-.408,1.178a1.357,1.357,0,0,0-.077.515l1.452,1.232a7.2,7.2,0,0,1-1.019.031c-.332.006-.663,0-1.023,0l-.781,1.764c-.069-.083-.119-.119-.133-.166-.173-.559-.34-1.121-.5-1.659-.344-.049-.657-.111-.974-.135s-.618,0-.969,0c.162-.381.488-.467.737-.645s.5-.381.8-.606c.068-.313-.158-.617-.2-.951s-.13-.637-.208-1C217.345,1686.28,217.752,1686.84,218.389,1687.134Z" transform="translate(-168.418 -1673.159)" fill="#fff"></path><path id="Trazado_50137" data-name="Trazado 50137" d="M11.592,2025.831l.633,1.922c.113,0,.26-.01.4,0,.48.039.96.085,1.438.128,0,.042.022.084.007.1a.8.8,0,0,1-.165.181c-.435.311-.873.616-1.313.926a10.77,10.77,0,0,1,.381,1.906c-.565-.318-.986-.726-1.514-1.072-.555.241-1.064.631-1.642.944-.142-.365.1-.658.182-.951a2.751,2.751,0,0,1,.33-.867c-.289-.252-.558-.457-.791-.7-.215-.222-.581-.3-.675-.68h1.876C11.078,2027.123,11.243,2026.494,11.592,2025.831Z" transform="translate(17.641 -1979.054)" fill="#fff"></path><path id="Trazado_50138" data-name="Trazado 50138" d="M115.659,1611.7a11.218,11.218,0,0,1-1.819.728,6.813,6.813,0,0,1-.167,1.9c-.5-.368-.717-1-1.232-1.392-.605.043-1.165.395-1.865.411l1.044-1.612-1.037-1.495c.26-.237.453.01.663.017a2.71,2.71,0,0,1,.583.151l.631.172,1.257-1.645a4.8,4.8,0,0,1,0,.5c-.067.526.171,1.031.092,1.585Z" transform="translate(-73.906 -1603.802)" fill="#fff"></path><path id="Trazado_50139" data-name="Trazado 50139" d="M-90.751,2018.813l-.664,1.813c-.37-.6-.467-1.259-.794-1.829a7.525,7.525,0,0,1-1.859-.135c.411-.507.995-.78,1.428-1.254l-.524-1.823a2.266,2.266,0,0,1,.842.48c.265.189.561.336.874.519a10.642,10.642,0,0,1,1.586-1.053c-.016.692-.4,1.245-.413,1.894.238.2.472.425.727.619s.542.292.713.6c-.351.015-.662.018-.971.046S-90.408,2018.766-90.751,2018.813Z" transform="translate(110.295 -1969.783)" fill="#fff"></path><path id="Trazado_50140" data-name="Trazado 50140" d="M-91.054,1612.338l1.878-.694c.043-.324.1-.639.122-.956s0-.66,0-1.065c.523.488.811,1.082,1.272,1.574l1.8-.451.032.209-1.009,1.387,1.078,1.711a2.2,2.2,0,0,1-.269-.04c-.471-.148-.939-.3-1.411-.448a.981.981,0,0,0-.26,0l-1.174,1.429a6.041,6.041,0,0,1-.158-1.921Z" transform="translate(107.582 -1604.421)" fill="#fff"></path><path id="Trazado_50141" data-name="Trazado 50141" d="M-251.669,1780.674l-1.7-.564c-.538.391-.837,1.006-1.373,1.424v-1.94a18.822,18.822,0,0,1-1.776-.82l1.814-.622c.1-.667.112-1.305.239-2.013l1.136,1.618c.324-.056.635-.111.947-.163a3.151,3.151,0,0,1,.95-.153,14.025,14.025,0,0,1-1.04,1.494c.017.327.3.553.415.854S-251.649,1780.279-251.669,1780.674Z" transform="translate(256.518 -1754.304)" fill="#fff"></path><path id="Trazado_50142" data-name="Trazado 50142" d="M168.056,1647.435l-.756,1.746a2.791,2.791,0,0,1-.336-.935c-.084-.3-.2-.584-.313-.924l-1.865-.235c.133-.317.47-.363.686-.554a8.718,8.718,0,0,1,.73-.528,13.8,13.8,0,0,0-.3-1.969c.59.314,1.028.791,1.593,1.111l1.685-.964c.03.4-.212.65-.284.953a9.056,9.056,0,0,1-.328.935c.261.219.522.409.746.636s.567.321.718.692a5.086,5.086,0,0,1-.978.035C168.723,1647.441,168.391,1647.435,168.056,1647.435Z" transform="translate(-122.702 -1635.396)" fill="#fff"></path><path id="Trazado_50143" data-name="Trazado 50143" d="M269.66,1838.695l-1.04-1.378a11.836,11.836,0,0,1,1.893.288c.426-.47.708-1.06,1.212-1.609l.166,2,1.869.564c-.031.041-.058.113-.107.134-.563.246-1.129.485-1.7.73a4.863,4.863,0,0,0,.093,1.12,2.767,2.767,0,0,1,.013.789.98.98,0,0,1-.233-.125c-.367-.4-.728-.8-1.093-1.2-.349-.068-.63.156-.946.223a6.113,6.113,0,0,0-.688.26,1,1,0,0,1-.291-.009,11.646,11.646,0,0,1,.623-1.088A.989.989,0,0,0,269.66,1838.695Z" transform="translate(-216.164 -1808.181)" fill="#fff"></path><path id="Trazado_50144" data-name="Trazado 50144" d="M-228.956,1727.728c.212.29.563.319.858.451s.623.261,1.041.435l-1.9.7v1.886c-.407-.112-.491-.472-.707-.7a6.2,6.2,0,0,1-.53-.728,10.553,10.553,0,0,0-1.978.393c.267-.611.774-1.038,1.04-1.643-.272-.571-.709-1.048-1.033-1.653.683.109,1.3.357,1.948.52a1.121,1.121,0,0,1,.105-.205q.488-.6.987-1.186c.016-.019.059-.015.133-.031a3.717,3.717,0,0,1,.033.857C-228.949,1727.129-228.956,1727.428-228.956,1727.728Z" transform="translate(234.603 -1709.149)" fill="#fff"></path><path id="Trazado_50145" data-name="Trazado 50145" d="M276.939,1781.476c.259-.668.709-1.135.867-1.7-.316-.551-.766-.946-1.042-1.459.24-.2.418.018.614.035a2.315,2.315,0,0,0,.658.094c.173.213.41.025.61.134l1.088-1.536c.052.1.153.2.144.288-.055.527.148,1.034.1,1.582.552.343,1.24.35,1.892.692l-1.783.787v1.929c-.346-.126-.414-.482-.648-.684-.25-.216-.469-.469-.7-.7A12.747,12.747,0,0,1,276.939,1781.476Z" transform="translate(-223.493 -1755.116)" fill="#fff"></path><path id="Trazado_50146" data-name="Trazado 50146" d="M247.643,1907.649a13.122,13.122,0,0,1,1.906.3,8.085,8.085,0,0,1,.565-.779c.213-.235.293-.586.632-.8l.162,1.958,1.8.558c-.062.088-.1.208-.168.228-.533.16-1.019.43-1.561.654,0,.313.024.644-.007.969-.029.3.215.582.055.919-.558-.32-.832-.908-1.294-1.317-.339-.05-.618.172-.936.24a7.005,7.005,0,0,0-.691.251.9.9,0,0,1-.283-.022l.848-1.5v-.29Z" transform="translate(-197.282 -1871.528)" fill="#fff"></path><path id="Trazado_50147" data-name="Trazado 50147" d="M-171.993,1965.981a17,17,0,0,1-1.875-.533l-1.25,1.467c-.047-.683-.008-1.3-.029-1.97l-1.9-.837,1.88-.581a1.07,1.07,0,0,0,.128-.619c.026-.435.078-.868.118-1.293a5.175,5.175,0,0,1,1.114,1.434,12.556,12.556,0,0,0,2.018-.293c-.353.61-.829,1.041-1.153,1.605C-172.69,1964.9-172.274,1965.375-171.993,1965.981Z" transform="translate(184.985 -1921.251)" fill="#fff"></path><path id="Trazado_50148" data-name="Trazado 50148" d="M-246.532,1841.96v-1.923c-.537-.329-1.122-.489-1.654-.767-.032-.017-.04-.08-.075-.158l1.809-.552a.262.262,0,0,0,.016-.065c-.069-.606.173-1.189.085-1.858.124.063.213.079.245.13a11.958,11.958,0,0,1,.784,1.17,1.237,1.237,0,0,0,.221.256l1.888-.41a7.07,7.07,0,0,1-1.023,1.479v.334a9.654,9.654,0,0,1,.845,1.485,13.2,13.2,0,0,0-1.89-.52Z" transform="translate(249.086 -1808.758)" fill="#fff"></path><path id="Trazado_50149" data-name="Trazado 50149" d="M-223.53,1912.921v-1.933c-.551-.285-1.12-.481-1.653-.755-.032-.016-.039-.081-.073-.159l1.641-.5.184-.189a2.974,2.974,0,0,1,.012-.733,4.464,4.464,0,0,0,.09-1.057,1.98,1.98,0,0,1,.661.761c.193.268.383.538.571.8l1.834-.4c.128.144-.052.271-.109.351-.258.366-.555.7-.848,1.062v.42c.263.426.526.849.783,1.275.02.033,0,.093-.01.167a11.324,11.324,0,0,0-1.84-.509Z" transform="translate(228.38 -1872.63)" fill="#fff"></path><path id="Trazado_50150" data-name="Trazado 50150" d="M200.983,1964.65v1.859c-.537-.349-.811-.9-1.294-1.333l-1.779.567c-.011-.1-.053-.2-.022-.249.249-.416.511-.823.79-1.265v-.327l-1.032-1.376a12.806,12.806,0,0,1,1.886.292c.437-.457.686-1.088,1.2-1.586l.173,1.971,1.81.563c-.071.094-.116.217-.185.233A9.159,9.159,0,0,0,200.983,1964.65Z" transform="translate(-152.279 -1920.908)" fill="#fff"></path><path id="Trazado_50151" data-name="Trazado 50151" d="M40.314,1960.591h-.158a4.813,4.813,0,0,1-1.089,1.287c-.156.147-.39.213-.542.363a1.387,1.387,0,0,1-1.27.434l-.237-.237v-.547c.16-.088.315-.18.3-.4l1.078-1.01c.045-.145-.04-.272.121-.289s.085-.124.1-.2h.149c.05-.095.1-.189.15-.285s.086-.2.131-.294a.564.564,0,0,0-.429-.819c-.033-.026-.1-.052-.1-.079a4.167,4.167,0,0,1,.16-1.639c.138.041.274.072.4.121a2.8,2.8,0,0,1,1.2.827c.075.092.088.235.232.271a4.552,4.552,0,0,1,.193.717,2.2,2.2,0,0,1-.294,1.372A.633.633,0,0,0,40.314,1960.591Z" transform="translate(-7.696 -1916.987)" fill="#fff"></path><path id="Trazado_50152" data-name="Trazado 50152" d="M109.436,2019.846a17.561,17.561,0,0,1,1.714.972l1.623-1.158c-.049.712-.393,1.324-.4,2.008l1.5,1.089-.141.141c-.275,0-.557-.013-.838,0-.369.021-.738.057-1.105.1a.844.844,0,0,0-.6.6c-.049.229-.087.461-.14.743L110.5,2023h-1.965a16.215,16.215,0,0,1,1.434-1.237c.077-.344-.159-.622-.22-.939A8.687,8.687,0,0,0,109.436,2019.846Z" transform="translate(-72.071 -1973.5)" fill="#fff"></path><path id="Trazado_50153" data-name="Trazado 50153" d="M-127.068,2004.966l.082.07-.031.031-.07-.082Z" transform="translate(140.016 -1960.273)" fill="#fff"></path><path id="Trazado_50154" data-name="Trazado 50154" d="M278.211,1820.986l-.07.082-.031-.031.082-.07Z" transform="translate(-224.706 -1794.652)" fill="#fff"></path><path id="Trazado_50155" data-name="Trazado 50155" d="M247.192,1918.265l-.082-.07.032-.031.07.082Z" transform="translate(-196.802 -1882.142)" fill="#fff"></path><path id="Trazado_50156" data-name="Trazado 50156" d="M-208.068,1820.966l.082.07-.031.031-.07-.082Z" transform="translate(212.925 -1794.652)" fill="#fff"></path><path id="Trazado_50157" data-name="Trazado 50157" d="M-31.83,1772.847h-2.8a5.442,5.442,0,0,0-1.309.185,1.6,1.6,0,0,0-1.031.641c.239.15.351.376.617.485a9.673,9.673,0,0,0,1.923.387,3.612,3.612,0,0,1,.1.4,2.157,2.157,0,0,1,0,.4c-.011.193.148.345.109.554a1.071,1.071,0,0,0,.079.556,1.847,1.847,0,0,1,.013.589c-.4,0-.8-.01-1.2,0a6.36,6.36,0,0,1-1.512-.2,4.513,4.513,0,0,1-1.333-.508,4.094,4.094,0,0,1-1.928-2.316.83.83,0,0,1-.024-.239c0-.2.018-.4,0-.6a2.173,2.173,0,0,1,.553-1.612,3.033,3.033,0,0,1,1.308-1.035,9.963,9.963,0,0,1,1.234-.391,13.417,13.417,0,0,1,2.3-.093h4.4c.1-.038.253.093.3-.1a8.106,8.106,0,0,0,1.255-.082,4.835,4.835,0,0,0,1.485-.505c.483-.292.85-.638.747-1.269a2.541,2.541,0,0,0-.211-.307,2.314,2.314,0,0,0-1.635-.727c-.479-.029-.961-.006-1.441-.006,0-.033,0-.066,0-.1-.071-.713.114-1.414.105-2.125a2.388,2.388,0,0,1,.092-.353c.019-.127.011-.258.022-.386,0-.014.053-.023.081-.035a3.414,3.414,0,0,1,1.025.172,3.045,3.045,0,0,0,.646.121,4.865,4.865,0,0,1,.961.218,5.15,5.15,0,0,1,.827.286c.253.11.519.191.771.3a7.523,7.523,0,0,1,.781.4,4.5,4.5,0,0,1,2.007,1.963,2.82,2.82,0,0,1,.263.984,2.331,2.331,0,0,1-.515,1.427.831.831,0,0,0-.073.219l-.6.6c-.05,0-.121-.022-.146,0a5.078,5.078,0,0,1-1.556.938,9.23,9.23,0,0,1-1.759.568,8.552,8.552,0,0,1-1.721.288c-.252.165-.536.072-.8.1-.138.016-.27.076-.408.093a3.18,3.18,0,0,1-.4,0h-1.4C-31.706,1772.762-31.821,1772.7-31.83,1772.847Z" transform="translate(61.751 -1743.427)" fill="#fff"></path><path id="Trazado_50158" data-name="Trazado 50158" d="M-36.576,1737.751h-.649c-.355,0-.694-.12-1.057-.115a2.278,2.278,0,0,1-1.008-.2,3.8,3.8,0,0,1-1.328-.777c-.109-.126-.234-.237-.353-.355v-.312c.038-.012.082-.023.124-.039a5.475,5.475,0,0,1,.519-.191c.751-.194,1.5-.38,2.245-.608.235.072.431-.109.657-.1s.433,0,.649,0c.033.234.065.469.1.7.033.218-.039.435.084.662.083.154.016.389.016.587Z" transform="translate(62.501 -1717.321)" fill="#fff"></path><path id="Trazado_50159" data-name="Trazado 50159" d="M-3.16,1855.071c.028.011.079.021.08.033.011.191,0,.384.024.573.017.166.063.328.1.492a6.146,6.146,0,0,1-.854-.078c-.247-.039-.507-.081-.743-.142a.878.878,0,0,1-.619-.38.926.926,0,0,1,.724-.378,3.259,3.259,0,0,1,.6-.121Z" transform="translate(30.284 -1825.351)" fill="#fff"></path><path id="Trazado_50160" data-name="Trazado 50160" d="M14.417,1937.769a2.787,2.787,0,0,1-1.5-.577l-.118-.419a1.431,1.431,0,0,1,1.063-.605,2.682,2.682,0,0,0,.357-.1c-.07.218.086.4.1.6.016.185-.049.368.08.563C14.485,1937.362,14.417,1937.588,14.417,1937.769Z" transform="translate(14.105 -1898.26)" fill="#fff"></path><path id="Trazado_50161" data-name="Trazado 50161" d="M117.7,1780.826a.23.23,0,0,0,.255-.106,2.663,2.663,0,0,0,.451-1.363,6.065,6.065,0,0,0-.135-1.25c.4-.4.778-.8,1.18-1.173s.806-.685,1.2-1.019a4.661,4.661,0,0,1,1.234,1.067,11.662,11.662,0,0,1,1.906,2.95,11.336,11.336,0,0,1,.609,1.845,7.992,7.992,0,0,1,.167,2.761,8.85,8.85,0,0,1-.638,2.523,13.6,13.6,0,0,1-1.328,2.392,9.228,9.228,0,0,1-1.34,1.54c-.163.151-.354.272-.582.445a2.347,2.347,0,0,1-.481-.279,20.2,20.2,0,0,1-1.684-1.478,9.181,9.181,0,0,1-.9-1.126c-.117-.187-.313-.308-.381-.539a4.725,4.725,0,0,0-.29-.528,8.325,8.325,0,0,1-.543-1.321,8.93,8.93,0,0,1-.322-1.571c-.024-.333-.069-.67-.078-1.008a6.9,6.9,0,0,1,.211-1.423c.229-.134.477-.265.709-.419.1-.068.222-.158.179-.322h.25l.35-.349Z" transform="translate(-78.792 -1754.103)" fill="#fff"></path><path id="Trazado_50162" data-name="Trazado 50162" d="M53.641,1924.075c.214-.046.434.068.658-.087.153-.106.418.085.591-.113a1.936,1.936,0,0,0,1-.22c.33-.1.735-.128.953-.479.2.015.337-.153.554-.21.272.245.545.524.852.759a8.971,8.971,0,0,0,1.376.89,10.358,10.358,0,0,0,1.936.8c-.08.207-.276.264-.422.349a15.859,15.859,0,0,1-2.894,1.207c-.413.125-.829.246-1.23.4-.35.138-.72.187-1.076.293a2.355,2.355,0,0,1-.408.1,3.874,3.874,0,0,1-.442,0l-.144-.3a2.2,2.2,0,0,0-1.032-1,1.547,1.547,0,0,0-.817-.306c-.043,0-.093-.086-.158-.151l.143-1.939Z" transform="translate(-22.022 -1886.464)" fill="#fff"></path><path id="Trazado_50163" data-name="Trazado 50163" d="M66.016,1737.735a10.125,10.125,0,0,0,.1-1.443,2.535,2.535,0,0,0,.1-1,.974.974,0,0,1,.1-.256,6.854,6.854,0,0,1,2.18.393c.639.18,1.272.37,1.9.6a12.021,12.021,0,0,1,2.553,1.182c.345.22.719.393,1.16.631-.187.067-.294.1-.4.143s-.225.1-.338.146c-.227.093-.464.168-.682.279-.317.161-.621.348-.93.525-.054.031-.109.06-.16.1a.766.766,0,0,1-.943.02,6.629,6.629,0,0,0-1.661-.671,6.585,6.585,0,0,0-1.811-.448c-.148-.213-.393-.043-.588-.15A1.463,1.463,0,0,0,66.016,1737.735Z" transform="translate(-33.797 -1717.305)" fill="#fff"></path><path id="Trazado_50164" data-name="Trazado 50164" d="M57.975,1853.318v-.347a3.951,3.951,0,0,1,0-.446,3.283,3.283,0,0,1,.1-.406,4.616,4.616,0,0,1,1.374-.105v1.393a1.989,1.989,0,0,1-.732-.075A3,3,0,0,0,57.975,1853.318Z" transform="translate(-26.556 -1822.599)" fill="#fff"></path><path id="Trazado_50165" data-name="Trazado 50165" d="M61.018,1798.383c.033-.251.079-.5.1-.752a2.767,2.767,0,0,1,.019-.738,3.281,3.281,0,0,0,.084-.907c.095-.011.218.01.279-.042a.362.362,0,0,1,.374-.048,3.183,3.183,0,0,0,1.01.093c.09.007.176.061.266.075a1.747,1.747,0,0,1,.879.406l-.71,1.247c-.108.189-.2.4-.452.449-.1.017-.239-.023-.328.025-.248.135-.541.006-.752.11C61.517,1798.432,61.269,1798.338,61.018,1798.383Z" transform="translate(-29.299 -1772.059)" fill="#fff"></path><path id="Trazado_50166" data-name="Trazado 50166" d="M55.118,1894.969a5.067,5.067,0,0,1,.741.007,2.171,2.171,0,0,1,1.177.449l-.128.415a5.939,5.939,0,0,1-.909.381,2.721,2.721,0,0,1-.98.146c.033-.235.079-.468.1-.7S55.118,1895.2,55.118,1894.969Z" transform="translate(-23.898 -1861.253)" fill="#fff"></path><g id="Grupo_2509" data-name="Grupo 2509" transform="translate(1.419 53.415)"><path id="Trazado_50167" data-name="Trazado 50167" d="M-95.7,2095.184l.874.277a1.959,1.959,0,0,1-.669,1.086,1.906,1.906,0,0,1-1.186.355,1.92,1.92,0,0,1-1.462-.607,2.326,2.326,0,0,1-.573-1.662,2.44,2.44,0,0,1,.576-1.731,1.974,1.974,0,0,1,1.514-.617,1.857,1.857,0,0,1,1.331.484,1.763,1.763,0,0,1,.457.822l-.892.213a.947.947,0,0,0-.331-.548.948.948,0,0,0-.611-.2,1.016,1.016,0,0,0-.806.356,1.747,1.747,0,0,0-.309,1.154,1.874,1.874,0,0,0,.3,1.206.99.99,0,0,0,.792.359.9.9,0,0,0,.618-.229A1.327,1.327,0,0,0-95.7,2095.184Z" transform="translate(113.06 -2092.284)" fill="#fff"></path><path id="Trazado_50168" data-name="Trazado 50168" d="M-52.034,2097.512v-4.465h3.311v.755h-2.409v.99h2.242v.752h-2.242v1.215h2.494v.752Z" transform="translate(71.041 -2092.971)" fill="#fff"></path><path id="Trazado_50169" data-name="Trazado 50169" d="M-10.291,2097.512v-4.465h.877l1.827,2.982v-2.982h.838v4.465h-.9l-1.8-2.912v2.912Z" transform="translate(33.468 -2092.971)" fill="#fff"></path><path id="Trazado_50170" data-name="Trazado 50170" d="M32.838,2097.512v-3.71H31.513v-.755h3.548v.755H33.739v3.71Z" transform="translate(-4.16 -2092.971)" fill="#fff"></path><path id="Trazado_50171" data-name="Trazado 50171" d="M72.89,2097.512v-4.465h1.9a3.25,3.25,0,0,1,1.04.12,1.028,1.028,0,0,1,.519.428,1.287,1.287,0,0,1,.195.7,1.19,1.19,0,0,1-.3.83,1.418,1.418,0,0,1-.883.413,2.1,2.1,0,0,1,.483.375,5.1,5.1,0,0,1,.513.725l.545.871H75.826l-.652-.972a6.312,6.312,0,0,0-.475-.657.7.7,0,0,0-.271-.186,1.489,1.489,0,0,0-.454-.05h-.183v1.864Zm.9-2.577h.667a3.424,3.424,0,0,0,.81-.055.483.483,0,0,0,.253-.189.579.579,0,0,0,.091-.335.536.536,0,0,0-.12-.364.553.553,0,0,0-.34-.175q-.11-.015-.658-.015h-.7Z" transform="translate(-41.404 -2092.971)" fill="#fff"></path><path id="Trazado_50172" data-name="Trazado 50172" d="M116.126,2094.62a2.839,2.839,0,0,1,.2-1.145,2.1,2.1,0,0,1,.416-.612,1.733,1.733,0,0,1,.577-.4,2.453,2.453,0,0,1,.963-.177,2.1,2.1,0,0,1,1.579.612,2.737,2.737,0,0,1,0,3.4,2.081,2.081,0,0,1-1.572.61,2.1,2.1,0,0,1-1.584-.607A2.308,2.308,0,0,1,116.126,2094.62Zm.929-.031a1.673,1.673,0,0,0,.35,1.15,1.2,1.2,0,0,0,1.774,0,1.706,1.706,0,0,0,.346-1.165,1.679,1.679,0,0,0-.337-1.145,1.247,1.247,0,0,0-1.792,0A1.687,1.687,0,0,0,117.055,2094.59Z" transform="translate(-80.321 -2092.284)" fill="#fff"></path><path id="Trazado_50173" data-name="Trazado 50173" d="M-242.314,2169.556a2.839,2.839,0,0,1,.2-1.145,2.1,2.1,0,0,1,.416-.612,1.74,1.74,0,0,1,.577-.4,2.449,2.449,0,0,1,.963-.177,2.1,2.1,0,0,1,1.579.612,2.348,2.348,0,0,1,.592,1.7,2.338,2.338,0,0,1-.588,1.692,2.08,2.08,0,0,1-1.572.611,2.1,2.1,0,0,1-1.584-.607A2.307,2.307,0,0,1-242.314,2169.556Zm.929-.03a1.673,1.673,0,0,0,.35,1.15,1.141,1.141,0,0,0,.889.392,1.132,1.132,0,0,0,.885-.388,1.708,1.708,0,0,0,.346-1.165,1.679,1.679,0,0,0-.337-1.145,1.139,1.139,0,0,0-.894-.378,1.146,1.146,0,0,0-.9.382A1.689,1.689,0,0,0-241.385,2169.526Z" transform="translate(242.314 -2159.735)" fill="#fff"></path><path id="Trazado_50174" data-name="Trazado 50174" d="M-191.852,2172.447v-4.465h3.061v.755h-2.159v1.057h1.864v.756h-1.864v1.9Z" transform="translate(196.893 -2160.421)" fill="#fff"></path><path id="Trazado_50175" data-name="Trazado 50175" d="M-155.644,2172.447v-3.71h-1.325v-.755h3.548v.755h-1.322v3.71Z" transform="translate(165.494 -2160.421)" fill="#fff"></path><path id="Trazado_50176" data-name="Trazado 50176" d="M-120.321,2172.447h-.981l-.39-1.014h-1.785l-.369,1.014h-.956l1.739-4.465h.953Zm-1.66-1.767-.615-1.657-.6,1.657Z" transform="translate(136.539 -2160.421)" fill="#fff"></path><path id="Trazado_50177" data-name="Trazado 50177" d="M-74.917,2172.778v-4.428h.9v3.676h2.242v.752Z" transform="translate(91.638 -2160.751)" fill="#fff"></path><path id="Trazado_50178" data-name="Trazado 50178" d="M-37.138,2172.447v-4.465h1.349l.81,3.046.8-3.046h1.352v4.465h-.838v-3.515l-.886,3.515h-.868l-.883-3.515v3.515Z" transform="translate(57.633 -2160.421)" fill="#fff"></path><path id="Trazado_50179" data-name="Trazado 50179" d="M13.172,2169.556a2.84,2.84,0,0,1,.2-1.145,2.1,2.1,0,0,1,.416-.612,1.741,1.741,0,0,1,.577-.4,2.449,2.449,0,0,1,.963-.177,2.1,2.1,0,0,1,1.579.612,2.736,2.736,0,0,1,0,3.395,2.08,2.08,0,0,1-1.572.611,2.1,2.1,0,0,1-1.584-.607A2.307,2.307,0,0,1,13.172,2169.556Zm.929-.03a1.673,1.673,0,0,0,.35,1.15,1.2,1.2,0,0,0,1.774,0,1.708,1.708,0,0,0,.346-1.165,1.679,1.679,0,0,0-.337-1.145,1.247,1.247,0,0,0-1.792,0A1.688,1.688,0,0,0,14.1,2169.526Z" transform="translate(12.349 -2159.735)" fill="#fff"></path><path id="Trazado_50180" data-name="Trazado 50180" d="M63.818,2172.778v-4.428h.9v3.676h2.242v.752Z" transform="translate(-33.238 -2160.751)" fill="#fff"></path><path id="Trazado_50181" data-name="Trazado 50181" d="M99.89,2159.73a2.838,2.838,0,0,1,.2-1.145,2.1,2.1,0,0,1,.416-.612,1.738,1.738,0,0,1,.577-.4,2.457,2.457,0,0,1,.962-.177,2.1,2.1,0,0,1,1.579.612,2.736,2.736,0,0,1,0,3.395,2.079,2.079,0,0,1-1.572.611,2.1,2.1,0,0,1-1.584-.608A2.307,2.307,0,0,1,99.89,2159.73Zm.929-.03a1.673,1.673,0,0,0,.35,1.15,1.2,1.2,0,0,0,1.774,0,1.707,1.707,0,0,0,.346-1.165,1.68,1.68,0,0,0-.337-1.145,1.247,1.247,0,0,0-1.792,0A1.687,1.687,0,0,0,100.819,2159.7Zm.682-2.486.42-.91h.959l-.838.91Z" transform="translate(-65.707 -2149.909)" fill="#fff"></path><path id="Trazado_50182" data-name="Trazado 50182" d="M150.97,2170.12v-.752h1.943v1.779a2.447,2.447,0,0,1-.821.483,2.991,2.991,0,0,1-1.089.208,2.445,2.445,0,0,1-1.221-.294,1.87,1.87,0,0,1-.783-.841,2.714,2.714,0,0,1-.262-1.189,2.569,2.569,0,0,1,.292-1.24,1.971,1.971,0,0,1,.856-.832,2.313,2.313,0,0,1,1.069-.222,2.135,2.135,0,0,1,1.3.349,1.577,1.577,0,0,1,.6.964l-.9.168a.948.948,0,0,0-.355-.52,1.074,1.074,0,0,0-.65-.19,1.223,1.223,0,0,0-.94.375,1.578,1.578,0,0,0-.349,1.112,1.747,1.747,0,0,0,.353,1.192,1.18,1.18,0,0,0,.926.4,1.547,1.547,0,0,0,.568-.111,1.944,1.944,0,0,0,.489-.269v-.567Z" transform="translate(-109.675 -2159.735)" fill="#fff"></path><path id="Trazado_50183" data-name="Trazado 50183" d="M198.59,2172.447v-4.465h.9v4.465Z" transform="translate(-154.548 -2160.421)" fill="#fff"></path><path id="Trazado_50184" data-name="Trazado 50184" d="M217.643,2170.12l.874.277a1.961,1.961,0,0,1-.669,1.085,2.1,2.1,0,0,1-2.648-.252,2.326,2.326,0,0,1-.573-1.662,2.441,2.441,0,0,1,.576-1.732,1.974,1.974,0,0,1,1.514-.617,1.857,1.857,0,0,1,1.331.484,1.763,1.763,0,0,1,.457.822l-.892.214a.923.923,0,0,0-.941-.75,1.015,1.015,0,0,0-.806.356,1.747,1.747,0,0,0-.309,1.154,1.872,1.872,0,0,0,.3,1.206.989.989,0,0,0,.792.36.9.9,0,0,0,.618-.229A1.327,1.327,0,0,0,217.643,2170.12Z" transform="translate(-168.984 -2159.735)" fill="#fff"></path><path id="Trazado_50185" data-name="Trazado 50185" d="M259.481,2169.556a2.84,2.84,0,0,1,.2-1.145,2.1,2.1,0,0,1,.416-.612,1.739,1.739,0,0,1,.577-.4,2.449,2.449,0,0,1,.963-.177,2.1,2.1,0,0,1,1.579.612,2.736,2.736,0,0,1,0,3.395,2.08,2.08,0,0,1-1.572.611,2.1,2.1,0,0,1-1.584-.607A2.307,2.307,0,0,1,259.481,2169.556Zm.929-.03a1.673,1.673,0,0,0,.35,1.15,1.2,1.2,0,0,0,1.774,0,1.708,1.708,0,0,0,.346-1.165,1.679,1.679,0,0,0-.337-1.145,1.247,1.247,0,0,0-1.792,0A1.688,1.688,0,0,0,260.41,2169.526Z" transform="translate(-209.356 -2159.735)" fill="#fff"></path><path id="Trazado_50186" data-name="Trazado 50186" d="M-143.5,2247.383l-1.6-4.465h.978l1.13,3.3,1.094-3.3h.956l-1.6,4.465Z" transform="translate(154.804 -2227.871)" fill="#fff"></path><path id="Trazado_50187" data-name="Trazado 50187" d="M-99.143,2247.383v-4.465h.9v4.465Z" transform="translate(113.444 -2227.871)" fill="#fff"></path><path id="Trazado_50188" data-name="Trazado 50188" d="M-83.806,2245.244l.877-.085a1.071,1.071,0,0,0,.321.649.972.972,0,0,0,.653.207,1,1,0,0,0,.656-.184.549.549,0,0,0,.221-.431.406.406,0,0,0-.093-.27.747.747,0,0,0-.324-.194q-.158-.055-.722-.195a2.447,2.447,0,0,1-1.017-.442,1.162,1.162,0,0,1-.411-.9,1.148,1.148,0,0,1,.193-.638,1.208,1.208,0,0,1,.557-.452,2.229,2.229,0,0,1,.879-.156,1.885,1.885,0,0,1,1.266.368,1.3,1.3,0,0,1,.446.984l-.9.04a.765.765,0,0,0-.248-.495.908.908,0,0,0-.571-.151,1.031,1.031,0,0,0-.615.161.326.326,0,0,0-.143.277.341.341,0,0,0,.134.271,2.365,2.365,0,0,0,.828.3,4.337,4.337,0,0,1,.973.321,1.252,1.252,0,0,1,.493.454,1.328,1.328,0,0,1,.178.711,1.316,1.316,0,0,1-.213.719,1.28,1.28,0,0,1-.6.5,2.529,2.529,0,0,1-.972.163,1.934,1.934,0,0,1-1.3-.392A1.7,1.7,0,0,1-83.806,2245.244Z" transform="translate(99.639 -2227.184)" fill="#fff"></path><path id="Trazado_50189" data-name="Trazado 50189" d="M-39.928,2242.918h.9v2.418a5,5,0,0,0,.034.747.723.723,0,0,0,.276.44.961.961,0,0,0,.6.166.911.911,0,0,0,.579-.156.621.621,0,0,0,.235-.386,5.026,5.026,0,0,0,.04-.759v-2.47h.9v2.345a6.025,6.025,0,0,1-.073,1.136,1.257,1.257,0,0,1-.27.56,1.362,1.362,0,0,1-.525.364,2.291,2.291,0,0,1-.859.136,2.469,2.469,0,0,1-.97-.148,1.384,1.384,0,0,1-.522-.384,1.228,1.228,0,0,1-.253-.495,5.417,5.417,0,0,1-.088-1.133Z" transform="translate(60.144 -2227.871)" fill="#fff"></path><path id="Trazado_50190" data-name="Trazado 50190" d="M5.166,2247.383H4.186l-.39-1.014H2.011l-.369,1.014H.686l1.739-4.465h.953Zm-1.66-1.766-.615-1.657-.6,1.657Z" transform="translate(23.587 -2227.871)" fill="#fff"></path><path id="Trazado_50191" data-name="Trazado 50191" d="M50.57,2247.713v-4.428h.9v3.676h2.242v.752Z" transform="translate(-21.314 -2228.201)" fill="#fff"></path><path id="Trazado_50192" data-name="Trazado 50192" d="M102.312,2247.383h-.981l-.39-1.014H99.157l-.368,1.014h-.956l1.739-4.465h.953Zm-1.66-1.766-.615-1.657-.6,1.657Z" transform="translate(-63.855 -2227.871)" fill="#fff"></path><path id="Trazado_50193" data-name="Trazado 50193" d="M147.411,2279.906v-.856h.856v.856Z" transform="translate(-108.481 -2260.394)" fill="#fff"></path><path id="Trazado_50194" data-name="Trazado 50194" d="M166.25,2245.055l.874.277a1.959,1.959,0,0,1-.669,1.086,2.1,2.1,0,0,1-2.648-.253,2.325,2.325,0,0,1-.573-1.661,2.441,2.441,0,0,1,.576-1.732,1.974,1.974,0,0,1,1.514-.617,1.857,1.857,0,0,1,1.331.484,1.761,1.761,0,0,1,.457.822l-.892.213a.923.923,0,0,0-.941-.749,1.016,1.016,0,0,0-.806.356,1.747,1.747,0,0,0-.309,1.154,1.873,1.873,0,0,0,.3,1.206.99.99,0,0,0,.792.36.9.9,0,0,0,.618-.229A1.327,1.327,0,0,0,166.25,2245.055Z" transform="translate(-122.724 -2227.184)" fill="#fff"></path></g></g></g></svg>