<svg xmlns="http://www.w3.org/2000/svg" width="66.788" height="56.099" viewBox="0 0 66.788 56.099"><g id="Layer_2" data-name="Layer 2" transform="translate(115 0.038)"><g id="Layer_1" data-name="Layer 1" transform="translate(-115 -0.038)"><path id="Trazado_760" data-name="Trazado 760" d="M86.528,15.282a19.187,19.187,0,0,1,3.949.815c.655.21.585-.5.585-.5l.065-1.69a1.125,1.125,0,0,0-.815-1.175,22.261,22.261,0,0,0-6-1.385c-6.089-.64-11.1.935-11.2,3.5V42.582a1.33,1.33,0,0,0,2.655-.045s.7-16.247.72-17.047a1.058,1.058,0,0,1,1.5-1.1,23.906,23.906,0,0,0,5.429,1.375q.442.045.885.075h.14a17.542,17.542,0,0,0,3.609-.15c.155,0,.46-.115.5-.665s.05-1.635.05-1.635a.5.5,0,0,0-.5-.565c-.53,0-1.225-.045-1.86-.11s-1.125-.11-1.685-.2c-4.034-.76-7.054-2.595-7-4.4.075-2.06,4.084-3.319,8.953-2.809" transform="translate(-36.562 -5.584)" fill="#fff"></path><path id="Trazado_761" data-name="Trazado 761" d="M34.889,13A14.348,14.348,0,0,0,24.056,29.524h0a16.607,16.607,0,0,0,.555,2.6c2.32,7.829,10.008,13.218,17.122,12.043a10.883,10.883,0,0,0,4.4-1.745.5.5,0,0,0-.39-.92h0c-5.819.665-12.358-3.394-15.282-9.753-3.219-7-.835-14.127,5.319-15.927a12.445,12.445,0,0,1,10.883,2.2c.19.135.5.145.5-.22v-4a.5.5,0,0,0-.315-.38,21.336,21.336,0,0,0-11.973-.415" transform="translate(-11.933 -6.154)" fill="#fff"></path><path id="Trazado_762" data-name="Trazado 762" d="M73.4,2.98a3.074,3.074,0,1,0-3,3.129,3.074,3.074,0,0,0,3-3.129" transform="translate(-33.631 0.038)" fill="#fff"></path><path id="Trazado_763" data-name="Trazado 763" d="M17.494,88.894a3.114,3.114,0,0,1-1.69.465,2.911,2.911,0,1,1,.08-5.819,4.3,4.3,0,0,1,1.765.375,2.75,2.75,0,0,0-.17.635h-.05a2.17,2.17,0,0,0-1.545-.725c-1.275,0-2.25.8-2.25,2.61s1,2.61,2.25,2.61a2.709,2.709,0,0,0,1.65-.675l.035.035Z" transform="translate(-6.421 -41.758)" fill="#fff"></path><path id="Trazado_764" data-name="Trazado 764" d="M28.969,86.449c0,1.8-1,2.61-2.25,2.61s-2.245-.79-2.245-2.61,1-2.61,2.245-2.61,2.25.8,2.25,2.61m-5.289,0a2.778,2.778,0,0,0,3.039,2.909,2.913,2.913,0,1,0,0-5.819,2.775,2.775,0,0,0-3.039,2.909" transform="translate(-11.842 -41.758)" fill="#fff"></path><path id="Trazado_765" data-name="Trazado 765" d="M38.73,85.89c0-.585,0-1.17.05-1.765a7.765,7.765,0,0,1,.79-.04c.55,0,1.26.21,1.26,1.065,0,.965-.885,1.245-1.555,1.245a2.635,2.635,0,0,1-.545-.04Zm-.665,1.4c0,.7-.035,1.4-.065,2.1a2.219,2.219,0,0,1,.395-.04,2.255,2.255,0,0,1,.4.04c-.035-.7-.065-1.4-.065-2.1v-.615h.31a23.607,23.607,0,0,1,2.1,2.715,3.035,3.035,0,0,1,.47-.04,3.23,3.23,0,0,1,.5.04c-.47-.53-1.825-2.275-2.225-2.77.62-.08,1.665-.5,1.665-1.555,0-.965-.77-1.285-1.69-1.285-.31,0-.615.04-.925.04a7.117,7.117,0,0,1-.925-.04c.03.7.065,1.4.065,2.1Z" transform="translate(-19.003 -41.878)" fill="#fff"></path><path id="Trazado_766" data-name="Trazado 766" d="M48.67,84.03h.73c.835,0,1.365.195,1.365,1.12a1.319,1.319,0,0,1-1.5,1.36,2.77,2.77,0,0,1-.575-.065ZM48,87.234c0,.7-.03,1.4-.065,2.1a1.975,1.975,0,0,1,.795,0c-.03-.7-.065-1.4-.065-2.1v-.445h.66c.78,0,2.185-.275,2.185-1.7s-1.295-1.375-1.78-1.375c-.225,0-.75.04-1,.04a5.293,5.293,0,0,1-.79-.04c.035.7.065,1.4.065,2.1Z" transform="translate(-23.974 -41.843)" fill="#fff"></path><path id="Trazado_767" data-name="Trazado 767" d="M61.474,86.449c0,1.8-.975,2.61-2.25,2.61s-2.245-.79-2.245-2.61.975-2.61,2.24-2.61,2.25.8,2.25,2.61m-5.289,0a3.048,3.048,0,1,0,3.039-2.909,2.78,2.78,0,0,0-3.039,2.909" transform="translate(-28.095 -41.758)" fill="#fff"></path><path id="Trazado_768" data-name="Trazado 768" d="M71.265,85.89c0-.585.025-1.17.05-1.765a7.733,7.733,0,0,1,.79-.04c.55,0,1.26.21,1.26,1.065,0,.965-.885,1.245-1.555,1.245a2.64,2.64,0,0,1-.545-.06Zm-.665,1.4c0,.7-.03,1.4-.065,2.1a1.969,1.969,0,0,1,.795,0c-.065-.72-.065-1.425-.065-2.125v-.595h.31a23.56,23.56,0,0,1,2.09,2.715,3,3,0,0,1,.47-.04,3.268,3.268,0,0,1,.5.04c-.475-.53-1.83-2.275-2.23-2.77.615-.08,1.665-.5,1.665-1.555,0-.965-.775-1.285-1.69-1.285-.31,0-.615.04-.925.04a7.117,7.117,0,0,1-.925-.04c.035.7.065,1.4.065,2.1Z" transform="translate(-35.271 -41.878)" fill="#fff"></path><path id="Trazado_769" data-name="Trazado 769" d="M82.589,86.7H80.8l.885-2.065ZM81.8,83.54c-.825,1.915-1.67,3.809-2.54,5.724a1.384,1.384,0,0,1,.3-.04,1.4,1.4,0,0,1,.3.04,21.555,21.555,0,0,1,.77-2.195h2.065a23.1,23.1,0,0,1,.835,2.175,2.314,2.314,0,0,1,.865,0c-.43-.87-1.65-3.824-2.445-5.714Z" transform="translate(-39.637 -41.753)" fill="#fff"></path><path id="Trazado_770" data-name="Trazado 770" d="M90.73,85.9V84.22a16.184,16.184,0,0,0-1.74.09.93.93,0,0,0,.04-.26,1,1,0,0,0-.04-.25c.7.025,1.4.04,2.095.04s1.4,0,2.095-.04a1,1,0,0,0-.04.26.94.94,0,0,0,.04.255,16.157,16.157,0,0,0-1.74-.09q0,.84,0,1.68v1.4c0,.7.035,1.4.065,2.1a2,2,0,0,0-.795,0c.035-.7.065-1.4.065-2.1Z" transform="translate(-44.503 -41.888)" fill="#fff"></path><path id="Trazado_771" data-name="Trazado 771" d="M99.185,85.895c0-.7-.035-1.4-.065-2.1a1.96,1.96,0,0,0,.795,0c-.035.7-.065,1.4-.065,2.1v1.4c0,.7.03,1.4.065,2.1a1.975,1.975,0,0,0-.795,0c.035-.7.065-1.4.065-2.1Z" transform="translate(-49.569 -41.883)" fill="#fff"></path><path id="Trazado_772" data-name="Trazado 772" d="M102.45,83.75a2.215,2.215,0,0,0,.845,0c.5,1.44,1.17,3.159,1.855,4.8.59-1.315,1.5-3.734,1.845-4.8a1.32,1.32,0,0,0,.3.04,1.3,1.3,0,0,0,.3-.04q-1.27,2.8-2.34,5.624a1,1,0,0,0-.27-.04.91.91,0,0,0-.26.04c-.5-1.34-1.5-3.739-2.27-5.609" transform="translate(-51.234 -41.863)" fill="#fff"></path><path id="Trazado_773" data-name="Trazado 773" d="M115.729,86.709h-1.79l.885-2.065Zm-.785-3.159c-.83,1.92-1.675,3.809-2.545,5.714a1.135,1.135,0,0,1,.6,0,21.994,21.994,0,0,1,.79-2.175h2.065c.295.72.685,1.615.84,2.175a2.294,2.294,0,0,1,.86,0c-.43-.87-1.65-3.824-2.445-5.714Z" transform="translate(-56.21 -41.763)" fill="#fff"></path><path id="Trazado_774" data-name="Trazado 774" d="M.715,103.934c0-1,.365-1.755,1.145-1.755s1.185.58,1.185,1.6c0,.885-.365,1.8-1.21,1.8-.525,0-1.12-.35-1.12-1.65M3,105.824a2.134,2.134,0,0,1,.31-.04,2.455,2.455,0,0,1,.315.04v-1.95c0-1.39,0-3.5.095-4.2a3.151,3.151,0,0,1-.365.04A3,3,0,0,1,3,99.65c.035.7.035,1.975.035,3H3a1.27,1.27,0,0,0-1.25-.825A1.838,1.838,0,0,0,0,103.874c0,1.385.83,2,1.65,2A1.5,1.5,0,0,0,3,105H3Z" transform="translate(0 -49.815)" fill="#fff"></path><path id="Trazado_775" data-name="Trazado 775" d="M10.8,104.264c.845,0,1,.83,1,1.4H9.665c.04-.585.34-1.4,1.14-1.4m-1.885,1.88a1.88,1.88,0,0,0,2,1.91,2.33,2.33,0,0,0,1.36-.5l.05-.4h-.04a1.77,1.77,0,0,1-1.22.575,1.375,1.375,0,0,1-1.4-1.5,2.24,2.24,0,0,1,0-.225h2.8v-.315a1.56,1.56,0,0,0-1.685-1.695c-1.195,0-1.865.82-1.865,2.135" transform="translate(-4.46 -51.985)" fill="#fff"></path><path id="Trazado_776" data-name="Trazado 776" d="M22.525,102.845c0-.7-.03-1.4-.065-2.1.5,0,.965.04,1.455.04s.97,0,1.55-.04a1.21,1.21,0,0,0,0,.5c-.585-.055-1.74-.1-2.265-.1V103.2a18.122,18.122,0,0,0,2.095-.08,1.3,1.3,0,0,0-.03.245,1.27,1.27,0,0,0,.03.245c-.545-.055-1.4-.065-2.095-.065v.69c0,.7.035,1.4.065,2.1a1.965,1.965,0,0,0-.795,0c.03-.7.065-1.4.065-2.1Z" transform="translate(-11.232 -50.36)" fill="#fff"></path><path id="Trazado_777" data-name="Trazado 777" d="M34.869,100.735a1.47,1.47,0,0,0,.335.04.785.785,0,0,0,.24-.04c-.065.755-.13,2.185-.145,3.369a2.143,2.143,0,0,1-2.315,2.34,2.02,2.02,0,0,1-2.325-2.325c0-.5.04-.88.04-1.285,0-.895-.035-1.635-.05-2.1a2.419,2.419,0,0,0,.42.04,1.635,1.635,0,0,0,.35-.04c-.05.5-.1,1.585-.1,2.79,0,1.1,0,2.545,1.81,2.545s1.78-1.665,1.78-2.69c0-1.545,0-2.325-.05-2.64" transform="translate(-15.328 -50.355)" fill="#fff"></path><path id="Trazado_778" data-name="Trazado 778" d="M47.9,106.349c-1.235-1.455-2.715-3-4.1-4.5v1.65c0,.7.03,2.415.075,2.74a1.149,1.149,0,0,0-.285-.04,1.39,1.39,0,0,0-.3.04c.065-.38.17-2.46.17-3.534s0-1.81-.025-2.175h.13c1.325,1.44,3.119,3.394,4.109,4.394,0-1.455,0-3.039-.065-4.289a1.1,1.1,0,0,0,.275.04,1,1,0,0,0,.26-.04c-.05.5-.13,2.09-.13,2.72v3Z" transform="translate(-21.649 -50.255)" fill="#fff"></path><path id="Trazado_779" data-name="Trazado 779" d="M56.61,102.85c0-.585,0-1.16.05-1.685a10.392,10.392,0,0,1,1.25-.08c1.335,0,2.31.465,2.31,2.35,0,2.145-1.3,2.62-2.5,2.62a6,6,0,0,1-1.065-.08c-.035-.56-.05-1.145-.05-1.725Zm-.675,1.4c0,.7-.035,1.4-.065,2.1.365,0,.725-.04,1.09-.04s.725.04,1.09.04a2.79,2.79,0,0,0,2.959-2.914,2.375,2.375,0,0,0-2.685-2.69c-.4,0-.82.04-1.23.04s-.82,0-1.225-.04c.03.7.065,1.4.065,2.1Z" transform="translate(-27.94 -50.365)" fill="#fff"></path><path id="Trazado_780" data-name="Trazado 780" d="M69.784,103.689h-1.79l.885-2.065Zm-.79-3.159c-.83,1.92-1.675,3.809-2.545,5.714a1.135,1.135,0,0,1,.6,0,21.766,21.766,0,0,1,.79-2.18H69.9c.29.725.685,1.615.835,2.18a2.689,2.689,0,0,1,.43-.04,2.645,2.645,0,0,1,.43.04c-.43-.87-1.65-3.829-2.445-5.714Z" transform="translate(-33.231 -50.255)" fill="#fff"></path><path id="Trazado_781" data-name="Trazado 781" d="M81.874,105.884a3.1,3.1,0,0,1-1.69.465,2.911,2.911,0,1,1,.08-5.819,4.289,4.289,0,0,1,1.765.375,2.724,2.724,0,0,0-.17.635h-.05a2.155,2.155,0,0,0-1.545-.725c-1.275,0-2.25.8-2.25,2.61s1,2.61,2.25,2.61a2.715,2.715,0,0,0,1.65-.675l.03.03Z" transform="translate(-38.617 -50.255)" fill="#fff"></path><path id="Trazado_782" data-name="Trazado 782" d="M88.935,102.845c0-.7-.035-1.4-.065-2.1a1.994,1.994,0,0,0,.795,0c-.03.7-.065,1.4-.065,2.1v1.4c0,.7.035,1.4.065,2.1a2.362,2.362,0,0,0-.395-.04,2.39,2.39,0,0,0-.4.04c.03-.7.065-1.4.065-2.1Z" transform="translate(-44.443 -50.36)" fill="#fff"></path><path id="Trazado_783" data-name="Trazado 783" d="M97.869,103.439c0,1.8-1,2.61-2.25,2.61s-2.245-.8-2.245-2.61,1-2.61,2.245-2.61,2.25.8,2.25,2.61m-5.289,0a3.048,3.048,0,1,0,3.039-2.909,2.778,2.778,0,0,0-3.039,2.909" transform="translate(-46.298 -50.255)" fill="#fff"></path><path id="Trazado_784" data-name="Trazado 784" d="M111.559,106.349c-1.235-1.455-2.715-3-4.1-4.5v1.65c0,.7.035,2.415.07,2.74a1.12,1.12,0,0,0-.285-.04,1.374,1.374,0,0,0-.3.04c.065-.38.17-2.46.17-3.534V100.53h.13c1.325,1.44,3.119,3.394,4.114,4.394,0-1.455,0-3.039-.065-4.289a1.124,1.124,0,0,0,.275.04,1,1,0,0,0,.26-.04c-.05.5-.13,2.09-.13,2.72v3Z" transform="translate(-53.48 -50.255)" fill="#fff"></path><path id="Trazado_785" data-name="Trazado 785" d="M119.565,102.835c0-.7-.035-1.4-.065-2.095.5,0,.965.04,1.455.04s.965,0,1.445-.04a1.24,1.24,0,0,0,0,.5c-.685-.05-1.08-.1-2.14-.1,0,.35-.03.635-.03,1.035v1.075c.96,0,1.5-.04,1.975-.08a1.269,1.269,0,0,0,0,.25,1.154,1.154,0,0,0,0,.245c-.56-.055-1.585-.075-1.975-.075v2.4a15,15,0,0,0,2.195-.1,1.35,1.35,0,0,0-.025.25,1.176,1.176,0,0,0,.025.235c-.5,0-.97-.04-1.465-.04s-1,0-1.5.04c.035-.7.065-1.415.065-2.11Z" transform="translate(-59.741 -50.36)" fill="#fff"></path><path id="Trazado_786" data-name="Trazado 786" d="M127.18,105.157a1.4,1.4,0,0,0,1.285.845,1.12,1.12,0,0,0,1.16-1.175c0-1.5-2.56-.855-2.56-2.765a1.57,1.57,0,0,1,1.765-1.535,1.8,1.8,0,0,1,1.2.38,2.435,2.435,0,0,0-.22.68h-.1a1.022,1.022,0,0,0-2.015.235c0,1.5,2.56.885,2.56,2.685a1.835,1.835,0,0,1-2,1.83,2,2,0,0,1-1.34-.46,2.435,2.435,0,0,0,.155-.725Z" transform="translate(-63.471 -50.252)" fill="#fff"></path></g></g></svg>