<svg xmlns="http://www.w3.org/2000/svg" width="114.841" height="41.389" viewBox="0 0 114.841 41.389"><g id="Grupo_2516" data-name="Grupo 2516" transform="translate(677.486 -2445.513)"><g id="Grupo_2513" data-name="Grupo 2513" transform="translate(-677.413 2445.513)"><path id="Trazado_50229" data-name="Trazado 50229" d="M-661.74,2473.646a8.116,8.116,0,0,0-1.458,1.119,3.931,3.931,0,0,1-5.8-.013c-2.239-2.367-4.6-4.617-6.9-6.933a3.623,3.623,0,0,1-.017-5.614c.441-.45.865-.916,1.3-1.375q2.458-2.383,4.915-4.766c.586-.57,1.16-1.153,1.782-1.772.306.268.526.447.73.643q2.9,2.768,5.79,5.539a3.383,3.383,0,0,0,4.926-.049,4.84,4.84,0,0,0,1.924-4.137,5.557,5.557,0,0,0-1.726-2.454c-1.955-1.9-3.851-3.854-5.772-5.785.524-.415,1.084-.793,1.567-1.252a3.526,3.526,0,0,1,5.293-.008q3.7,3.638,7.341,7.336a3.625,3.625,0,0,1,.012,5.218c-.462.5-.918,1-1.376,1.5a4.091,4.091,0,0,0-4.831,1.139c-2.264,2.47-4.648,4.841-7.117,7.107A3.479,3.479,0,0,0-661.74,2473.646Z" transform="translate(677.235 -2445.572)" fill="#fff" opacity="0.5"></path><path id="Trazado_50230" data-name="Trazado 50230" d="M-436.969,2468.911c-.891,3.627-3.343,5.834-6.67,7.166a13.477,13.477,0,0,1-6.834.961,9.418,9.418,0,0,0-1.118-.006l-.843,3.659h-10.232c-.125-1.153,3-16.135,4.781-22.929.4-.019.824-.056,1.25-.056,3.554,0,7.109.017,10.664-.01a11.632,11.632,0,0,1,5.715,1.48,6.543,6.543,0,0,1,3.559,4.717,9.543,9.543,0,0,1-.127,4.616Zm-.942-.974.15-.394c.021-.631.088-1.265.054-1.894a5.88,5.88,0,0,0-1.778-4.327c-2.391-2.1-5.262-2.41-8.29-2.139-1.154,5.5-2.426,10.846-3.469,16.307a8.638,8.638,0,0,0,1.588.272,32.183,32.183,0,0,0,3.332-.246A9.811,9.811,0,0,0-437.911,2467.938Z" transform="translate(525.383 -2454.135)" fill="#fff"></path><path id="Trazado_50231" data-name="Trazado 50231" d="M-357.2,2474.126c-.915,2.51-2.912,3.8-5.277,4.67l-.616.245a12.781,12.781,0,0,1-6.292.855,9.368,9.368,0,0,1-6.538-3.962,4.121,4.121,0,0,1-.389-1.3c1.173-.351,1.2-.368,1.783.7a6,6,0,0,0,3.4,2.816,5,5,0,0,0,3.967-.13c1-1.076.435-2.12-.138-3.064-1.208-1.993-2.515-3.927-3.768-5.892a11.105,11.105,0,0,1-1.7-7.774,5.789,5.789,0,0,1,3.109-4.5,12.427,12.427,0,0,1,3.4-1.217,13.445,13.445,0,0,1,9.2,1.044,7.969,7.969,0,0,1,1.406,1.023,1.168,1.168,0,0,1,.336,1.5c-.774.227-1.222-.342-1.707-.774a7.685,7.685,0,0,0-5.234-1.848,1.336,1.336,0,0,0-1.391.775,4.213,4.213,0,0,0,.774,2.8c1.042,1.748,2.123,3.484,3.33,5.119a13.484,13.484,0,0,1,2.712,5.409,5.177,5.177,0,0,1-.129,2.872Z" transform="translate(464.267 -2452.385)" fill="#fff"></path><path id="Trazado_50232" data-name="Trazado 50232" d="M-536.486,2478.257a11.988,11.988,0,0,0,12.86-5.762c.251-.42.374-.927,1.034-.825.683.371.373.921.184,1.387a8.966,8.966,0,0,1-3.243,4.053,15.624,15.624,0,0,1-12.656,2.406,12.15,12.15,0,0,1-6.265-4.079,5.88,5.88,0,0,1-1.392-4.2c.14-5.489,2.229-10.1,6.953-13.059a15.382,15.382,0,0,1,11.6-2.231,8.925,8.925,0,0,1,5.682,3.786c.41.6.83,1.216.4,1.973-.768.242-.989-.343-1.242-.781a7.438,7.438,0,0,0-5.341-3.693,30.55,30.55,0,0,0-4-.209Z" transform="translate(584.334 -2452.661)" fill="#fff"></path><path id="Trazado_50233" data-name="Trazado 50233" d="M-662,2447.99c1.921,1.932,3.818,3.888,5.772,5.785a5.558,5.558,0,0,1,1.726,2.454,4.841,4.841,0,0,1-1.924,4.137,3.383,3.383,0,0,1-4.926.048q-2.9-2.764-5.79-5.539c-.2-.2-.424-.374-.73-.642-.622.619-1.2,1.2-1.782,1.772q-2.453,2.387-4.915,4.766c-.51-.52-1.044-1.018-1.526-1.562a3.592,3.592,0,0,1,.093-5.218q3.613-3.7,7.309-7.313a3.644,3.644,0,0,1,5.337-.006C-662.889,2447.1-662.45,2447.549-662,2447.99Z" transform="translate(677.189 -2445.513)" fill="#fff"></path><path id="Trazado_50234" data-name="Trazado 50234" d="M-625.687,2509.745a3.479,3.479,0,0,1,.584-4.559c2.468-2.266,4.853-4.637,7.117-7.107a4.091,4.091,0,0,1,4.831-1.139c.573.594,1.152,1.181,1.719,1.781,1.515,1.605,1.541,3.328.011,4.881q-3.893,3.948-7.843,7.841a3.146,3.146,0,0,1-4.767-.049C-624.592,2510.851-625.136,2510.294-625.687,2509.745Z" transform="translate(641.182 -2481.671)" fill="#fff"></path><path id="Trazado_50235" data-name="Trazado 50235" d="M-331.084,2536.12l.616-.245Z" transform="translate(432.258 -2509.464)" fill="#fff"></path><path id="Trazado_50236" data-name="Trazado 50236" d="M-310.921,2518.362l.228-.633Z" transform="translate(417.988 -2496.621)" fill="#fff"></path><path id="Trazado_50237" data-name="Trazado 50237" d="M-374.739,2495.1l.146-.4Z" transform="translate(463.154 -2480.319)" fill="#fff"></path><path id="Trazado_50238" data-name="Trazado 50238" d="M-377.962,2491.785l.15-.394Z" transform="translate(465.434 -2477.982)" fill="#fff"></path></g><g id="Grupo_2514" data-name="Grupo 2514" transform="translate(-677.486 2481.111)" opacity="0.5"><path id="Trazado_50239" data-name="Trazado 50239" d="M-675,2570.215l.718.278a2.013,2.013,0,0,1-.559,1.1,1.4,1.4,0,0,1-.962.347,1.425,1.425,0,0,1-1.164-.553,2.673,2.673,0,0,1-.514-1.724,2.8,2.8,0,0,1,.517-1.793,1.466,1.466,0,0,1,1.208-.562,1.393,1.393,0,0,1,1.034.422,1.828,1.828,0,0,1,.434.889l-.733.214a.992.992,0,0,0-.28-.558.7.7,0,0,0-.495-.194.787.787,0,0,0-.664.355,2.042,2.042,0,0,0-.257,1.17,2.173,2.173,0,0,0,.25,1.2.763.763,0,0,0,.651.357.673.673,0,0,0,.507-.228A1.442,1.442,0,0,0-675,2570.215Z" transform="translate(677.486 -2567.306)" fill="#fff"></path><path id="Trazado_50240" data-name="Trazado 50240" d="M-664.95,2573.182a1.97,1.97,0,0,1,.189-.869,1.393,1.393,0,0,1,.5-.588,1.248,1.248,0,0,1,.688-.2,1.18,1.18,0,0,1,1.008.5,1.946,1.946,0,0,1,.367,1.177,2.1,2.1,0,0,1-.191.906,1.439,1.439,0,0,1-.5.608,1.215,1.215,0,0,1-.68.2,1.244,1.244,0,0,1-.984-.453A1.919,1.919,0,0,1-664.95,2573.182Zm.721.046a1.218,1.218,0,0,0,.193.747.571.571,0,0,0,.466.253.558.558,0,0,0,.457-.254,1.245,1.245,0,0,0,.19-.751,1.207,1.207,0,0,0-.193-.739.568.568,0,0,0-.462-.255.562.562,0,0,0-.458.255A1.224,1.224,0,0,0-664.229,2573.228Z" transform="translate(668.614 -2570.295)" fill="#fff"></path><path id="Trazado_50241" data-name="Trazado 50241" d="M-653.848,2571.605h.648v.443a1.3,1.3,0,0,1,.382-.39.831.831,0,0,1,.449-.13.772.772,0,0,1,.445.128.92.92,0,0,1,.307.388,1.347,1.347,0,0,1,.38-.388.8.8,0,0,1,.432-.128.832.832,0,0,1,.469.13.809.809,0,0,1,.3.372,2.022,2.022,0,0,1,.1.743v2.077h-.706v-1.857a1.593,1.593,0,0,0-.086-.647.3.3,0,0,0-.287-.161.434.434,0,0,0-.379.225,1.817,1.817,0,0,0-.143.88v1.56h-.706v-1.781a2.433,2.433,0,0,0-.058-.682.3.3,0,0,0-.309-.2.453.453,0,0,0-.287.1.579.579,0,0,0-.19.3,2.742,2.742,0,0,0-.058.677v1.579h-.706Z" transform="translate(660.757 -2570.295)" fill="#fff"></path><path id="Trazado_50242" data-name="Trazado 50242" d="M-638.124,2571.605h.654v.477a1.083,1.083,0,0,1,.355-.405.834.834,0,0,1,.475-.148.964.964,0,0,1,.785.435,2.009,2.009,0,0,1,.329,1.234,2.131,2.131,0,0,1-.33,1.284.961.961,0,0,1-.785.446.785.785,0,0,1-.393-.1,1.338,1.338,0,0,1-.383-.371v1.632h-.706Zm.7,1.567a1.457,1.457,0,0,0,.179.813.516.516,0,0,0,.431.26.481.481,0,0,0,.405-.241,1.43,1.43,0,0,0,.165-.786,1.37,1.37,0,0,0-.169-.765.493.493,0,0,0-.413-.246.509.509,0,0,0-.427.24A1.256,1.256,0,0,0-637.428,2573.173Z" transform="translate(649.629 -2570.295)" fill="#fff"></path><path id="Trazado_50243" data-name="Trazado 50243" d="M-627.249,2572.592l-.639-.14a1.238,1.238,0,0,1,.383-.708,1.2,1.2,0,0,1,.768-.216,1.482,1.482,0,0,1,.681.125.74.74,0,0,1,.336.341,2.078,2.078,0,0,1,.1.785l-.006,1a4.3,4.3,0,0,0,.034.629,2.147,2.147,0,0,0,.125.439h-.7l-.091-.354a1.311,1.311,0,0,1-.387.322.929.929,0,0,1-.438.109.837.837,0,0,1-.636-.262.972.972,0,0,1-.247-.7,1.077,1.077,0,0,1,.1-.48.823.823,0,0,1,.284-.327,1.874,1.874,0,0,1,.587-.217,3.347,3.347,0,0,0,.681-.211,1.037,1.037,0,0,0-.038-.354.3.3,0,0,0-.141-.139.631.631,0,0,0-.289-.054.471.471,0,0,0-.3.085A.617.617,0,0,0-627.249,2572.592Zm.941.7a3.564,3.564,0,0,1-.419.128.976.976,0,0,0-.428.19.371.371,0,0,0-.1.27.459.459,0,0,0,.111.314.357.357,0,0,0,.28.127.513.513,0,0,0,.3-.1.545.545,0,0,0,.2-.244,1.563,1.563,0,0,0,.056-.512Z" transform="translate(642.436 -2570.295)" fill="#fff"></path><path id="Trazado_50244" data-name="Trazado 50244" d="M-615.153,2572.091h-.706v-1.658a3.473,3.473,0,0,0-.04-.664.452.452,0,0,0-.148-.254.379.379,0,0,0-.246-.088.5.5,0,0,0-.321.115.6.6,0,0,0-.2.316,3.265,3.265,0,0,0-.058.762v1.472h-.706v-3.246h.654v.474a1.285,1.285,0,0,1,.393-.412.891.891,0,0,1,.484-.138.84.84,0,0,1,.521.16.82.82,0,0,1,.293.413,2.511,2.511,0,0,1,.081.729Zm-1.754-3.686h-.321l0-.1a.817.817,0,0,1,.13-.5.4.4,0,0,1,.329-.169.529.529,0,0,1,.162.025,1.69,1.69,0,0,1,.248.116.827.827,0,0,0,.337.122q.175,0,.205-.266h.321a1.076,1.076,0,0,1-.127.591.374.374,0,0,1-.319.176.622.622,0,0,1-.162-.021,2.315,2.315,0,0,1-.268-.113,1.014,1.014,0,0,0-.36-.119.149.149,0,0,0-.123.059A.345.345,0,0,0-616.908,2568.406Z" transform="translate(635.09 -2567.535)" fill="#fff"></path><path id="Trazado_50245" data-name="Trazado 50245" d="M-606.863,2568.22l.346-.914h.794l-.692.914Zm.009,3.642v-3.245h.706v3.245Z" transform="translate(627.505 -2567.306)" fill="#fff"></path><path id="Trazado_50246" data-name="Trazado 50246" d="M-601.875,2572.592l-.639-.14a1.239,1.239,0,0,1,.384-.708,1.2,1.2,0,0,1,.768-.216,1.482,1.482,0,0,1,.681.125.74.74,0,0,1,.336.341,2.079,2.079,0,0,1,.1.785l-.006,1a4.3,4.3,0,0,0,.034.629,2.147,2.147,0,0,0,.125.439h-.7l-.091-.354a1.312,1.312,0,0,1-.387.322.929.929,0,0,1-.438.109.837.837,0,0,1-.636-.262.972.972,0,0,1-.247-.7,1.076,1.076,0,0,1,.1-.48.825.825,0,0,1,.284-.327,1.876,1.876,0,0,1,.587-.217,3.346,3.346,0,0,0,.681-.211,1.037,1.037,0,0,0-.038-.354.3.3,0,0,0-.141-.139.631.631,0,0,0-.289-.054.471.471,0,0,0-.3.085A.616.616,0,0,0-601.875,2572.592Zm.941.7a3.564,3.564,0,0,1-.419.128.975.975,0,0,0-.428.19.371.371,0,0,0-.1.27.459.459,0,0,0,.111.314.357.357,0,0,0,.28.127.513.513,0,0,0,.3-.1.545.545,0,0,0,.2-.244,1.563,1.563,0,0,0,.056-.512Z" transform="translate(624.479 -2570.295)" fill="#fff"></path><path id="Trazado_50247" data-name="Trazado 50247" d="M-587.292,2572.046v-4.48h1.192a3.645,3.645,0,0,1,.871.064.986.986,0,0,1,.539.444,1.62,1.62,0,0,1,.213.874,1.651,1.651,0,0,1-.183.814,1.064,1.064,0,0,1-.458.462,2.387,2.387,0,0,1-.948.133h-.486v1.69Zm.739-3.722v1.275h.411a1.785,1.785,0,0,0,.562-.058.5.5,0,0,0,.243-.209.689.689,0,0,0,.095-.373.687.687,0,0,0-.1-.377.485.485,0,0,0-.242-.205,2.214,2.214,0,0,0-.609-.052Z" transform="translate(613.654 -2567.49)" fill="#fff"></path><path id="Trazado_50248" data-name="Trazado 50248" d="M-574.992,2574.851h-.706v-3.245h.654v.461a1.406,1.406,0,0,1,.3-.431.476.476,0,0,1,.307-.107.768.768,0,0,1,.461.162l-.22.749a.536.536,0,0,0-.33-.141.359.359,0,0,0-.258.108.722.722,0,0,0-.16.393,7.355,7.355,0,0,0-.049,1.046Z" transform="translate(605.449 -2570.295)" fill="#fff"></path><path id="Trazado_50249" data-name="Trazado 50249" d="M-569.331,2573.182a1.969,1.969,0,0,1,.189-.869,1.4,1.4,0,0,1,.5-.588,1.248,1.248,0,0,1,.687-.2,1.18,1.18,0,0,1,1.008.5,1.944,1.944,0,0,1,.367,1.177,2.1,2.1,0,0,1-.191.906,1.44,1.44,0,0,1-.5.608,1.214,1.214,0,0,1-.68.2,1.244,1.244,0,0,1-.984-.453A1.919,1.919,0,0,1-569.331,2573.182Zm.721.046a1.216,1.216,0,0,0,.193.747.571.571,0,0,0,.466.253.558.558,0,0,0,.456-.254,1.246,1.246,0,0,0,.19-.751,1.207,1.207,0,0,0-.193-.739.568.568,0,0,0-.462-.255.561.561,0,0,0-.458.255A1.225,1.225,0,0,0-568.61,2573.228Z" transform="translate(600.943 -2570.295)" fill="#fff"></path><path id="Trazado_50250" data-name="Trazado 50250" d="M-558.132,2575.036l-1.078-3.246h.737l.5,1.657.146.553.149-.553.51-1.657h.721l-1.061,3.246Z" transform="translate(593.78 -2570.479)" fill="#fff"></path><path id="Trazado_50251" data-name="Trazado 50251" d="M-547.224,2573.821l.7.144a1.387,1.387,0,0,1-.438.726,1.122,1.122,0,0,1-.722.237,1.109,1.109,0,0,1-.912-.4,1.964,1.964,0,0,1-.379-1.286,2.062,2.062,0,0,1,.382-1.3,1.016,1.016,0,0,1,.837-.413,1.066,1.066,0,0,1,.9.423,2.308,2.308,0,0,1,.373,1.426l0,.1h-1.763a.973.973,0,0,0,.173.6.5.5,0,0,0,.4.211Q-547.337,2574.285-547.224,2573.821Zm.036-.871a.942.942,0,0,0-.162-.572.453.453,0,0,0-.364-.192.459.459,0,0,0-.376.2.9.9,0,0,0-.153.565Z" transform="translate(586.537 -2570.295)" fill="#fff"></path><path id="Trazado_50252" data-name="Trazado 50252" d="M-537.459,2573.821l.7.144a1.384,1.384,0,0,1-.438.726,1.122,1.122,0,0,1-.722.237,1.108,1.108,0,0,1-.912-.4,1.963,1.963,0,0,1-.379-1.286,2.062,2.062,0,0,1,.382-1.3,1.016,1.016,0,0,1,.837-.413,1.065,1.065,0,0,1,.9.423,2.306,2.306,0,0,1,.373,1.426l0,.1h-1.763a.971.971,0,0,0,.173.6.5.5,0,0,0,.4.211Q-537.573,2574.285-537.459,2573.821Zm.037-.871a.944.944,0,0,0-.162-.572.454.454,0,0,0-.364-.192.459.459,0,0,0-.376.2.893.893,0,0,0-.153.565Z" transform="translate(579.626 -2570.295)" fill="#fff"></path><path id="Trazado_50253" data-name="Trazado 50253" d="M-526.691,2572.046h-.654v-.477a1.194,1.194,0,0,1-.382.414.838.838,0,0,1-.452.139.957.957,0,0,1-.777-.445,2.1,2.1,0,0,1-.332-1.272,2.055,2.055,0,0,1,.323-1.257.971.971,0,0,1,.8-.424.812.812,0,0,1,.417.113,1.178,1.178,0,0,1,.355.339v-1.61h.706Zm-1.876-1.693a2.158,2.158,0,0,0,.075.658.684.684,0,0,0,.213.325.493.493,0,0,0,.313.109.486.486,0,0,0,.4-.251,1.357,1.357,0,0,0,.171-.757,1.492,1.492,0,0,0-.166-.808.5.5,0,0,0-.422-.247.5.5,0,0,0-.414.242A1.268,1.268,0,0,0-528.568,2570.353Z" transform="translate(572.604 -2567.49)" fill="#fff"></path><path id="Trazado_50254" data-name="Trazado 50254" d="M-518.583,2573.182a1.969,1.969,0,0,1,.189-.869,1.4,1.4,0,0,1,.5-.588,1.248,1.248,0,0,1,.687-.2,1.18,1.18,0,0,1,1.008.5,1.946,1.946,0,0,1,.367,1.177,2.093,2.093,0,0,1-.191.906,1.438,1.438,0,0,1-.5.608,1.214,1.214,0,0,1-.68.2,1.244,1.244,0,0,1-.984-.453A1.919,1.919,0,0,1-518.583,2573.182Zm.721.046a1.218,1.218,0,0,0,.193.747.572.572,0,0,0,.466.253.558.558,0,0,0,.457-.254,1.246,1.246,0,0,0,.19-.751,1.207,1.207,0,0,0-.193-.739.568.568,0,0,0-.462-.255.562.562,0,0,0-.458.255A1.227,1.227,0,0,0-517.862,2573.228Z" transform="translate(565.028 -2570.295)" fill="#fff"></path><path id="Trazado_50255" data-name="Trazado 50255" d="M-506.69,2574.851h-.706v-3.245h.654v.461a1.409,1.409,0,0,1,.3-.431.474.474,0,0,1,.307-.107.766.766,0,0,1,.461.162l-.22.749a.536.536,0,0,0-.33-.141.36.36,0,0,0-.258.108.718.718,0,0,0-.16.393,7.358,7.358,0,0,0-.049,1.046Z" transform="translate(557.11 -2570.295)" fill="#fff"></path><path id="Trazado_50256" data-name="Trazado 50256" d="M-500.391,2572.592l-.639-.14a1.242,1.242,0,0,1,.383-.708,1.2,1.2,0,0,1,.769-.216,1.482,1.482,0,0,1,.681.125.74.74,0,0,1,.336.341,2.079,2.079,0,0,1,.1.785l-.006,1a4.3,4.3,0,0,0,.034.629,2.149,2.149,0,0,0,.125.439h-.7l-.091-.354a1.311,1.311,0,0,1-.387.322.929.929,0,0,1-.438.109.837.837,0,0,1-.636-.262.972.972,0,0,1-.248-.7,1.077,1.077,0,0,1,.1-.48.823.823,0,0,1,.284-.327,1.875,1.875,0,0,1,.587-.217,3.348,3.348,0,0,0,.681-.211,1.037,1.037,0,0,0-.038-.354.3.3,0,0,0-.141-.139.631.631,0,0,0-.289-.054.47.47,0,0,0-.3.085A.618.618,0,0,0-500.391,2572.592Zm.941.7a3.566,3.566,0,0,1-.419.128.976.976,0,0,0-.428.19.372.372,0,0,0-.1.27.458.458,0,0,0,.112.314.356.356,0,0,0,.279.127.513.513,0,0,0,.3-.1.545.545,0,0,0,.2-.244,1.564,1.564,0,0,0,.056-.512Z" transform="translate(552.657 -2570.295)" fill="#fff"></path><path id="Trazado_50257" data-name="Trazado 50257" d="M-483.764,2572.046h-.654v-.477a1.194,1.194,0,0,1-.382.414.838.838,0,0,1-.452.139.957.957,0,0,1-.778-.445,2.1,2.1,0,0,1-.331-1.272,2.053,2.053,0,0,1,.323-1.257.971.971,0,0,1,.8-.424.812.812,0,0,1,.417.113,1.174,1.174,0,0,1,.355.339v-1.61h.706Zm-1.876-1.693a2.149,2.149,0,0,0,.075.658.682.682,0,0,0,.213.325.493.493,0,0,0,.312.109.486.486,0,0,0,.4-.251,1.357,1.357,0,0,0,.171-.757,1.492,1.492,0,0,0-.166-.808.5.5,0,0,0-.422-.247.5.5,0,0,0-.414.242A1.27,1.27,0,0,0-485.64,2570.353Z" transform="translate(542.224 -2567.49)" fill="#fff"></path><path id="Trazado_50258" data-name="Trazado 50258" d="M-474.041,2573.821l.7.144a1.386,1.386,0,0,1-.438.726,1.122,1.122,0,0,1-.722.237,1.108,1.108,0,0,1-.912-.4,1.963,1.963,0,0,1-.38-1.286,2.062,2.062,0,0,1,.382-1.3,1.016,1.016,0,0,1,.837-.413,1.065,1.065,0,0,1,.9.423,2.308,2.308,0,0,1,.373,1.426l0,.1h-1.763a.971.971,0,0,0,.173.6.5.5,0,0,0,.4.211Q-474.154,2574.285-474.041,2573.821Zm.037-.871a.944.944,0,0,0-.162-.572.454.454,0,0,0-.364-.192.459.459,0,0,0-.376.2.893.893,0,0,0-.153.565Z" transform="translate(534.744 -2570.295)" fill="#fff"></path><path id="Trazado_50259" data-name="Trazado 50259" d="M-461.071,2570.4l.724-.085q.122.859.8.858a.754.754,0,0,0,.529-.176.564.564,0,0,0,.192-.435.478.478,0,0,0-.067-.26.5.5,0,0,0-.2-.176,5.8,5.8,0,0,0-.666-.23,2.253,2.253,0,0,1-.694-.312,1.179,1.179,0,0,1-.35-.441,1.353,1.353,0,0,1-.13-.588,1.314,1.314,0,0,1,.166-.66,1.088,1.088,0,0,1,.46-.443,1.587,1.587,0,0,1,.724-.149,1.394,1.394,0,0,1,1.011.351,1.4,1.4,0,0,1,.385,1.005l-.743.04a.8.8,0,0,0-.211-.5.673.673,0,0,0-.462-.144.744.744,0,0,0-.462.125.38.38,0,0,0-.162.311.389.389,0,0,0,.147.308,2.085,2.085,0,0,0,.675.275,2.772,2.772,0,0,1,.808.341,1.163,1.163,0,0,1,.38.461,1.621,1.621,0,0,1,.131.686,1.409,1.409,0,0,1-.359.981,1.442,1.442,0,0,1-1.123.4Q-460.918,2571.938-461.071,2570.4Z" transform="translate(524.326 -2567.306)" fill="#fff"></path><path id="Trazado_50260" data-name="Trazado 50260" d="M-448.734,2568.361v-.795h.706v.795Zm0,3.686V2568.8h.706v3.246Z" transform="translate(515.594 -2567.49)" fill="#fff"></path><path id="Trazado_50261" data-name="Trazado 50261" d="M-444.7,2573.928l.706-.131a.537.537,0,0,0,.569.51.611.611,0,0,0,.379-.1.307.307,0,0,0,.125-.254.244.244,0,0,0-.055-.168.513.513,0,0,0-.23-.107,3.129,3.129,0,0,1-1.1-.439.905.905,0,0,1-.293-.714.953.953,0,0,1,.287-.726,1.168,1.168,0,0,1,.834-.273,1.314,1.314,0,0,1,.794.2,1.11,1.11,0,0,1,.382.655l-.663.15a.461.461,0,0,0-.5-.391.682.682,0,0,0-.369.075.228.228,0,0,0-.11.195.21.21,0,0,0,.1.178,2.787,2.787,0,0,0,.626.222,1.718,1.718,0,0,1,.8.4.91.91,0,0,1,.208.626,1.024,1.024,0,0,1-.322.776,1.24,1.24,0,0,1-.891.306,1.331,1.331,0,0,1-.844-.255A1.226,1.226,0,0,1-444.7,2573.928Z" transform="translate(512.739 -2570.295)" fill="#fff"></path><path id="Trazado_50262" data-name="Trazado 50262" d="M-433.581,2569.016v.685h-.48v1.31a2.865,2.865,0,0,0,.021.493.169.169,0,0,0,.174.123.76.76,0,0,0,.281-.083l.061.666a1.172,1.172,0,0,1-.553.128.675.675,0,0,1-.431-.128.636.636,0,0,1-.217-.371,3.8,3.8,0,0,1-.043-.722V2569.7h-.324v-.685h.324v-.645l.706-.5v1.146Z" transform="translate(505.939 -2567.705)" fill="#fff"></path><path id="Trazado_50263" data-name="Trazado 50263" d="M-427.192,2573.821l.7.144a1.382,1.382,0,0,1-.438.726,1.121,1.121,0,0,1-.722.237,1.108,1.108,0,0,1-.912-.4,1.963,1.963,0,0,1-.379-1.286,2.062,2.062,0,0,1,.382-1.3,1.016,1.016,0,0,1,.837-.413,1.066,1.066,0,0,1,.9.423,2.308,2.308,0,0,1,.373,1.426l0,.1h-1.763a.971.971,0,0,0,.173.6.5.5,0,0,0,.4.211Q-427.306,2574.285-427.192,2573.821Zm.037-.871a.944.944,0,0,0-.162-.572.454.454,0,0,0-.364-.192.459.459,0,0,0-.376.2.893.893,0,0,0-.153.565Z" transform="translate(501.588 -2570.295)" fill="#fff"></path><path id="Trazado_50264" data-name="Trazado 50264" d="M-418.667,2571.605h.648v.443a1.3,1.3,0,0,1,.382-.39.831.831,0,0,1,.449-.13.772.772,0,0,1,.445.128.921.921,0,0,1,.307.388,1.347,1.347,0,0,1,.381-.388.8.8,0,0,1,.432-.128.833.833,0,0,1,.469.13.809.809,0,0,1,.3.372,2.022,2.022,0,0,1,.1.743v2.077h-.706v-1.857a1.6,1.6,0,0,0-.085-.647.3.3,0,0,0-.287-.161.434.434,0,0,0-.379.225,1.82,1.82,0,0,0-.143.88v1.56h-.706v-1.781a2.423,2.423,0,0,0-.058-.682.3.3,0,0,0-.309-.2.454.454,0,0,0-.287.1.581.581,0,0,0-.19.3,2.746,2.746,0,0,0-.058.677v1.579h-.706Z" transform="translate(494.315 -2570.295)" fill="#fff"></path><path id="Trazado_50265" data-name="Trazado 50265" d="M-402.795,2572.592l-.639-.14a1.242,1.242,0,0,1,.383-.708,1.2,1.2,0,0,1,.769-.216,1.483,1.483,0,0,1,.681.125.742.742,0,0,1,.336.341,2.079,2.079,0,0,1,.1.785l-.006,1a4.259,4.259,0,0,0,.034.629,2.15,2.15,0,0,0,.125.439h-.7l-.092-.354a1.31,1.31,0,0,1-.386.322.93.93,0,0,1-.438.109.836.836,0,0,1-.636-.262.971.971,0,0,1-.248-.7,1.076,1.076,0,0,1,.1-.48.822.822,0,0,1,.284-.327,1.873,1.873,0,0,1,.587-.217,3.347,3.347,0,0,0,.681-.211,1.046,1.046,0,0,0-.038-.354.3.3,0,0,0-.141-.139.632.632,0,0,0-.289-.054.471.471,0,0,0-.3.085A.621.621,0,0,0-402.795,2572.592Zm.941.7a3.584,3.584,0,0,1-.419.128.976.976,0,0,0-.428.19.372.372,0,0,0-.1.27.458.458,0,0,0,.112.314.356.356,0,0,0,.279.127.511.511,0,0,0,.3-.1.545.545,0,0,0,.2-.244,1.572,1.572,0,0,0,.056-.512Z" transform="translate(483.586 -2570.295)" fill="#fff"></path><path id="Trazado_50266" data-name="Trazado 50266" d="M-393.951,2573.928l.706-.131a.537.537,0,0,0,.568.51.611.611,0,0,0,.379-.1.307.307,0,0,0,.125-.254.244.244,0,0,0-.055-.168.513.513,0,0,0-.23-.107,3.129,3.129,0,0,1-1.1-.439.905.905,0,0,1-.293-.714.953.953,0,0,1,.287-.726,1.168,1.168,0,0,1,.834-.273,1.314,1.314,0,0,1,.794.2,1.11,1.11,0,0,1,.382.655l-.663.15a.461.461,0,0,0-.5-.391.682.682,0,0,0-.369.075.228.228,0,0,0-.11.195.21.21,0,0,0,.1.178,2.787,2.787,0,0,0,.626.222,1.718,1.718,0,0,1,.8.4.91.91,0,0,1,.208.626,1.025,1.025,0,0,1-.322.776,1.241,1.241,0,0,1-.891.306,1.331,1.331,0,0,1-.844-.255A1.226,1.226,0,0,1-393.951,2573.928Z" transform="translate(476.824 -2570.295)" fill="#fff"></path><path id="Trazado_50267" data-name="Trazado 50267" d="M-379.084,2570.4l.724-.085q.122.859.8.858a.753.753,0,0,0,.529-.176.565.565,0,0,0,.193-.435.478.478,0,0,0-.067-.26.5.5,0,0,0-.2-.176,5.765,5.765,0,0,0-.666-.23,2.253,2.253,0,0,1-.694-.312,1.178,1.178,0,0,1-.35-.441,1.348,1.348,0,0,1-.13-.588,1.311,1.311,0,0,1,.167-.66,1.088,1.088,0,0,1,.46-.443,1.587,1.587,0,0,1,.724-.149,1.4,1.4,0,0,1,1.011.351,1.4,1.4,0,0,1,.385,1.005l-.742.04a.8.8,0,0,0-.211-.5.673.673,0,0,0-.462-.144.744.744,0,0,0-.462.125.38.38,0,0,0-.162.311.39.39,0,0,0,.147.308,2.085,2.085,0,0,0,.675.275,2.772,2.772,0,0,1,.808.341,1.163,1.163,0,0,1,.38.461,1.621,1.621,0,0,1,.131.686,1.408,1.408,0,0,1-.359.981,1.441,1.441,0,0,1-1.123.4Q-378.931,2571.938-379.084,2570.4Z" transform="translate(466.302 -2567.306)" fill="#fff"></path><path id="Trazado_50268" data-name="Trazado 50268" d="M-366.748,2580.815v-.859h.7v.859Z" transform="translate(457.572 -2576.259)" fill="#fff"></path><path id="Trazado_50269" data-name="Trazado 50269" d="M-359.442,2572.046h-.8l-.322-1.015h-1.47l-.3,1.015h-.788l1.43-4.48h.785Zm-1.365-1.772-.507-1.662-.5,1.662Z" transform="translate(455.011 -2567.49)" fill="#fff"></path><path id="Trazado_50270" data-name="Trazado 50270" d="M-342.9,2572.046h-.654v-.477a1.194,1.194,0,0,1-.382.414.838.838,0,0,1-.452.139.956.956,0,0,1-.777-.445,2.1,2.1,0,0,1-.332-1.272,2.053,2.053,0,0,1,.323-1.257.971.971,0,0,1,.8-.424.812.812,0,0,1,.417.113,1.178,1.178,0,0,1,.355.339v-1.61h.706Zm-1.876-1.693a2.16,2.16,0,0,0,.075.658.684.684,0,0,0,.213.325.493.493,0,0,0,.312.109.486.486,0,0,0,.4-.251,1.357,1.357,0,0,0,.171-.757,1.492,1.492,0,0,0-.166-.808.5.5,0,0,0-.422-.247.5.5,0,0,0-.414.242A1.268,1.268,0,0,0-344.772,2570.353Z" transform="translate(442.529 -2567.49)" fill="#fff"></path><path id="Trazado_50271" data-name="Trazado 50271" d="M-333.172,2573.821l.7.144a1.382,1.382,0,0,1-.438.726,1.121,1.121,0,0,1-.722.237,1.108,1.108,0,0,1-.912-.4,1.963,1.963,0,0,1-.379-1.286,2.062,2.062,0,0,1,.382-1.3,1.016,1.016,0,0,1,.837-.413,1.066,1.066,0,0,1,.9.423,2.308,2.308,0,0,1,.373,1.426l0,.1H-334.2a.971.971,0,0,0,.173.6.5.5,0,0,0,.4.211Q-333.285,2574.285-333.172,2573.821Zm.037-.871a.944.944,0,0,0-.162-.572.454.454,0,0,0-.364-.192.459.459,0,0,0-.376.2.893.893,0,0,0-.153.565Z" transform="translate(435.048 -2570.295)" fill="#fff"></path><path id="Trazado_50272" data-name="Trazado 50272" d="M-317.523,2570.215l.718.278a2.013,2.013,0,0,1-.559,1.1,1.4,1.4,0,0,1-.962.347,1.426,1.426,0,0,1-1.164-.553,2.674,2.674,0,0,1-.513-1.724,2.8,2.8,0,0,1,.517-1.793,1.466,1.466,0,0,1,1.208-.562,1.393,1.393,0,0,1,1.034.422,1.828,1.828,0,0,1,.434.889l-.733.214a.993.993,0,0,0-.28-.558.7.7,0,0,0-.495-.194.787.787,0,0,0-.664.355,2.042,2.042,0,0,0-.257,1.17,2.173,2.173,0,0,0,.25,1.2.763.763,0,0,0,.651.357.673.673,0,0,0,.507-.228A1.442,1.442,0,0,0-317.523,2570.215Z" transform="translate(424.49 -2567.306)" fill="#fff"></path><path id="Trazado_50273" data-name="Trazado 50273" d="M-306.9,2580.815v-.859h.7v.859Z" transform="translate(415.219 -2576.259)" fill="#fff"></path><path id="Trazado_50274" data-name="Trazado 50274" d="M-301.973,2572.046l-1.314-4.48h.8l.93,3.316.9-3.316h.789l-1.317,4.48Z" transform="translate(412.659 -2567.49)" fill="#fff"></path><path id="Trazado_50275" data-name="Trazado 50275" d="M-291.922,2580.815v-.859h.7v.859Z" transform="translate(404.616 -2576.259)" fill="#fff"></path></g><g id="Grupo_2515" data-name="Grupo 2515" transform="translate(-567.951 2468.03)"><path id="Trazado_50276" data-name="Trazado 50276" d="M-300.074,2522.55a2.718,2.718,0,0,1,1.3.343,2.438,2.438,0,0,1,.991.981,2.7,2.7,0,0,1,.355,1.331,2.69,2.69,0,0,1-.35,1.319,2.468,2.468,0,0,1-.981.983,2.688,2.688,0,0,1-1.32.35,2.686,2.686,0,0,1-1.321-.35,2.476,2.476,0,0,1-.983-.983,2.677,2.677,0,0,1-.352-1.319,2.687,2.687,0,0,1,.357-1.331,2.447,2.447,0,0,1,.993-.981A2.719,2.719,0,0,1-300.074,2522.55Zm0,.44a2.263,2.263,0,0,0-1.088.286,2.056,2.056,0,0,0-.828.819,2.236,2.236,0,0,0-.3,1.11,2.224,2.224,0,0,0,.294,1.1,2.08,2.08,0,0,0,.821.819,2.229,2.229,0,0,0,1.1.294,2.229,2.229,0,0,0,1.1-.294,2.07,2.07,0,0,0,.819-.819,2.237,2.237,0,0,0,.292-1.1,2.246,2.246,0,0,0-.3-1.11,2.042,2.042,0,0,0-.828-.819A2.266,2.266,0,0,0-300.074,2522.99Zm-1.164,3.681v-2.855h.981a2.415,2.415,0,0,1,.728.079.706.706,0,0,1,.359.276.731.731,0,0,1,.134.418.762.762,0,0,1-.223.545.879.879,0,0,1-.592.26.789.789,0,0,1,.243.151,3.3,3.3,0,0,1,.422.566l.348.559h-.563l-.253-.45a2.3,2.3,0,0,0-.482-.664.591.591,0,0,0-.369-.1h-.271v1.213Zm.46-1.607h.559a.9.9,0,0,0,.547-.119.39.39,0,0,0,.146-.317.386.386,0,0,0-.07-.227.422.422,0,0,0-.2-.149,1.451,1.451,0,0,0-.462-.049h-.524Z" transform="translate(302.729 -2522.55)" fill="#fff" opacity="0.5"></path></g></g></svg>