<svg xmlns="http://www.w3.org/2000/svg" width="71.532" height="58.951" viewBox="0 0 71.532 58.951"><g id="Grupo_2507" data-name="Grupo 2507" transform="translate(-465.942 -188.956)"><path id="Trazado_50087" data-name="Trazado 50087" d="M491.65,247.291a.341.341,0,0,1-.245.369,4.569,4.569,0,0,1-1.4.247,2.387,2.387,0,0,1-2.38-1.272,5,5,0,0,1-3.385,1.272,5.412,5.412,0,0,1-3.907-1.467,5.4,5.4,0,0,1,0-7.528,5.412,5.412,0,0,1,3.907-1.467,4.821,4.821,0,0,1,2.894.9v-.288a.272.272,0,0,1,.307-.308h1.887a.272.272,0,0,1,.307.308v6.893a.772.772,0,0,0,.2.554.692.692,0,0,0,.524.205,4.106,4.106,0,0,0,.759-.083q.327-.06.369.247Zm-7.385-1.436a2.651,2.651,0,0,0,2.072-.892,3.665,3.665,0,0,0,0-4.574,2.651,2.651,0,0,0-2.072-.892,2.774,2.774,0,0,0-2.123.892,3.563,3.563,0,0,0,0,4.574,2.774,2.774,0,0,0,2.123.892" fill="#fff"></path><path id="Trazado_50088" data-name="Trazado 50088" d="M495.978,247.906a3.259,3.259,0,0,1-2.083-.626,2.007,2.007,0,0,1-.79-1.651V233.393a.272.272,0,0,1,.308-.308H495.3a.273.273,0,0,1,.307.308v11.558a.761.761,0,0,0,.2.555.685.685,0,0,0,.524.205,4.1,4.1,0,0,0,.758-.082c.218-.041.341.042.369.246l.164,1.415a.314.314,0,0,1-.246.37,4.554,4.554,0,0,1-1.394.246" fill="#fff"></path><path id="Trazado_50089" data-name="Trazado 50089" d="M500.325,235.6a1.567,1.567,0,0,1-1.107-.419,1.37,1.37,0,0,1,0-2.032,1.568,1.568,0,0,1,1.107-.42,1.588,1.588,0,0,1,1.1.42,1.354,1.354,0,0,1,0,2.032,1.588,1.588,0,0,1-1.1.419m1.621,12.308a3.258,3.258,0,0,1-2.082-.626,2,2,0,0,1-.789-1.651V238.06a.272.272,0,0,1,.308-.308h1.886a.273.273,0,0,1,.308.308v6.891a.766.766,0,0,0,.2.555.687.687,0,0,0,.524.205,4.1,4.1,0,0,0,.758-.082c.219-.041.341.042.369.246l.164,1.415a.315.315,0,0,1-.246.37,4.554,4.554,0,0,1-1.395.246" fill="#fff"></path><path id="Trazado_50090" data-name="Trazado 50090" d="M509.208,247.906a5.947,5.947,0,0,1-3.374-.861,3.359,3.359,0,0,1-1.508-2.4c-.027-.217.074-.327.308-.327l1.722.019a.329.329,0,0,1,.329.267q.45,1.376,2.523,1.375a2.96,2.96,0,0,0,1.436-.307A.879.879,0,0,0,510.52,244a6.575,6.575,0,0,0-1.63-.4c-.636-.081-1.273-.192-1.908-.329a3.22,3.22,0,0,1-1.631-.871,2.457,2.457,0,0,1-.675-1.836,2.66,2.66,0,0,1,1.188-2.256,5.232,5.232,0,0,1,3.138-.861,5.462,5.462,0,0,1,3.037.8,3.014,3.014,0,0,1,1.435,2.114q.042.327-.308.327h-1.723c-.177,0-.287-.061-.328-.183a1.623,1.623,0,0,0-.768-.894A2.655,2.655,0,0,0,509,239.27a2.694,2.694,0,0,0-1.343.288.857.857,0,0,0-.5.758.951.951,0,0,0,.481.841,2.775,2.775,0,0,0,1.19.39c.472.054.987.141,1.549.256a13.69,13.69,0,0,1,1.548.41,2.444,2.444,0,0,1,1.19.873,2.6,2.6,0,0,1,.483,1.62,2.737,2.737,0,0,1-1.211,2.318,5.275,5.275,0,0,1-3.179.882" fill="#fff"></path><path id="Trazado_50091" data-name="Trazado 50091" d="M520.3,247.906a5.477,5.477,0,0,1-3.958-1.437,5.555,5.555,0,0,1,0-7.589,6.146,6.146,0,0,1,7.25-.472,4.074,4.074,0,0,1,1.673,2.565q.06.328-.267.328h-1.949a.326.326,0,0,1-.328-.267,1.969,1.969,0,0,0-.882-1.056,2.909,2.909,0,0,0-1.539-.4,2.821,2.821,0,0,0-2.143.851,3.52,3.52,0,0,0,0,4.493,2.82,2.82,0,0,0,2.143.85,2.909,2.909,0,0,0,1.539-.4,1.976,1.976,0,0,0,.882-1.056.327.327,0,0,1,.328-.268H525c.218,0,.307.111.267.329a4.067,4.067,0,0,1-1.673,2.563,5.488,5.488,0,0,1-3.292.965" fill="#fff"></path><path id="Trazado_50092" data-name="Trazado 50092" d="M535.966,246.47a6.2,6.2,0,0,1-7.938,0,5.528,5.528,0,0,1,0-7.589,6.2,6.2,0,0,1,7.938,0,5.528,5.528,0,0,1,0,7.589m-6.123-1.559a3.176,3.176,0,0,0,4.308,0,3.459,3.459,0,0,0,0-4.472,3.182,3.182,0,0,0-4.308,0,3.462,3.462,0,0,0,0,4.472" fill="#fff"></path><path id="Trazado_50093" data-name="Trazado 50093" d="M476.84,233.24a.309.309,0,0,1,.309.307v8.863a5.329,5.329,0,0,1-1.52,4.04,6.665,6.665,0,0,1-7.989.247,4.588,4.588,0,0,1-1.694-3.221q-.039-.328.31-.328h2.01a.287.287,0,0,1,.307.287,2.382,2.382,0,0,0,.974,1.58,3.365,3.365,0,0,0,2.042.6,2.687,2.687,0,0,0,2.113-.9,3.452,3.452,0,0,0,.8-2.38v-6.158c0-.822-.877-1-1.414-1.032h-.159a.251.251,0,0,1-.25-.251v-1.4a.25.25,0,0,1,.25-.25Z" fill="#fff"></path><path id="Trazado_50111" data-name="Trazado 50111" d="M501.37,193.821v1.8a1.778,1.778,0,0,1,.726,0h0v-1.8a1.182,1.182,0,0,0-.727,0" fill="#fff"></path><path id="Trazado_50112" data-name="Trazado 50112" d="M493.842,194.3a.318.318,0,0,0,.185.257,5.628,5.628,0,0,0,2.375.544,5.467,5.467,0,0,0,3.1-.994,4.28,4.28,0,0,1,4.416-.184,1.637,1.637,0,0,1-1.166.443h-.274V195h.274a2.208,2.208,0,0,0,1.917-1l.005-.008h0a.311.311,0,0,0,.042-.156v-3.8a.317.317,0,0,0-.14-.264,4.915,4.915,0,0,0-5.431,0,4.773,4.773,0,0,1-4.849.4.32.32,0,0,0-.343.532l2.074,1.793-2.054,1.51a.322.322,0,0,0-.13.29m2.886-1.522a.32.32,0,0,0,.02-.5l-1.219-1.054a5.369,5.369,0,0,0,3.973-.921,4.275,4.275,0,0,1,4.574-.09v3.07a4.932,4.932,0,0,0-4.932.295,4.749,4.749,0,0,1-4.333.607Z" fill="#fff"></path><path id="Trazado_50113" data-name="Trazado 50113" d="M501.368,192.25h.727v-.692h.692v-.727H502.1v-.691h-.727v.691h-.691v.727h.691Z" fill="#fff"></path><path id="Trazado_50114" data-name="Trazado 50114" d="M517.261,218.552c.229-.271.47-.547.7-.814a15.8,15.8,0,0,0,2.593-3.6,6.392,6.392,0,0,0,.619-3.557,5.579,5.579,0,0,0-3.325-4.392,2.554,2.554,0,0,0,.362-1.647l0-.014a.349.349,0,0,0-.594-.2,1.353,1.353,0,0,1-1.42.316l-.048-.018a6.663,6.663,0,0,0-2.373-.436,6.84,6.84,0,0,0-.974.071c0-.016,0-.032,0-.048a2.237,2.237,0,0,0-.115-.711.348.348,0,0,0-.206-.215.355.355,0,0,0-.3.022.912.912,0,0,1-.46.124c-.033,0-.067,0-.108-.006-.192-.019-.361-.028-.515-.028a5.324,5.324,0,0,0-.736.051,5.253,5.253,0,0,0-1.381.394,5.206,5.206,0,0,0-.628.329,5.3,5.3,0,0,0-.576.408,5.241,5.241,0,0,0-.518.48c-.1.109-.2.22-.3.338s-.174.24-.255.364c-.166.254-.314.519-.481.77l-.054.08c-.011.014-.019.027-.029.041s-.027.028-.027.036l0,0-.014.017c-.049.068-.1.134-.153.2s-.117.141-.178.209c-.092.1-.189.2-.287.3-.038.037-.077.073-.116.109-.069.063-.14.126-.211.186l-.062.051-1.063-.732-.169-1.018c.072-.112.139-.224.2-.336l.038-.064c.032-.062.058-.126.088-.189l.021-.053c.025-.054.047-.107.07-.162.008-.021.018-.043.027-.064s.017-.049.024-.074l.3-.065.238-1.732h0v0l-.323-.078c-.007-.055-.011-.111-.021-.167s-.024-.144-.041-.215a2.679,2.679,0,0,0-.222-.594c-.006-.014-.009-.026-.015-.04a2.216,2.216,0,0,0-1.253-1.093l-.043-.013c.008-.017.015-.034.022-.05.015-.037.029-.076.047-.113a2.193,2.193,0,0,1,1-1.059c.074.186.111.318.112.32a.3.3,0,0,0,.331.212.546.546,0,0,0,.251-.094,1.069,1.069,0,0,0,.3-.33,2.349,2.349,0,0,0,.165-2.182,1.549,1.549,0,0,0-1.332-.974,1.439,1.439,0,0,0-.585.1,1.695,1.695,0,0,0-3.058,0,1.441,1.441,0,0,0-.586-.1,1.553,1.553,0,0,0-1.333.974,2.363,2.363,0,0,0,.165,2.182,1.073,1.073,0,0,0,.3.33.55.55,0,0,0,.252.094.3.3,0,0,0,.33-.212s.038-.134.113-.32a2.206,2.206,0,0,1,1,1.059c.016.037.032.076.047.113l.02.05-.043.013a2.229,2.229,0,0,0-1.253,1.093c-.005.014-.008.026-.014.04a2.784,2.784,0,0,0-.222.594c-.017.071-.028.144-.04.215s-.015.112-.022.167l-.322.078v0l.238,1.732.3.065c.009.025.017.05.025.074s.02.043.029.064c.021.055.044.108.068.162l.021.053c.029.063.056.127.088.189l.039.064c.061.114.129.228.2.341l-.168,1.013-1.068.736a6.244,6.244,0,0,1-.585-.542l-.093-.1c-.119-.133-.229-.27-.333-.41l-.015-.021c0-.008-.023-.029-.028-.036l-.028-.041c-.019-.027-.037-.053-.054-.08-.169-.251-.316-.516-.482-.77-.081-.124-.163-.248-.256-.364s-.194-.229-.3-.338a5.265,5.265,0,0,0-1.091-.888,5.437,5.437,0,0,0-.628-.329,5.21,5.21,0,0,0-.674-.243,5.024,5.024,0,0,0-.709-.151,5.32,5.32,0,0,0-.735-.051c-.155,0-.324.009-.515.028-.042,0-.075.006-.109.006a.909.909,0,0,1-.46-.124.351.351,0,0,0-.3-.022.345.345,0,0,0-.207.215,2.24,2.24,0,0,0-.117.711c0,.022,0,.045,0,.068a6.58,6.58,0,0,0-1.1-.091,6.65,6.65,0,0,0-2.372.436l-.05.018a1.353,1.353,0,0,1-1.42-.316.349.349,0,0,0-.593.2l0,.014a2.572,2.572,0,0,0,.361,1.647,5.583,5.583,0,0,0-3.325,4.392,6.375,6.375,0,0,0,.62,3.557,15.767,15.767,0,0,0,2.592,3.6c.234.267.476.543.7.814.078.092.159.185.241.282a4.076,4.076,0,0,1,1.27,2.219,1.182,1.182,0,0,1-1.287,1.286,1.44,1.44,0,0,1-.493-.085.7.7,0,0,0-.194-.039v0a.8.8,0,0,0-.853.533.671.671,0,0,0-.188.026.7.7,0,0,0-.506.743l0,.037a4.053,4.053,0,0,0,3.94,3.579h.055a4.144,4.144,0,0,0,2.486-.872.238.238,0,0,0,.022.023.7.7,0,0,0,.9.078,4.378,4.378,0,0,0,1.317-1.48l.006,0c.027-.047.05-.1.074-.144.023.04.046.081.071.122.048.079.1.158.145.235a10.494,10.494,0,0,0,17.167,0c.05-.077.1-.156.145-.235.025-.041.048-.082.072-.122.023.049.047.1.073.144l.007,0a4.375,4.375,0,0,0,1.316,1.48.7.7,0,0,0,.9-.078.242.242,0,0,0,.022-.023,4.148,4.148,0,0,0,2.486.872h.053a4.053,4.053,0,0,0,3.942-3.579l0-.037a.7.7,0,0,0-.507-.743.683.683,0,0,0-.189-.026.8.8,0,0,0-.853-.533v0a.7.7,0,0,0-.194.039,1.45,1.45,0,0,1-.494.085,1.181,1.181,0,0,1-1.286-1.286,4.073,4.073,0,0,1,1.269-2.219c.083-.1.165-.19.241-.282m-3.484-13.669a5.944,5.944,0,0,1,2.125.392l.054.019a2.04,2.04,0,0,0,1.164.073,2.166,2.166,0,0,0,.372-.124,1.9,1.9,0,0,1-.31.7,10.016,10.016,0,0,0-1.37-.17,5,5,0,0,0-4.258,2.38.764.764,0,0,0-.754-.534h-2.043a5.969,5.969,0,0,1,5.02-2.735m.723,8.581a1.5,1.5,0,0,0,.06.165,2.074,2.074,0,0,0,1.995,1.3c.023,0,.048,0,.072,0s0,0,.014,0c-1.511,1.542-3.622,2.366-5.064,3.971V213.36c.062-.06.111-.106.152-.148.41-.421.781-.9,1.2-1.311a4.021,4.021,0,0,1,2.256-1.283,1.729,1.729,0,0,1,1.063.125.985.985,0,0,1,.414.44.968.968,0,0,1-.2,1.093c-.028.025-.06.048-.09.07a1.03,1.03,0,0,1-.479.177.8.8,0,0,1-.337-.036.858.858,0,0,0-.4-.054.764.764,0,0,0-.531.29.81.81,0,0,0-.134.741M504.2,203.8l-.065.614-.011,0h0l-.336.069-.324.067v-.929l.414.1c.11.025.22.052.325.077m-2.47,1.82.005,0,.005,0,1.77-.38v0a3.661,3.661,0,0,1-.235.406,3.071,3.071,0,0,1-.2.262,1.586,1.586,0,0,1-2.689,0c-.068-.084-.135-.172-.194-.262a3.833,3.833,0,0,1-.236-.406v0Zm-1.043-.927v-1.23l.708-.167v1.543Zm1.387.146V203.3l.708.167v1.23Zm-2.308-5.61a1.469,1.469,0,0,1,.512-.493,2.25,2.25,0,0,0-1.335.657,1.7,1.7,0,0,1,0-1.341.837.837,0,0,1,.72-.546,1.369,1.369,0,0,1,.706.179,2.118,2.118,0,0,1,1.063,1.384,2.207,2.207,0,0,0-.453-1.573,1.867,1.867,0,0,0-.18-.21.992.992,0,0,1,1.873,0,2.1,2.1,0,0,0-.181.21,2.215,2.215,0,0,0-.452,1.573,2.124,2.124,0,0,1,1.063-1.384,1.371,1.371,0,0,1,.706-.179.84.84,0,0,1,.721.546,1.706,1.706,0,0,1,0,1.341,2.255,2.255,0,0,0-1.335-.657,1.472,1.472,0,0,1,.51.493,2.9,2.9,0,0,0-1.316,1.4c-.021.043-.037.086-.055.13s-.024.061-.037.09c-.194-.081-.369-.19-.558-.289h0c-.19.1-.365.208-.561.289q-.016-.044-.036-.09c-.017-.044-.035-.087-.055-.13a2.9,2.9,0,0,0-1.316-1.4m1.025,2.51c.157-.055.324-.1.482-.161a4.074,4.074,0,0,0,.462-.243,3.99,3.99,0,0,0,.462.243c.158.06.326.106.482.161a1.774,1.774,0,0,1,1.1,1.259c-1.864-.458-1.993-.489-2.039-.491h-.01c-.047,0-.177.033-2.039.491a1.772,1.772,0,0,1,1.1-1.259m-1.443,2.678h0l-.01,0-.067-.614c.107-.025.216-.052.327-.077l.413-.1v.929l-.325-.067Zm.775,2.957.1-.6c.015.013.03.025.048.038a2.183,2.183,0,0,0,1.457.62h0a2.189,2.189,0,0,0,1.457-.62s.019-.019.049-.052l.107.612,1.161.8c-.058.036-.115.07-.173.1a5.853,5.853,0,0,1-1.583.627,4.348,4.348,0,0,1-1.025.145,4.655,4.655,0,0,1-.886-.116,5.837,5.837,0,0,1-1.634-.609c-.084-.047-.168-.1-.25-.149Zm-13.906-2.01a2.036,2.036,0,0,0,1.163-.073l.054-.019a5.971,5.971,0,0,1,7.146,2.343h-2.044a.765.765,0,0,0-.754.534,5,5,0,0,0-4.257-2.38,9.97,9.97,0,0,0-1.369.17,1.854,1.854,0,0,1-.311-.7,2.11,2.11,0,0,0,.372.124m6.4,17.7c0,.055-.009.112-.016.168,0,.012,0,.024-.005.036-.008.06-.017.119-.028.177l0,.015a3.651,3.651,0,0,1-.239.773.224.224,0,0,1-.014.032c-.019.045-.04.088-.062.132s-.031.062-.048.092a3.705,3.705,0,0,1-1.134,1.293,3.7,3.7,0,0,0,.552-3.189l0-.01a5.11,5.11,0,0,1-.671,2.156l-.006.009a3.355,3.355,0,0,1-2.889,1.677h-.044a3.375,3.375,0,0,1-3.246-2.962l0-.014,0-.011a.077.077,0,0,1,.017.023,2.455,2.455,0,0,0,4.508-1.187,2.452,2.452,0,0,1-1.078,1.237.1.1,0,0,1-.03.018,2.277,2.277,0,0,1-.432.183,1.844,1.844,0,0,1-2.425-.891,1.637,1.637,0,0,1,.155.059,2.113,2.113,0,0,0,.331.112,1.917,1.917,0,0,0,.377.041c.113,0,.228-.005.341-.015l.173-.018c.042,0,.081-.016.123-.025a1.984,1.984,0,0,0,.5-.18,1.771,1.771,0,0,0,.713-.695,1.966,1.966,0,0,0,.192-.49,2.392,2.392,0,0,0,.066-.565c0-1.133-.993-2.143-1.674-2.951a20.507,20.507,0,0,1-3.2-4.262,5.721,5.721,0,0,1-.557-3.166,4.764,4.764,0,0,1,4.673-4.2,4.173,4.173,0,0,1,4.234,3.81v1.96l-.006-.006a10.086,10.086,0,0,0-1.616-1.577,3.307,3.307,0,0,0-3.379-.54,1.8,1.8,0,0,0-.6,2.594A1.661,1.661,0,0,0,488,213.3a1.3,1.3,0,0,1-1.868.7,1.509,1.509,0,0,1-.31-.158,2.63,2.63,0,0,1-.491-.434,2.6,2.6,0,0,1-.437-.677,2.688,2.688,0,0,1-.183-.552,2.754,2.754,0,0,1,.235-1.692,3.373,3.373,0,0,1,2.016-1.664,3.9,3.9,0,0,1,2.815.339c.121.07.236.148.349.229a1.794,1.794,0,0,1,.279.234,3.112,3.112,0,0,0-2.653-1.516,3.685,3.685,0,0,0-3,1.388,3.748,3.748,0,0,0-.721,2.982,7.035,7.035,0,0,0,1.845,2.971,30.416,30.416,0,0,1,3.581,4.853,4.441,4.441,0,0,1,.54,2.217,2.925,2.925,0,0,1-2.789,2.925H487.2a3,3,0,0,0,1.653-.181,3.041,3.041,0,0,0,1.5-1.357c1.32-2.456-.766-4.948-2.22-6.752-.089-.111-.551-.646-.752-.882l1.689,1.219c.339.251.68.5,1.018.775a9.023,9.023,0,0,1,1.357,1.336,5.107,5.107,0,0,1,1.169,3.461m-5.922-8.15c.011,0,0,0,.013,0s.049,0,.073,0a2.075,2.075,0,0,0,1.995-1.3,1.474,1.474,0,0,0,.058-.165.805.805,0,0,0-.133-.741.766.766,0,0,0-.532-.29.853.853,0,0,0-.4.054.8.8,0,0,1-.337.036,1.015,1.015,0,0,1-.478-.177.926.926,0,0,1-.092-.07.966.966,0,0,1,.218-1.533,1.735,1.735,0,0,1,1.065-.125A4.021,4.021,0,0,1,490.4,211.9c.421.416.794.89,1.2,1.311.04.042.089.088.151.148v5.532c-1.441-1.6-3.553-2.429-5.063-3.971m23.324,8.173,0,.034a4.636,4.636,0,0,0,.093.625v0a7.683,7.683,0,0,1-.4.774c-.043.073-.089.145-.135.217a9.671,9.671,0,0,1-15.822,0c-.045-.072-.09-.144-.134-.217a7.691,7.691,0,0,1-.4-.775h0a4.34,4.34,0,0,0,.1-.625l0-.034a5.473,5.473,0,0,0-.779-3.137l0-.005V208.317H495.8c-.413-.7,0,0-.413-.7h0l.021.038a6.668,6.668,0,0,0-4.039-3.219,1.583,1.583,0,0,1-.018-.228c0-.043,0-.085.006-.128a1.627,1.627,0,0,0,.551.036c.172-.017.32-.025.451-.025h.112a4.564,4.564,0,0,1,.736.079,4.578,4.578,0,0,1,1.349.483,4.6,4.6,0,0,1,1.587,1.436c.169.246.315.5.482.751a6.546,6.546,0,0,0,.542.7c.138.154.281.3.429.437.073.068.148.134.222.2.008.005.015.012.023.018.073.062.145.122.22.179l.032.024c.073.057.147.112.224.165.009.008.02.015.029.022l.234.156.018.01a6.468,6.468,0,0,0,1.03.529l.051.022c.066.026.132.05.2.074.163.057.329.111.5.157a4.542,4.542,0,0,0,2.711,0c.167-.046.333-.1.494-.157.067-.024.133-.048.2-.074l.052-.022a6.6,6.6,0,0,0,1.03-.529l.017-.01.234-.156c.009-.007.021-.014.03-.022.076-.053.15-.108.224-.165l.031-.024c.024-.018.047-.038.07-.056h0c.019-.015.037-.032.055-.047s.062-.05.092-.076l.022-.018c.063-.055.127-.111.189-.168l.034-.031c.148-.139.292-.283.43-.437.09-.1.178-.209.262-.316.019-.023.036-.047.054-.07.07-.093.14-.188.2-.283l.02-.029c.006-.009.012-.02.019-.029.047-.07.092-.141.136-.212.107-.171.214-.343.329-.51a4.569,4.569,0,0,1,.465-.575,4.643,4.643,0,0,1,1.121-.861,4.578,4.578,0,0,1,1.349-.483,4.516,4.516,0,0,1,.736-.079h.112c.131,0,.278.008.45.025a1.623,1.623,0,0,0,.551-.036c0,.043.006.085.006.128a1.525,1.525,0,0,1-.013.192,6.675,6.675,0,0,0-4.174,3.255l.024-.038h0c-.415.7,0,0-.415.7H510.8v11.635l0,.005a5.465,5.465,0,0,0-.779,3.137m5.033-2.041a2.392,2.392,0,0,0,.066.565,1.932,1.932,0,0,0,.193.49,1.759,1.759,0,0,0,.3.4,1.792,1.792,0,0,0,.409.3,1.984,1.984,0,0,0,.5.18c.042.009.081.02.123.025l.172.018c.114.01.228.016.342.015a1.9,1.9,0,0,0,.376-.041,2.135,2.135,0,0,0,.333-.112,1.36,1.36,0,0,1,.154-.059,1.845,1.845,0,0,1-2.426.891,2.344,2.344,0,0,1-.433-.183c-.018-.01-.03-.017-.028-.018a2.452,2.452,0,0,1-1.078-1.237,2.455,2.455,0,0,0,4.508,1.187.073.073,0,0,1,.016-.023l0,.011v.014a3.376,3.376,0,0,1-3.248,2.962h-.044a3.352,3.352,0,0,1-2.888-1.677l-.005-.009a5.125,5.125,0,0,1-.672-2.156l0,.01a3.712,3.712,0,0,0,.553,3.189,3.718,3.718,0,0,1-1.135-1.293c-.017-.03-.032-.061-.048-.092s-.042-.087-.062-.132l-.014-.032a3.653,3.653,0,0,1-.239-.773v-.015c-.012-.058-.022-.117-.029-.177l-.006-.036c-.007-.056-.012-.113-.016-.168a5.107,5.107,0,0,1,1.169-3.461,9.023,9.023,0,0,1,1.357-1.336c.338-.273.678-.524,1.02-.775l1.687-1.219c-.2.236-.663.771-.753.882-1.453,1.8-3.538,4.3-2.218,6.752a2.986,2.986,0,0,0,2.637,1.582,2.984,2.984,0,0,0,.513-.044h-.008a2.925,2.925,0,0,1-2.789-2.925,4.452,4.452,0,0,1,.54-2.217,30.356,30.356,0,0,1,3.581-4.853,7.025,7.025,0,0,0,1.845-2.971,3.736,3.736,0,0,0-.721-2.982,3.682,3.682,0,0,0-3-1.388,3.116,3.116,0,0,0-2.653,1.516,2,2,0,0,1,.28-.234c.114-.081.229-.159.35-.229a3.9,3.9,0,0,1,2.816-.339,3.38,3.38,0,0,1,2.015,1.664,2.76,2.76,0,0,1,.234,1.692,2.808,2.808,0,0,1-.18.552,2.9,2.9,0,0,1-.231.411,2.718,2.718,0,0,1-.209.266,2.568,2.568,0,0,1-.491.434,1.485,1.485,0,0,1-.31.158,1.3,1.3,0,0,1-1.868-.7,1.665,1.665,0,0,0,1.85-.591,1.806,1.806,0,0,0-.605-2.594,3.308,3.308,0,0,0-3.38.54,10.088,10.088,0,0,0-1.616,1.577l-.006.006v-1.956a4.172,4.172,0,0,1,4.235-3.814,4.765,4.765,0,0,1,4.673,4.2,5.731,5.731,0,0,1-.559,3.166,20.493,20.493,0,0,1-3.2,4.262c-.683.808-1.676,1.818-1.676,2.951" fill="#fff"></path><path id="Trazado_50115" data-name="Trazado 50115" d="M502.949,220.4v-.114a.324.324,0,0,0-.322-.323v.985l1.179-.381a1.163,1.163,0,0,0,.333.647,1.086,1.086,0,0,1,.3.471l-.865.373a1.332,1.332,0,0,0,0,.828,1.316,1.316,0,0,1-.606-.262v-.3a.322.322,0,0,0-.323-.321v.987a1.8,1.8,0,0,0,.992.341.306.306,0,0,1,.3.3.088.088,0,0,0,.094-.088.945.945,0,0,0-.036-.251.915.915,0,0,1-.033-.247.96.96,0,0,1,.089-.4,1.312,1.312,0,0,1,.156-.038,1.236,1.236,0,0,1,.23-.021,1.308,1.308,0,0,1,.339.045,1.226,1.226,0,0,0,.214.037,1.02,1.02,0,0,0,.11.005,1.253,1.253,0,0,0,.39-.061s.046-.016.057.019-.03.07-.03.07a.678.678,0,0,1-.364.154,1.332,1.332,0,0,1-.178.007c.128.3.226.551.241.586a1.328,1.328,0,0,0,.827,0,1.322,1.322,0,0,1-.261.607h-.3a.323.323,0,0,0-.323.322h.989a1.822,1.822,0,0,0,.339-.993.307.307,0,0,1,.306-.3.088.088,0,0,0-.088-.094.866.866,0,0,0-.251.037.963.963,0,0,1-.248.033.934.934,0,0,1-.4-.091,1.227,1.227,0,0,1-.061-.385,1.331,1.331,0,0,1,.045-.338h0a.319.319,0,0,0,.01-.052,1.029,1.029,0,0,0,1.171-1.45l-.09-.19a1.719,1.719,0,0,1,.081-1.742h0l.029-.011a1.03,1.03,0,0,0,.17-.1.616.616,0,0,0,.215-.4c0-.017,0-.035,0-.052a.192.192,0,0,0,0-.034.718.718,0,0,0-.011-.1c-.025.015-.05.031-.072.047-.038.026-.075.053-.112.081s-.072.059-.1.09-.067.063-.1.1-.061.068-.09.1l0,.006-.024.03h0l-.009.013-.018.026c-.011.013-.02.026-.029.039l-.006.01a1.924,1.924,0,0,0-.34.975,1.944,1.944,0,0,0,.218,1.031l.087.185a.806.806,0,0,1-.722,1.162h-.029a.737.737,0,0,1-.548-.283,1.121,1.121,0,0,1-.068-.091,1.332,1.332,0,0,1-.245-.771l.016.019v0a.9.9,0,0,0,.314.212.022.022,0,0,0,.028-.03.957.957,0,0,1-.033-.5,1.17,1.17,0,0,1,.091-.283.272.272,0,0,0,.054.164.022.022,0,0,0,.04-.008,1.506,1.506,0,0,1,.152-.447c.031-.059.045-.082.047-.087.025-.045.051-.091.079-.137a1.206,1.206,0,0,0,.084-.144h0l.006-.009.008-.018.007-.016.008-.017.007-.016.007-.018.006-.017.007-.018a.066.066,0,0,1,.008-.017l.006-.019.005-.016.006-.018.005-.017.005-.019.005-.018.005-.019,0-.017.005-.02,0-.018a.077.077,0,0,1,.005-.019l0-.017,0-.021,0-.017,0-.021,0-.017v-.022l0-.017,0-.023v-.093a1.329,1.329,0,0,0-.5-1.041c.026.005.05.011.074.018a.021.021,0,0,0,.019-.037,1.324,1.324,0,0,0-.967-.279c-.026,0-.049.006-.072.01a.061.061,0,0,0-.051.044l-.044.14-.038.005a.379.379,0,0,0-.256.175l-.368.152a.075.075,0,0,0-.049.077.083.083,0,0,0,.02.049c.005.057.044.283.138.294l.115-.034h0l.018,0c.1-.028.24-.049.277.015,0,0,.079.176-.024.215a1.2,1.2,0,0,1-.146.019l-.09.008-.054,0s-.058.171.05.223a.864.864,0,0,1,.261-.04c.02,0,.1,0,.113,0l.055-.007a1.248,1.248,0,0,0,.4-.113.549.549,0,0,1-.286.193s-.091.03-.163.048a.708.708,0,0,0-.081.028,1.263,1.263,0,0,0-.454.333l-1.13-.533.02-.012v-.208a.325.325,0,0,0-.2-.3.241.241,0,0,0-.12-.031v.768l.947.682.373-.1a.059.059,0,0,1,.076.029.055.055,0,0,1-.023.073Z" fill="#fff"></path><path id="Trazado_50116" data-name="Trazado 50116" d="M498.116,223.443a1.325,1.325,0,0,1-.826,0,1.313,1.313,0,0,0,.262.606h.3a.323.323,0,0,1,.323.323h-.989a1.807,1.807,0,0,1-.34-.993.306.306,0,0,0-.3-.3.089.089,0,0,1,.088-.093.878.878,0,0,1,.252.037.955.955,0,0,0,.247.031.936.936,0,0,0,.4-.089,1.263,1.263,0,0,0,.061-.386,1.246,1.246,0,0,0-.046-.337h0a.236.236,0,0,1-.009-.052,1.028,1.028,0,0,1-1.17-1.45l.089-.19a1.728,1.728,0,0,0-.08-1.742h0a.264.264,0,0,0-.03-.011.845.845,0,0,1-.168-.1.6.6,0,0,1-.215-.4c0-.017,0-.034,0-.052v-.034a.593.593,0,0,1,.012-.1l.072.047c.038.026.074.053.11.081s.071.059.106.09.065.063.1.1a1.207,1.207,0,0,1,.089.1l.005.006c.008.01.017.02.024.03l.009.013.02.026c.009.013.019.026.027.039l.007.009a1.941,1.941,0,0,1,.121,2.007l-.087.185a.8.8,0,0,0,.723,1.161h.027a.737.737,0,0,0,.55-.282c.025-.031.049-.063.068-.091a1.309,1.309,0,0,0,.243-.771l-.014.018v0a.894.894,0,0,1-.315.212.022.022,0,0,1-.028-.03.947.947,0,0,0,.034-.5,1.172,1.172,0,0,0-.092-.283.272.272,0,0,1-.054.164.021.021,0,0,1-.039-.008,1.5,1.5,0,0,0-.152-.447.57.57,0,0,1-.046-.087c-.026-.045-.053-.091-.081-.137a1.355,1.355,0,0,1-.084-.144h0l-.005-.009-.008-.018-.007-.016-.008-.017-.007-.016a.067.067,0,0,1-.007-.018l-.007-.017-.007-.018-.006-.017-.007-.018-.006-.017-.006-.019,0-.016-.005-.019,0-.018-.006-.019-.005-.017,0-.02,0-.017,0-.021,0-.016,0-.021,0-.017,0-.021v-.017l0-.022,0-.017,0-.023v-.054c0-.013,0-.026,0-.039a1.326,1.326,0,0,1,.5-1.041l-.075.018a.021.021,0,0,1-.017-.037,1.324,1.324,0,0,1,.968-.279c.023,0,.047.006.071.01a.067.067,0,0,1,.051.044l.044.14.036.005a.377.377,0,0,1,.257.175l.368.152a.079.079,0,0,1,.028.127c-.005.056-.044.282-.138.293l-.115-.034h0l-.016,0c-.1-.028-.241-.049-.278.015,0,0-.079.176.026.215a.946.946,0,0,0,.144.02l.091.007.055,0s.056.171-.051.224a.846.846,0,0,0-.263-.041c-.017,0-.093,0-.112,0l-.056-.006a1.249,1.249,0,0,1-.4-.114.53.53,0,0,0,.285.193s.093.03.163.048a.6.6,0,0,1,.081.028,1.254,1.254,0,0,1,.454.333l1.129-.533-.018-.013v-.207a.32.32,0,0,1,.2-.3.248.248,0,0,1,.121-.032v.768l-.94.677-.4-.109a.059.059,0,0,0-.076.029.054.054,0,0,0,.022.073l1.074.543v-.114a.323.323,0,0,1,.322-.323v.985l-1.179-.381a1.168,1.168,0,0,1-.334.647,1.1,1.1,0,0,0-.3.47l.866.374a1.328,1.328,0,0,1,0,.827,1.323,1.323,0,0,0,.607-.262v-.3a.322.322,0,0,1,.321-.322v.988a1.8,1.8,0,0,1-.992.34.306.306,0,0,0-.3.306.089.089,0,0,1-.094-.088.833.833,0,0,1,.037-.251.969.969,0,0,0,.032-.248.956.956,0,0,0-.089-.4,1.214,1.214,0,0,0-.155-.039,1.184,1.184,0,0,0-.376-.011l.076-.479a.056.056,0,0,0-.038-.064.058.058,0,0,0-.069.033Z" fill="#fff"></path><path id="Trazado_50117" data-name="Trazado 50117" d="M505,212.3a2.519,2.519,0,0,0-2.141-1.342,2.434,2.434,0,0,0-2.308,0,2.514,2.514,0,0,0-2.14,1.342,1.961,1.961,0,0,0-.373,3.221,2.437,2.437,0,0,0,1.878,1.509,1.626,1.626,0,0,1,1.355,1.559l0,4.26a1.244,1.244,0,0,1-1.14,1.187h-.252a.34.34,0,0,0-.339.338h4.322a.339.339,0,0,0-.338-.339h-.252a1.221,1.221,0,0,1-1.141-1.187l0-4.26a1.61,1.61,0,0,1,1.251-1.54l.065-.013a2.435,2.435,0,0,0,1.919-1.515A1.962,1.962,0,0,0,505,212.3m-.064,2.718-.123.106-.061.152a1.748,1.748,0,0,1-1.146,1.045v0a3.272,3.272,0,0,0-.54.166l-.011.006c-.031.032-.059.067-.093.1l-.014.012c-.03.025-.059.051-.09.074a1.247,1.247,0,0,1-.11.081,1.855,1.855,0,0,1-2.083,0c-.039-.026-.075-.053-.111-.081l-.092-.075-.012-.011c-.032-.029-.06-.063-.09-.094l-.016-.008a3.243,3.243,0,0,0-.54-.166v0a1.757,1.757,0,0,1-1.146-1.045l-.061-.152-.123-.106a1.3,1.3,0,0,1,.246-2.129l.182-.1.1-.182a1.86,1.86,0,0,1,1.575-.989l.157-.006.137-.073a1.77,1.77,0,0,1,1.676,0l.137.073.156.006a1.863,1.863,0,0,1,1.577.989l.1.182.183.1a1.3,1.3,0,0,1,.245,2.129" fill="#fff"></path><path id="Trazado_50118" data-name="Trazado 50118" d="M505.873,209.769a6.839,6.839,0,0,1-1.459.613h4.319v9.371a6.987,6.987,0,0,1-.835,3.327c-.034.062-.069.125-.1.185a7.028,7.028,0,0,1-12.173,0c-.035-.06-.07-.123-.1-.185a6.994,6.994,0,0,1-.651-1.715,7.085,7.085,0,0,1-.185-1.612v-9.371h4.4a7,7,0,0,1-1.495-.613h-3.515v9.984a7.617,7.617,0,0,0,.909,3.618c.038.067.075.135.113.2a7.641,7.641,0,0,0,13.234,0c.039-.066.075-.134.112-.2a7.634,7.634,0,0,0,.91-3.618v-9.984Z" fill="#fff"></path><path id="Trazado_50119" data-name="Trazado 50119" d="M510.522,209.922l-.154-.154-.294.3-.295-.3-.154.154.294.3-.293.294.154.153.294-.294.294.294.154-.153-.3-.294Z" fill="#fff"></path><path id="Trazado_50120" data-name="Trazado 50120" d="M493.751,209.922l-.154-.154-.294.3-.295-.3-.154.154.295.3-.294.294.154.153.294-.294.294.294.154-.153-.3-.294Z" fill="#fff"></path><path id="Trazado_50121" data-name="Trazado 50121" d="M510.522,217.1l-.154-.154-.294.3-.295-.3-.154.154.294.3-.293.294.154.153.294-.294.294.294.154-.153-.3-.294Z" fill="#fff"></path><path id="Trazado_50122" data-name="Trazado 50122" d="M493.751,217.1l-.154-.154-.294.3-.295-.3-.154.154.295.3-.294.294.154.153.294-.294.294.294.154-.153-.3-.294Z" fill="#fff"></path><path id="Trazado_50123" data-name="Trazado 50123" d="M495.427,224.565l-.152-.154-.3.3-.3-.3-.153.154.3.3-.294.294.153.153.295-.294.3.294.152-.153-.294-.294Z" fill="#fff"></path><path id="Trazado_50124" data-name="Trazado 50124" d="M508.882,224.565l-.154-.154-.294.3-.295-.3-.154.154.295.3-.294.294.154.153.294-.294.294.294.154-.153-.3-.294Z" fill="#fff"></path><path id="Trazado_50125" data-name="Trazado 50125" d="M502.145,227.828l-.153-.154-.3.3-.3-.3-.152.154.294.3-.294.294.154.153.294-.294.3.294.153-.153-.3-.294Z" fill="#fff"></path></g></svg>