<svg xmlns="http://www.w3.org/2000/svg" width="91.373" height="62.233" viewBox="0 0 91.373 62.233"><g id="Grupo_2505" data-name="Grupo 2505" transform="translate(-996.786 -1324.474)"><g id="Grupo_2504" data-name="Grupo 2504" transform="translate(999.803 1368.494)"><path id="Trazado_50038" data-name="Trazado 50038" d="M1004.713,1402.478h-2.134v2.285h2.077v.377h-2.077v3.257h-.415v-6.3h2.549Z" transform="translate(-1002.008 -1400.334)" fill="#fff"></path><path id="Trazado_50039" data-name="Trazado 50039" d="M1016.2,1402.1v3.937a2.377,2.377,0,0,0,.265,1.36,1.836,1.836,0,0,0,2.927,0,2.378,2.378,0,0,0,.264-1.36V1402.1h.416v3.937a2.589,2.589,0,0,1-.359,1.615,2.3,2.3,0,0,1-3.568,0,2.588,2.588,0,0,1-.359-1.615V1402.1Z" transform="translate(-1007.593 -1400.334)" fill="#fff"></path><path id="Trazado_50040" data-name="Trazado 50040" d="M1033.044,1408.351v-6.363l5.287,5.533v-5.467h.415v6.458l-5.287-5.533v5.372Z" transform="translate(-1014.674 -1400.288)" fill="#fff"></path><path id="Trazado_50041" data-name="Trazado 50041" d="M1052.708,1408.4v-6.3h1.246a3.179,3.179,0,0,1,2.323.878,3.3,3.3,0,0,1,0,4.541,3.181,3.181,0,0,1-2.323.878Zm.415-.377h.822a2.771,2.771,0,1,0,0-5.542h-.822Z" transform="translate(-1022.74 -1400.334)" fill="#fff"></path><path id="Trazado_50042" data-name="Trazado 50042" d="M1072.138,1406.2h-2.681l-.84,2.067h-.454l2.653-6.486,2.615,6.486h-.453Zm-.151-.377-1.18-2.984-1.2,2.984Z" transform="translate(-1029.079 -1400.203)" fill="#fff"></path><path id="Trazado_50043" data-name="Trazado 50043" d="M1090.361,1403.325a2.79,2.79,0,0,0-2.125-.991,2.866,2.866,0,0,0,.009,5.731,2.93,2.93,0,0,0,2.115-.954v.548a3.165,3.165,0,0,1-2.1.783,3.243,3.243,0,1,1-.019-6.486,3.07,3.07,0,0,1,2.115.822Z" transform="translate(-1035.976 -1400.275)" fill="#fff"></path><path id="Trazado_50044" data-name="Trazado 50044" d="M1103.939,1402.1v6.3h-.416v-6.3Z" transform="translate(-1043.583 -1400.334)" fill="#fff"></path><path id="Trazado_50045" data-name="Trazado 50045" d="M1120.185,1404.035a3.267,3.267,0,1,1-3.267-3.248A3.214,3.214,0,0,1,1120.185,1404.035Zm-.435,0a2.832,2.832,0,1,0-2.832,2.861A2.8,2.8,0,0,0,1119.75,1404.035Zm-1.737-4.692-1.266,1.189-.3-.17,1.095-1.256Z" transform="translate(-1047.737 -1399.106)" fill="#fff"></path><path id="Trazado_50046" data-name="Trazado 50046" d="M1134.147,1408.351v-6.363l5.287,5.533v-5.467h.415v6.458l-5.287-5.533v5.372Z" transform="translate(-1056.144 -1400.288)" fill="#fff"></path><path id="Trazado_50047" data-name="Trazado 50047" d="M1005.375,1420.007h-2.511v1.6h2.436v.906h-2.436v1.983h2.511v.906H1001.9v-6.3h3.475Z" transform="translate(-1001.9 -1407.307)" fill="#fff"></path><path id="Trazado_50048" data-name="Trazado 50048" d="M1011.562,1422.112l-1.737-3.012h1.076l1.227,2.134,1.256-2.134h1.076l-1.813,3.012,1.9,3.285h-1.076l-1.378-2.408-1.436,2.408h-1.076Z" transform="translate(-1005.05 -1407.307)" fill="#fff"></path><path id="Trazado_50049" data-name="Trazado 50049" d="M1021.625,1419.1a2.459,2.459,0,0,1,1.378.34,1.822,1.822,0,0,1,.783,1.529,1.763,1.763,0,0,1-.613,1.378,2.276,2.276,0,0,1-1.54.491h-.434v2.559h-.963v-6.3Zm-.425,2.851h.434c.831,0,1.228-.406,1.228-.991,0-.349-.142-.973-1.237-.973h-.425Z" transform="translate(-1009.421 -1407.307)" fill="#fff"></path><path id="Trazado_50050" data-name="Trazado 50050" d="M1034.756,1422.175a3.276,3.276,0,1,1-3.276-3.267A3.195,3.195,0,0,1,1034.756,1422.175Zm-.963,0a2.314,2.314,0,1,0-2.313,2.379A2.254,2.254,0,0,0,1033.793,1422.175Z" transform="translate(-1012.689 -1407.228)" fill="#fff"></path><path id="Trazado_50051" data-name="Trazado 50051" d="M1045.366,1422.317h2.643a3.39,3.39,0,0,1-.642,2.068,2.914,2.914,0,0,1-2.369,1.057,3.161,3.161,0,0,1-3.258-3.238,3.209,3.209,0,0,1,3.286-3.248,3.056,3.056,0,0,1,1.973.679,3.632,3.632,0,0,1,.755.793l-.331.264a2.9,2.9,0,0,0-.6-.7,2.829,2.829,0,0,0-4.645,2.228,2.78,2.78,0,0,0,2.813,2.842,2.616,2.616,0,0,0,2.191-1.067,2.825,2.825,0,0,0,.415-1.3h-2.228Z" transform="translate(-1018.241 -1407.248)" fill="#fff"></path><path id="Trazado_50052" data-name="Trazado 50052" d="M1055.883,1419.1v3.937a2.38,2.38,0,0,0,.264,1.36,1.836,1.836,0,0,0,2.927,0,2.376,2.376,0,0,0,.264-1.36V1419.1h.416v3.937a2.588,2.588,0,0,1-.359,1.615,2.3,2.3,0,0,1-3.569,0,2.588,2.588,0,0,1-.359-1.615V1419.1Z" transform="translate(-1023.872 -1407.307)" fill="#fff"></path><path id="Trazado_50053" data-name="Trazado 50053" d="M1069.171,1423.2h-2.681l-.841,2.067h-.454l2.653-6.486,2.615,6.486h-.453Zm-.151-.377-1.18-2.984-1.2,2.984Z" transform="translate(-1027.862 -1407.176)" fill="#fff"></path><path id="Trazado_50054" data-name="Trazado 50054" d="M1076.588,1425.4v-6.3h1.246a3.179,3.179,0,0,1,2.323.878,3.3,3.3,0,0,1,0,4.541,3.18,3.18,0,0,1-2.323.878Zm.415-.378h.822a2.771,2.771,0,1,0,0-5.542H1077Z" transform="translate(-1032.535 -1407.307)" fill="#fff"></path><path id="Trazado_50055" data-name="Trazado 50055" d="M1089.7,1423.2h-2.681l-.841,2.067h-.453l2.653-6.486,2.615,6.486h-.452Zm-.151-.377-1.18-2.984-1.2,2.984Z" transform="translate(-1036.282 -1407.176)" fill="#fff"></path><path id="Trazado_50056" data-name="Trazado 50056" d="M1097.531,1419.1v5.92h1.757v.378h-2.172v-6.3Z" transform="translate(-1040.955 -1407.307)" fill="#fff"></path><path id="Trazado_50057" data-name="Trazado 50057" d="M1106.354,1423.2h-2.681l-.841,2.067h-.453l2.653-6.486,2.615,6.486h-.453Zm-.151-.377-1.18-2.984-1.2,2.984Z" transform="translate(-1043.114 -1407.176)" fill="#fff"></path><path id="Trazado_50058" data-name="Trazado 50058" d="M1114.275,1419.1v5.07a1.428,1.428,0,0,1-.311,1.039,1.06,1.06,0,0,1-.784.293,1,1,0,0,1-.689-.235,1.724,1.724,0,0,1-.368-.425l.292-.245a1.11,1.11,0,0,0,.292.359.8.8,0,0,0,.491.17.653.653,0,0,0,.453-.18.939.939,0,0,0,.207-.708V1419.1Z" transform="translate(-1047.11 -1407.307)" fill="#fff"></path><path id="Trazado_50059" data-name="Trazado 50059" d="M1122.209,1423.2h-2.681l-.84,2.067h-.454l2.653-6.486,2.615,6.486h-.453Zm-.151-.377-1.18-2.984-1.2,2.984Z" transform="translate(-1049.616 -1407.176)" fill="#fff"></path><path id="Trazado_50060" data-name="Trazado 50060" d="M1132.271,1425.4l-2.04-2.974h-.189v2.974h-.415v-6.3h.906a2.2,2.2,0,0,1,1.332.322,1.568,1.568,0,0,1,.651,1.35,1.513,1.513,0,0,1-1.057,1.529,2.394,2.394,0,0,1-.774.123l2.058,2.974Zm-2.229-3.351h.6c.9,0,1.436-.472,1.436-1.284a1.171,1.171,0,0,0-.557-1.095,2.246,2.246,0,0,0-.963-.189h-.52Z" transform="translate(-1054.29 -1407.307)" fill="#fff"></path><path id="Trazado_50061" data-name="Trazado 50061" d="M1140.177,1423.2H1137.5l-.841,2.067h-.453l2.653-6.486,2.615,6.486h-.453Zm-.15-.377-1.18-2.984-1.2,2.984Z" transform="translate(-1056.986 -1407.176)" fill="#fff"></path></g><path id="Trazado_50062" data-name="Trazado 50062" d="M1061.355,1345.455l-5.754,6.251-7.579-7.579h27.232l-19.653-19.653-19.877,19.877,19.877,19.877,18.772-18.772Z" transform="translate(-15.971)" fill="#fff" opacity="0.5"></path><path id="Trazado_50063" data-name="Trazado 50063" d="M1070.746,1345.455l-5.754,6.251-7.579-7.579h27.233l-19.653-19.653-7.617,7.617-12.26,12.26,19.877,19.877,18.772-18.772Z" transform="translate(-19.823)" fill="#fff"></path><line id="L&#xED;nea_7" data-name="L&#xED;nea 7" x2="91.373" transform="translate(996.786 1377.922)" fill="none" stroke="#fff" stroke-miterlimit="10" stroke-width="0.5"></line><path id="Trazado_50064" data-name="Trazado 50064" d="M1072.218,1327.232l-2.758-2.758h5.516Z" transform="translate(-29.808)" fill="#fff" opacity="0.25"></path><path id="Trazado_50065" data-name="Trazado 50065" d="M1072.218,1387.2l2.758,2.758h-5.516Z" transform="translate(-29.808 -25.727)" fill="#fff" opacity="0.25"></path></g></svg>