<svg xmlns="http://www.w3.org/2000/svg" width="109.564" height="58.701" viewBox="0 0 109.564 58.701"><g id="Grupo_2508" data-name="Grupo 2508" transform="translate(-420.117 -673.019)"><g id="Grupo_2494" data-name="Grupo 2494" transform="translate(420.117 685.603)"><path id="Trazado_50002" data-name="Trazado 50002" d="M441.783,696.18c.041.106.115.272.168.381.043.038.083.079.124.119-.052-.111-.1-.2-.138-.284s-.067-.16-.1-.238c-.1-.128-.1-.082-.057.022" transform="translate(-425.79 -691.65)" fill="#fff"></path><path id="Trazado_50003" data-name="Trazado 50003" d="M437.452,696.611a1.231,1.231,0,0,0-.145-.331c-.023-.032-.041-.048-.056-.05-.024-.089-.04-.176.051.033a4.3,4.3,0,0,0-.168-.553c-.033-.082-.044-.083-.055-.067s-.02.047-.049.033a.748.748,0,0,1-.173-.239l.111.2.1.209c.064.126.118.254.173.383-.01,0-.018.013-.021.033.021.116.027.235.041.369a2.151,2.151,0,0,0,.036.212,1.981,1.981,0,0,0,.061.249c-.025,0,0,.149,0,.257s-.013.171-.088.005a3.47,3.47,0,0,0-.288-.959c-.117-.261-.233-.5-.345-.808l-.151-.169c-.024-.058-.069-.133-.118-.221s-.1-.184-.168-.281c-.034-.052-.066-.106-.1-.159s-.078-.134-.119-.2a1.871,1.871,0,0,1-.1-.2c-.262-.432-.226-.439-.1-.339.061.05.141.127.212.192s.125.12.147.118c-.067-.127-.143-.248-.219-.37s-.155-.241-.238-.359a7.233,7.233,0,0,1-.851-.986,2.2,2.2,0,0,0-.916-.762l.1.01c.215.12.213.06.121-.06a2.138,2.138,0,0,0-.435-.379l-.258-.11a1.643,1.643,0,0,1-.454-.145c-.182-.072-.385-.174-.608-.267a6.448,6.448,0,0,0-1.372-.456c-.178-.048-.242-.1-.082-.076a8.634,8.634,0,0,0-.922-.255.494.494,0,0,1-.241.055,1.523,1.523,0,0,1-.287-.027c-.1-.019-.218-.037-.342-.051a1.966,1.966,0,0,0-.4-.013c-.1.023-.177.044-.249.066l-.208.072c-.139.044-.291.1-.54.154a4.822,4.822,0,0,0-1.622.336c-.469.175-.9.371-1.454.582a.719.719,0,0,1-.135.181c-.058.067-.12.134-.163.189-.086.11-.089.172.182.1a9.861,9.861,0,0,0-1.448.9,6.55,6.55,0,0,0-1.223,1.189c-.028.08-.061.164-.087.241.019.1.027.244.041.4a8.268,8.268,0,0,0-1.068,2.661c-.021.032-.044.066-.065.1a5.735,5.735,0,0,0-.508,1.7,6.829,6.829,0,0,0,.036,2.148c.065.134.125.27.2.408s.14.283.221.432l.053.232.063.229c.04.155.09.305.143.457a6.213,6.213,0,0,0,.795,1.224c.075.092.156.174.232.255a2.686,2.686,0,0,0,.232.221c.078.066.152.127.224.181a2.12,2.12,0,0,0,.212.132c.1.142.073.165.177.3a2.559,2.559,0,0,1,.24.192l.285.235a3.281,3.281,0,0,0,.3.216,1.107,1.107,0,0,0,.274.14,2.827,2.827,0,0,1,.448.568c.426.2.889.475,1.384.694a4.263,4.263,0,0,0,1.493.4.845.845,0,0,0,.389.152,3.454,3.454,0,0,0,.513.023c.179-.005.359-.009.527-.008a1.689,1.689,0,0,1,.242.023.875.875,0,0,1,.215.055,4.8,4.8,0,0,0,1.5-.148,2.079,2.079,0,0,0,.84-.389c.007.021-.063.083-.082.131s.016.089.233.048a1.513,1.513,0,0,0,.234-.121c.041-.012.251-.072.478-.149a2.042,2.042,0,0,0,.563-.284c.083-.071.1-.1.07-.113-.249.07-.321.029-.285-.075a2.182,2.182,0,0,1,.356-.477c.089-.1.185-.21.28-.325l.03-.035a8.243,8.243,0,0,0,2.067-1.831c-.026.052-.04.093-.026.109,0,.045.035.041.1,0a1.816,1.816,0,0,0,.226-.2,4.874,4.874,0,0,0,.484-.586c.153-.375-.2.165-.383.379l.093-.278c.02-.062.036-.124.054-.187.07-.111.138-.224.2-.338.031-.032.058-.049.071-.039.128-.127.149.114.281-.172.216-.4.173-.433.131-.446s-.1-.012.04-.356a.3.3,0,0,0-.045.033c.094-.23.176-.465.249-.7.021-.024.043-.049.063-.069.077-.085.15-.1.134.173.053-.132.1-.23.152-.342a1.558,1.558,0,0,0,.129-.437,11.984,11.984,0,0,1,.116-1.286,4.38,4.38,0,0,0,.024-1.2c-.015.129-.066-.058-.1-.083a2.6,2.6,0,0,1,0-.367.38.38,0,0,1,.035-.164c.035-.058.092-.031.142-.018s.092.012.1-.108a2.693,2.693,0,0,0-.168-.812" transform="translate(-420.117 -690.075)" fill="#fff" opacity="0.5"></path><path id="Trazado_50004" data-name="Trazado 50004" d="M421.578,708.868c-.1-.128-.2-.248-.29-.375a3.674,3.674,0,0,1-.481-.856c-.026.013-.023.075,0,.163a3.27,3.27,0,0,0,.116.324c.047.123.112.246.164.359l.128.274c.352.429.853.827.677.508-.1-.143-.213-.269-.313-.4" transform="translate(-420.293 -694.68)" fill="#fff"></path><path id="Trazado_50005" data-name="Trazado 50005" d="M442.268,695.868c.038,0,.069-.027.179.162-.127-.231-.269-.452-.415-.671.007.064.009.133.012.2.145.283.187.31.224.31" transform="translate(-425.863 -691.461)" fill="#fff"></path><path id="Trazado_50006" data-name="Trazado 50006" d="M432.883,701.113a4.4,4.4,0,0,1,.88-.716c4.074-1.648,8.28-2.648,12.682-1.842,4.248.778,6.816,3.641,7.459,7.937a37.652,37.652,0,0,1-.764,12.914c-.353,1.8-.8,3.581-1.2,5.373a.736.736,0,0,0,.116.574c.194-.319.415-.625.581-.959a145.917,145.917,0,0,1,12.228-20.243c1.36-1.9,2.2-1.9,3.581-.026a3.544,3.544,0,0,1,.52,3.1c-.649,2.844-1.234,5.7-1.848,8.557.084.033.166.066.251.1.122-.186.26-.365.364-.561a82.163,82.163,0,0,1,7.409-11.5c.764-1.007,1.3-1.027,2.147-.131a3.12,3.12,0,0,1,.784,3.079c-1.052,4.727-2.071,9.465-2.993,14.218-.739,3.821-.124,7.6.631,11.361.15.759.269,1.529.477,2.272a2.415,2.415,0,0,1-.637,2.456,1.438,1.438,0,0,1-.976.509c-.229-.026-.542-.51-.593-.827-.3-1.752-.575-3.51-.758-5.278-.705-6.792.195-13.459,1.628-20.081.266-1.234.5-2.475.739-3.716a1.412,1.412,0,0,0-.119-.889,6.066,6.066,0,0,0-.5.621c-2.593,4.2-5.188,8.392-7.753,12.605-.609,1.006-1.03,1.064-1.774.142a2.829,2.829,0,0,1-.418-2.453q1.033-5.713,2.039-11.431a6.4,6.4,0,0,0,.012-1.117c-.108-.04-.212-.08-.319-.117a11.346,11.346,0,0,0-1,1.186c-2.646,4.2-5.321,8.382-7.889,12.626-1.574,2.6-2.97,5.308-4.452,7.966a6.212,6.212,0,0,1-.359.586c-.373.53-.66,1.274-1.493,1.031a1.814,1.814,0,0,1-1.456-1.628,17.052,17.052,0,0,1,.286-3.491c.736-3.916,1.786-7.791,1.839-11.8a24.72,24.72,0,0,0-.421-5.633,7.693,7.693,0,0,0-9.437-6.124,32.258,32.258,0,0,0-5,1.525,7,7,0,0,1-3.561.205,4.956,4.956,0,0,1-.922-.382" transform="translate(-423.464 -692.224)" fill="#fff"></path><path id="Trazado_50007" data-name="Trazado 50007" d="M501.51,722.3a13.568,13.568,0,0,1-.934,1.443c-1.016,1.193-2.012,2.417-3.137,3.5-.855.826-1.71.618-2.385-.371a4.425,4.425,0,0,1-.468-3.882,25.738,25.738,0,0,1,5.188-9.239,16.219,16.219,0,0,1,5.154-4.366,15.465,15.465,0,0,1,1.831-.637,2.916,2.916,0,0,1-2.071,2.987c.2.239.3.443.452.513.838.4.872,1.054.615,1.808-.575,1.68-1.2,3.346-1.721,5.043a6.012,6.012,0,0,0-.048,4,6.594,6.594,0,0,0,1.083-.886c.81-1.043,1.558-2.128,2.342-3.192.863-1.18,1.729-2.359,2.615-3.522a7.2,7.2,0,0,1,.956-.992c1.445-1.256,2.421-1.024,3.112.755.265.685.457,1.4.733,2.254.435-.687.816-1.27,1.177-1.863a11.548,11.548,0,0,1,5.927-4.627,4.139,4.139,0,0,1,1.236-.092,3.446,3.446,0,0,1-.195,1.273,2.917,2.917,0,0,1-1.25,1.289c-2.861.938-4.438,3.074-5.482,5.686-.764,1.913-1.352,3.9-2.04,5.842-.172.5-.085,1.259-.911,1.227-.539-.02-1.43-1.209-1.385-1.8a5.237,5.237,0,0,1,.274-1.075,12.671,12.671,0,0,0,.6-6.014,3.914,3.914,0,0,0-.406-.9,2.827,2.827,0,0,0-.874.463c-.728.848-1.433,1.718-2.077,2.629-1.374,1.947-2.672,3.946-4.062,5.88a1.782,1.782,0,0,1-3.287-.512,20.513,20.513,0,0,1-.567-2.622m1.752-8.41c-.085-.068-.169-.138-.26-.207a5.893,5.893,0,0,0-.942.8c-1.284,1.678-2.613,3.338-3.778,5.1a26.6,26.6,0,0,0-1.941,3.826,7.335,7.335,0,0,0-.322,1.652l.488.192a27.542,27.542,0,0,0,6.755-11.366" transform="translate(-439.58 -694.972)" fill="#fff"></path><path id="Trazado_50008" data-name="Trazado 50008" d="M564.079,707.956a3.013,3.013,0,0,1-2.269,2.754c.265.293.392.523.589.629a1.147,1.147,0,0,1,.514,1.613c-.562,1.5-1.111,3.009-1.721,4.495a5.816,5.816,0,0,0,.288,5.366,11.628,11.628,0,0,0,1.115,1.5c.59.719.523,1.127-.31,1.542a6.953,6.953,0,0,1-.872.369c-.906.311-1.363.119-1.636-.814-.424-1.444-.773-2.91-1.2-4.528a12.722,12.722,0,0,1-.905,1.349c-1.092,1.246-2.147,2.533-3.349,3.666-.928.879-1.811.624-2.469-.491a4.386,4.386,0,0,1-.251-3.745,26.323,26.323,0,0,1,6.368-10.007,13.363,13.363,0,0,1,4.807-3.414,9.58,9.58,0,0,1,1.3-.287m-3.614,4.656-.178-.122c-.33.252-.685.473-.987.753a28.227,28.227,0,0,0-5.067,6.8,17.144,17.144,0,0,0-1.188,2.566.738.738,0,1,0,1.12.725,27.564,27.564,0,0,0,6.159-9.924,5.155,5.155,0,0,0,.141-.794" transform="translate(-454.514 -694.763)" fill="#fff"></path><path id="Trazado_50009" data-name="Trazado 50009" d="M535.885,725.146c.528-.279.914-.491,1.306-.688,1.916-.968,3.837-1.921,5.745-2.906.226-.116.37-.395.55-.6a3.406,3.406,0,0,0-.784-.37c-.931-.173-1.885-.236-2.8-.453a2.052,2.052,0,0,1-1.639-2.789,5.807,5.807,0,0,1,.494-1.372,17.825,17.825,0,0,1,6.9-7.269,12.561,12.561,0,0,1,1.4-.563c-.169,1.3-.341,2.312-1.292,3.07a36.8,36.8,0,0,0-3.036,2.666,8.475,8.475,0,0,0-2.229,3.825c-.209.764.054.92.739.863.711-.061,1.431-.1,2.15-.089a6.881,6.881,0,0,1,1.622.174c.739.19,1.574.358,1.808,1.251a1.954,1.954,0,0,1-.86,1.943,18.494,18.494,0,0,1-6.679,3.974,3.59,3.59,0,0,1-3.388-.67" transform="translate(-450.471 -694.811)" fill="#fff"></path><path id="Trazado_50010" data-name="Trazado 50010" d="M533.355,717.361c-.041-.4-.094-1-.165-1.594-.107-.874.113-1.073.928-.828a2.116,2.116,0,0,1,1.746,2.56,17.61,17.61,0,0,1-.519,3.735c-.564,2.036-1.281,4.031-2,6.022-.381,1.06-.708,1.069-1.47.225a2.068,2.068,0,0,1-.279-2.169q.859-3.1,1.631-6.211a11.307,11.307,0,0,0,.128-1.739" transform="translate(-449.301 -696.568)" fill="#fff"></path><path id="Trazado_50011" data-name="Trazado 50011" d="M536.692,706.961c-.144.412-.361,1.089-.615,1.749-.22.566-.7.519-.886.094a26.283,26.283,0,0,1-1.216-3.428c-.127-.459.235-.789.776-.786a2.131,2.131,0,0,1,1.941,2.37" transform="translate(-449.964 -693.881)" fill="#fff"></path><path id="Trazado_50012" data-name="Trazado 50012" d="M518.521,742.563h.941c.659,0,1.04-.293,1.04-.862s-.381-.838-1.04-.838h-.941Zm.957-2.1c.9,0,1.428.449,1.428,1.229,0,.81-.523,1.276-1.428,1.276h-.957v1.155H518.1v-3.66Z" transform="translate(-445.809 -703.286)" fill="#fff"></path><path id="Trazado_50013" data-name="Trazado 50013" d="M524.216,742.287a1.491,1.491,0,1,0,1.5-1.443,1.476,1.476,0,0,0-1.5,1.443m3.409,0a1.918,1.918,0,1,1-1.914-1.841,1.872,1.872,0,0,1,1.914,1.841" transform="translate(-447.301 -703.282)" fill="#fff"></path><path id="Trazado_50014" data-name="Trazado 50014" d="M532.83,742.563c.664,0,1.04-.293,1.04-.862s-.376-.837-1.04-.837h-.972v1.7Zm.246.393c-.078.005-.162.01-.246.01h-.972v1.155h-.418v-3.66h1.391c.915,0,1.443.45,1.443,1.229a1.145,1.145,0,0,1-.821,1.186l.858,1.245h-.476Z" transform="translate(-449.305 -703.286)" fill="#fff"></path></g><path id="Trazado_50015" data-name="Trazado 50015" d="M542.275,740.863v3.258h-.418v-3.258h-1.192v-.4h2.808v.4Z" transform="translate(-31.607 -17.683)" fill="#fff"></path><rect id="Rect&#xE1;ngulo_193" data-name="Rect&#xE1;ngulo 193" width="0.418" height="3.661" transform="translate(513.517 722.777)" fill="#fff"></rect><g id="Grupo_2495" data-name="Grupo 2495" transform="translate(484.831 725.947)"><path id="Trazado_50016" data-name="Trazado 50016" d="M550.3,745.022a.4.4,0,0,1-.078.225l-.246.376h-.23l.173-.382a.249.249,0,0,1-.115-.225.246.246,0,0,1,.246-.261.248.248,0,0,1,.251.266" transform="translate(-518.818 -744.756)" fill="#fff"></path><path id="Trazado_50017" data-name="Trazado 50017" d="M510.9,749.745a1.537,1.537,0,0,1-3.074,0v-2.155h.418v2.155a1.119,1.119,0,1,0,2.238,0v-2.155h.418Z" transform="translate(-507.828 -745.499)" fill="#fff"></path></g><path id="Trazado_50018" data-name="Trazado 50018" d="M517.415,751.251l-2.2-2.938v2.938H514.8v-3.66h.434l2.2,2.944v-2.944h.413v3.66Z" transform="translate(-24.826 -19.553)" fill="#fff"></path><g id="Grupo_2496" data-name="Grupo 2496" transform="translate(497.31 728.028)"><path id="Trazado_50019" data-name="Trazado 50019" d="M527.99,748.11l-.251.319a1.538,1.538,0,0,0-1.082-.46,1.444,1.444,0,1,0,0,2.886,1.6,1.6,0,0,0,1.082-.44l.256.288a2.021,2.021,0,0,1-1.36.565,1.847,1.847,0,1,1,.016-3.692,1.978,1.978,0,0,1,1.338.533" transform="translate(-524.743 -747.577)" fill="#fff"></path></g><path id="Trazado_50020" data-name="Trazado 50020" d="M532.69,748.066l-.816,1.857h1.642Zm-.994,2.259-.408.926h-.444l1.641-3.661h.434l1.637,3.661H534.1l-.408-.926Z" transform="translate(-29.032 -19.552)" fill="#fff"></path><path id="Trazado_50021" data-name="Trazado 50021" d="M541.387,751.251l-.005-3.017-1.333,2.631H539.8l-1.328-2.631v3.017h-.4v-3.66h.517l1.339,2.635,1.333-2.635h.513v3.66Z" transform="translate(-30.927 -19.553)" fill="#fff"></path><g id="Grupo_2497" data-name="Grupo 2497" transform="translate(513.005 728.039)"><path id="Trazado_50022" data-name="Trazado 50022" d="M546.433,750.854h1.1c.6,0,.941-.235.941-.654,0-.4-.344-.633-.941-.633h-1.1Zm0-1.684h1.1c.491,0,.779-.215.779-.6s-.288-.581-.779-.581h-1.1Zm1.124-1.58c.737,0,1.182.34,1.182.915a.8.8,0,0,1-.675.826.9.9,0,0,1,.837.926c0,.622-.492.993-1.318.993h-1.569v-3.66Z" transform="translate(-546.015 -747.591)" fill="#fff"></path></g><rect id="Rect&#xE1;ngulo_194" data-name="Rect&#xE1;ngulo 194" width="0.418" height="3.661" transform="translate(517.793 728.038)" fill="#fff"></rect><g id="Grupo_2498" data-name="Grupo 2498" transform="translate(429.536 691.649)"><path id="Trazado_50023" data-name="Trazado 50023" d="M555.948,749.417a1.491,1.491,0,1,0,1.5-1.443,1.475,1.475,0,0,0-1.5,1.443m3.409,0a1.918,1.918,0,1,1-1.914-1.841,1.872,1.872,0,0,1,1.914,1.841" transform="translate(-465.039 -711.198)" fill="#fff"></path><path id="Trazado_50024" data-name="Trazado 50024" d="M432.883,701.113a4.4,4.4,0,0,1,.88-.716c4.074-1.648,8.28-2.648,12.682-1.842,4.248.778,6.816,3.641,7.459,7.937a37.652,37.652,0,0,1-.764,12.914c-.353,1.8-.8,3.581-1.2,5.373a.736.736,0,0,0,.116.574c.194-.319.415-.625.581-.959a145.917,145.917,0,0,1,12.228-20.243c1.36-1.9,2.2-1.9,3.581-.026a3.544,3.544,0,0,1,.52,3.1c-.649,2.844-1.234,5.7-1.848,8.557.084.033.166.066.251.1.122-.186.26-.365.364-.561a82.163,82.163,0,0,1,7.409-11.5c.764-1.007,1.3-1.027,2.147-.131a3.12,3.12,0,0,1,.784,3.079c-1.052,4.727-2.071,9.465-2.993,14.218-.739,3.821-.124,7.6.631,11.361.15.759.269,1.529.477,2.272a2.415,2.415,0,0,1-.637,2.456,1.438,1.438,0,0,1-.976.509c-.229-.026-.542-.51-.593-.827-.3-1.752-.575-3.51-.758-5.278-.705-6.792.195-13.459,1.628-20.081.266-1.234.5-2.475.739-3.716a1.412,1.412,0,0,0-.119-.889,6.066,6.066,0,0,0-.5.621c-2.593,4.2-5.188,8.392-7.753,12.605-.609,1.006-1.03,1.064-1.774.142a2.829,2.829,0,0,1-.418-2.453q1.033-5.713,2.039-11.431a6.4,6.4,0,0,0,.012-1.117c-.108-.04-.212-.08-.319-.117a11.346,11.346,0,0,0-1,1.186c-2.646,4.2-5.321,8.382-7.889,12.626-1.574,2.6-2.97,5.308-4.452,7.966a6.212,6.212,0,0,1-.359.586c-.373.53-.66,1.274-1.493,1.031a1.814,1.814,0,0,1-1.456-1.628,17.052,17.052,0,0,1,.286-3.491c.736-3.916,1.786-7.791,1.839-11.8a24.72,24.72,0,0,0-.421-5.633,7.693,7.693,0,0,0-9.437-6.124,32.258,32.258,0,0,0-5,1.525,7,7,0,0,1-3.561.205,4.956,4.956,0,0,1-.922-.382" transform="translate(-432.883 -698.27)" fill="#fff"></path><path id="Trazado_50025" data-name="Trazado 50025" d="M501.51,722.3a13.568,13.568,0,0,1-.934,1.443c-1.016,1.193-2.012,2.417-3.137,3.5-.855.826-1.71.618-2.385-.371a4.425,4.425,0,0,1-.468-3.882,25.738,25.738,0,0,1,5.188-9.239,16.219,16.219,0,0,1,5.154-4.366,15.465,15.465,0,0,1,1.831-.637,2.916,2.916,0,0,1-2.071,2.987c.2.239.3.443.452.513.838.4.872,1.054.615,1.808-.575,1.68-1.2,3.346-1.721,5.043a6.012,6.012,0,0,0-.048,4,6.594,6.594,0,0,0,1.083-.886c.81-1.043,1.558-2.128,2.342-3.192.863-1.18,1.729-2.359,2.615-3.522a7.2,7.2,0,0,1,.956-.992c1.445-1.256,2.421-1.024,3.112.755.265.685.457,1.4.733,2.254.435-.687.816-1.27,1.177-1.863a11.548,11.548,0,0,1,5.927-4.627,4.139,4.139,0,0,1,1.236-.092,3.446,3.446,0,0,1-.195,1.273,2.917,2.917,0,0,1-1.25,1.289c-2.861.938-4.438,3.074-5.482,5.686-.764,1.913-1.352,3.9-2.04,5.842-.172.5-.085,1.259-.911,1.227-.539-.02-1.43-1.209-1.385-1.8a5.237,5.237,0,0,1,.274-1.075,12.671,12.671,0,0,0,.6-6.014,3.914,3.914,0,0,0-.406-.9,2.827,2.827,0,0,0-.874.463c-.728.848-1.433,1.718-2.077,2.629-1.374,1.947-2.672,3.946-4.062,5.88a1.782,1.782,0,0,1-3.287-.512,20.513,20.513,0,0,1-.567-2.622m1.752-8.41c-.085-.068-.169-.138-.26-.207a5.893,5.893,0,0,0-.942.8c-1.284,1.678-2.613,3.338-3.778,5.1a26.6,26.6,0,0,0-1.941,3.826,7.335,7.335,0,0,0-.322,1.652l.488.192a27.542,27.542,0,0,0,6.755-11.366" transform="translate(-448.999 -701.019)" fill="#fff"></path><path id="Trazado_50026" data-name="Trazado 50026" d="M564.079,707.956a3.013,3.013,0,0,1-2.269,2.754c.265.293.392.523.589.629a1.147,1.147,0,0,1,.514,1.613c-.562,1.5-1.111,3.009-1.721,4.495a5.816,5.816,0,0,0,.288,5.366,11.628,11.628,0,0,0,1.115,1.5c.59.719.523,1.127-.31,1.542a6.953,6.953,0,0,1-.872.369c-.906.311-1.363.119-1.636-.814-.424-1.444-.773-2.91-1.2-4.528a12.722,12.722,0,0,1-.905,1.349c-1.092,1.246-2.147,2.533-3.349,3.666-.928.879-1.811.624-2.469-.491a4.386,4.386,0,0,1-.251-3.745,26.323,26.323,0,0,1,6.368-10.007,13.363,13.363,0,0,1,4.807-3.414,9.58,9.58,0,0,1,1.3-.287m-3.614,4.656-.178-.122c-.33.252-.685.473-.987.753a28.227,28.227,0,0,0-5.067,6.8,17.144,17.144,0,0,0-1.188,2.566.738.738,0,1,0,1.12.725,27.564,27.564,0,0,0,6.159-9.924,5.155,5.155,0,0,0,.141-.794" transform="translate(-463.933 -700.81)" fill="#fff"></path><path id="Trazado_50027" data-name="Trazado 50027" d="M535.885,725.146c.528-.279.914-.491,1.306-.688,1.916-.968,3.837-1.921,5.745-2.906.226-.116.37-.395.55-.6a3.406,3.406,0,0,0-.784-.37c-.931-.173-1.885-.236-2.8-.453a2.052,2.052,0,0,1-1.639-2.789,5.807,5.807,0,0,1,.494-1.372,17.825,17.825,0,0,1,6.9-7.269,12.561,12.561,0,0,1,1.4-.563c-.169,1.3-.341,2.312-1.292,3.07a36.8,36.8,0,0,0-3.036,2.666,8.475,8.475,0,0,0-2.229,3.825c-.209.764.054.92.739.863.711-.061,1.431-.1,2.15-.089a6.881,6.881,0,0,1,1.622.174c.739.19,1.574.358,1.808,1.251a1.954,1.954,0,0,1-.86,1.943,18.494,18.494,0,0,1-6.679,3.974,3.59,3.59,0,0,1-3.388-.67" transform="translate(-459.89 -700.858)" fill="#fff"></path><path id="Trazado_50028" data-name="Trazado 50028" d="M533.355,717.361c-.041-.4-.094-1-.165-1.594-.107-.874.113-1.073.928-.828a2.116,2.116,0,0,1,1.746,2.56,17.61,17.61,0,0,1-.519,3.735c-.564,2.036-1.281,4.031-2,6.022-.381,1.06-.708,1.069-1.47.225a2.068,2.068,0,0,1-.279-2.169q.859-3.1,1.631-6.211a11.307,11.307,0,0,0,.128-1.739" transform="translate(-458.72 -702.615)" fill="#fff"></path><path id="Trazado_50029" data-name="Trazado 50029" d="M536.692,706.961c-.144.412-.361,1.089-.615,1.749-.22.566-.7.519-.886.094a26.283,26.283,0,0,1-1.216-3.428c-.127-.459.235-.789.776-.786a2.131,2.131,0,0,1,1.941,2.37" transform="translate(-459.382 -699.927)" fill="#fff"></path></g><path id="Trazado_50030" data-name="Trazado 50030" d="M434.326,677.561v2.946h3.916v.922h-3.916v3.593h-.958v-8.384h5.33v.922Z" transform="translate(-3.474 -0.949)" fill="#fff"></path><g id="Grupo_2499" data-name="Grupo 2499" transform="translate(436.445 675.691)"><path id="Trazado_50031" data-name="Trazado 50031" d="M449.289,681.574a3.521,3.521,0,0,1-7.042,0V676.64h.958v4.934a2.563,2.563,0,1,0,5.125,0V676.64h.958Z" transform="translate(-442.247 -676.64)" fill="#fff"></path></g><path id="Trazado_50032" data-name="Trazado 50032" d="M460.959,685.022l-5.03-6.731v6.731h-.958V676.64h.995l5.03,6.742V676.64h.946v8.383Z" transform="translate(-9.139 -0.949)" fill="#fff"></path><g id="Grupo_2500" data-name="Grupo 2500" transform="translate(455.353 675.69)"><path id="Trazado_50033" data-name="Trazado 50033" d="M468.833,684.111h2.443a3.276,3.276,0,1,0-.035-6.55h-2.407Zm2.431-7.472a4.194,4.194,0,1,1-.036,8.383h-3.353v-8.383Z" transform="translate(-467.875 -676.639)" fill="#fff"></path></g><path id="Trazado_50034" data-name="Trazado 50034" d="M482.978,677.729l-1.868,4.251h3.76ZM480.7,682.9l-.934,2.12H478.75l3.761-8.383h.994l3.749,8.383h-1.042l-.935-2.12Z" transform="translate(-15.373 -0.949)" fill="#fff"></path><g id="Grupo_2501" data-name="Grupo 2501" transform="translate(472.202 675.666)"><path id="Trazado_50035" data-name="Trazado 50035" d="M498.149,677.828l-.575.73A3.524,3.524,0,0,0,495.1,677.5a3.307,3.307,0,1,0,0,6.61,3.655,3.655,0,0,0,2.479-1.006l.587.659a4.631,4.631,0,0,1-3.114,1.293,4.23,4.23,0,1,1,.036-8.455,4.535,4.535,0,0,1,3.066,1.222" transform="translate(-490.712 -676.606)" fill="#fff"></path></g><rect id="Rect&#xE1;ngulo_195" data-name="Rect&#xE1;ngulo 195" width="0.958" height="8.383" transform="translate(481.375 675.69)" fill="#fff"></rect><g id="Grupo_2502" data-name="Grupo 2502" transform="translate(484.082 673.019)"><path id="Trazado_50036" data-name="Trazado 50036" d="M511.424,674.648h-.9l1.437-1.629.946.455Zm-3.64,5.233a3.415,3.415,0,1,0,3.425-3.305,3.379,3.379,0,0,0-3.425,3.305m7.808,0a4.393,4.393,0,1,1-4.383-4.216,4.288,4.288,0,0,1,4.383,4.216" transform="translate(-506.813 -673.019)" fill="#fff"></path></g><path id="Trazado_50037" data-name="Trazado 50037" d="M527.068,685.022l-5.03-6.731v6.731h-.958V676.64h.994l5.03,6.742V676.64h.946v8.383Z" transform="translate(-26.472 -0.949)" fill="#fff"></path></g></svg>