<svg xmlns="http://www.w3.org/2000/svg" xmlns:xlink="http://www.w3.org/1999/xlink" width="50px" height="85px" viewBox="0 0 50 85"><g id="surface1"><path style=" stroke:none;fill-rule:evenodd;fill:rgb(100%,100%,100%);fill-opacity:1;" d="M 48.394531 25.316406 C 47.605469 24.984375 46.683594 23.789062 45.746094 24.394531 C 45.808594 23.992188 45.765625 23.578125 45.628906 23.195312 C 45.578125 23.136719 45.527344 23.078125 45.480469 23.011719 C 45.441406 22.984375 45.402344 22.957031 45.355469 22.9375 L 45.316406 22.898438 C 44.785156 22.683594 44.207031 22.757812 43.660156 22.597656 C 43.449219 22.488281 43.25 22.367188 43.058594 22.226562 C 42.972656 22.558594 42.929688 22.90625 42.933594 23.25 C 42.949219 23.292969 42.964844 23.347656 42.980469 23.398438 C 43.011719 23.421875 43.035156 23.457031 43.046875 23.496094 C 43.183594 23.601562 43.300781 23.726562 43.449219 23.816406 C 43.683594 23.902344 43.929688 23.964844 44.175781 23.996094 C 44.222656 24.023438 44.265625 24.050781 44.3125 24.070312 C 44.332031 24.089844 44.355469 24.105469 44.378906 24.117188 C 44.386719 24.140625 44.40625 24.164062 44.425781 24.179688 C 44.433594 24.207031 44.441406 24.234375 44.453125 24.257812 L 44.453125 24.425781 L 44.4375 24.46875 L 44.414062 24.492188 L 44.402344 24.527344 C 44.382812 24.550781 44.363281 24.566406 44.339844 24.578125 L 44.3125 24.613281 C 44.289062 24.628906 44.261719 24.648438 44.238281 24.667969 L 44.183594 24.679688 L 44.152344 24.703125 C 43.535156 24.792969 42.902344 24.667969 42.367188 24.355469 C 42.320312 24.988281 42.316406 25.625 42.355469 26.257812 C 42.785156 26.101562 44.234375 25.414062 44.453125 26.246094 L 44.453125 26.320312 C 44.433594 26.363281 44.417969 26.402344 44.402344 26.445312 C 44.382812 26.488281 44.347656 26.503906 44.328125 26.53125 L 44.289062 26.546875 L 44.261719 26.570312 C 43.828125 26.765625 43.199219 26.570312 42.871094 26.96875 L 42.855469 26.992188 L 42.832031 27.019531 C 42.652344 27.449219 42.792969 27.894531 42.921875 28.308594 C 43.105469 28.128906 43.324219 27.992188 43.570312 27.910156 C 44.105469 27.8125 44.6875 27.933594 45.214844 27.769531 C 45.304688 27.734375 45.386719 27.6875 45.464844 27.625 C 45.488281 27.585938 45.519531 27.550781 45.550781 27.523438 L 45.566406 27.5 L 45.605469 27.460938 C 45.773438 27.066406 45.8125 26.632812 45.714844 26.214844 C 46.566406 26.738281 47.714844 25.738281 48.394531 25.316406 Z M 48.394531 25.316406 "></path><path style=" stroke:none;fill-rule:evenodd;fill:rgb(100%,100%,100%);fill-opacity:1;" d="M 5.828125 24.292969 L 5.828125 24.210938 C 5.847656 24.171875 5.863281 24.125 5.878906 24.082031 L 5.957031 23.996094 L 5.996094 23.988281 L 6.019531 23.960938 C 6.449219 23.765625 7.082031 23.960938 7.410156 23.5625 L 7.410156 23.539062 L 7.4375 23.511719 C 7.621094 23.09375 7.476562 22.632812 7.351562 22.222656 C 7.167969 22.402344 6.945312 22.535156 6.703125 22.621094 C 6.160156 22.71875 5.585938 22.601562 5.058594 22.757812 C 4.972656 22.796875 4.886719 22.847656 4.808594 22.90625 C 4.785156 22.945312 4.753906 22.980469 4.71875 23.007812 L 4.707031 23.03125 L 4.667969 23.070312 C 4.503906 23.464844 4.460938 23.902344 4.558594 24.320312 C 3.691406 23.800781 2.550781 24.804688 1.871094 25.222656 C 2.652344 25.558594 3.582031 26.75 4.515625 26.144531 C 4.457031 26.546875 4.496094 26.960938 4.628906 27.34375 C 4.683594 27.402344 4.734375 27.464844 4.785156 27.527344 C 4.824219 27.554688 4.863281 27.582031 4.910156 27.605469 L 4.945312 27.640625 C 5.480469 27.855469 6.058594 27.777344 6.601562 27.9375 C 6.8125 28.050781 7.015625 28.171875 7.207031 28.3125 C 7.292969 27.980469 7.332031 27.636719 7.332031 27.292969 C 7.3125 27.246094 7.296875 27.191406 7.28125 27.144531 C 7.25 27.117188 7.230469 27.082031 7.21875 27.042969 C 7.078125 26.9375 6.964844 26.8125 6.816406 26.722656 C 6.582031 26.640625 6.335938 26.582031 6.089844 26.546875 C 6.042969 26.519531 5.996094 26.492188 5.949219 26.472656 C 5.929688 26.449219 5.910156 26.433594 5.886719 26.421875 C 5.878906 26.398438 5.863281 26.378906 5.847656 26.359375 C 5.839844 26.335938 5.828125 26.308594 5.816406 26.285156 L 5.816406 26.246094 L 5.808594 26.21875 L 5.808594 26.1875 L 5.816406 26.148438 L 5.816406 26.109375 L 5.832031 26.074219 L 5.855469 26.050781 L 5.871094 26.011719 L 5.933594 25.960938 L 5.957031 25.925781 C 5.984375 25.910156 6.007812 25.890625 6.035156 25.878906 L 6.082031 25.863281 L 6.121094 25.835938 C 6.738281 25.746094 7.367188 25.871094 7.902344 26.1875 C 7.949219 25.554688 7.957031 24.914062 7.917969 24.28125 C 7.492188 24.425781 6.046875 25.125 5.828125 24.292969 Z M 5.828125 24.292969 "></path><path style=" stroke:none;fill-rule:evenodd;fill:rgb(100%,100%,100%);fill-opacity:1;" d="M 28.035156 56.273438 C 27.78125 56.042969 27.441406 55.9375 27.097656 55.972656 C 26.757812 56.011719 26.449219 56.195312 26.253906 56.472656 C 26.4375 56.511719 26.605469 56.617188 26.71875 56.765625 C 26.734375 56.804688 26.757812 56.835938 26.785156 56.867188 C 26.804688 56.9375 26.828125 57.011719 26.859375 57.082031 C 26.886719 57.238281 26.863281 57.398438 26.796875 57.542969 L 26.691406 57.660156 C 26.652344 57.675781 26.621094 57.695312 26.589844 57.722656 C 26.550781 57.730469 26.511719 57.742188 26.472656 57.761719 C 25.550781 57.675781 25.878906 56.558594 26.019531 55.992188 L 24.1875 55.992188 C 24.351562 56.457031 24.375 56.960938 24.253906 57.441406 C 24.152344 57.632812 23.953125 57.753906 23.734375 57.761719 C 23.640625 57.746094 23.554688 57.710938 23.476562 57.660156 C 23.453125 57.613281 23.425781 57.578125 23.386719 57.542969 C 23.246094 57.136719 23.46875 56.546875 23.929688 56.453125 C 23.765625 56.292969 23.578125 56.160156 23.375 56.054688 C 23.144531 55.988281 22.902344 55.964844 22.667969 55.992188 C 22.546875 56.035156 22.433594 56.085938 22.316406 56.132812 C 21.464844 56.773438 21.84375 57.984375 22.511719 58.582031 C 22.996094 59.011719 23.558594 59.359375 24.023438 59.828125 C 24.441406 60.25 24.800781 60.730469 25.078125 61.257812 C 25.457031 60.660156 25.902344 60.109375 26.417969 59.621094 C 26.941406 59.097656 27.691406 58.8125 28.097656 58.15625 C 28.4375 57.601562 28.609375 56.75 28.035156 56.273438 Z M 28.035156 56.273438 "></path><path style=" stroke:none;fill-rule:evenodd;fill:rgb(100%,100%,100%);fill-opacity:1;" d="M 39.910156 18.363281 L 10.371094 18.363281 C 10.058594 18.363281 9.753906 18.488281 9.53125 18.710938 C 9.308594 18.933594 9.183594 19.234375 9.183594 19.546875 L 9.183594 43.246094 C 9.246094 46.164062 10.550781 48.917969 12.769531 50.828125 C 14.753906 52.511719 17.457031 53.746094 20.378906 54.304688 C 21.910156 54.597656 23.464844 54.742188 25.027344 54.734375 C 26.371094 54.734375 27.71875 54.625 29.050781 54.402344 C 31.277344 54.027344 34.464844 53.171875 37.023438 51.214844 C 38.144531 50.371094 39.085938 49.324219 39.800781 48.125 C 40.582031 46.773438 41.019531 45.253906 41.082031 43.691406 L 41.097656 43.222656 L 41.097656 19.546875 C 41.097656 18.894531 40.566406 18.367188 39.910156 18.363281 Z M 40.480469 42.847656 L 40.480469 42.898438 L 40.460938 43.328125 C 40.402344 44.847656 39.976562 46.332031 39.214844 47.65625 C 38.527344 48.828125 37.613281 49.855469 36.523438 50.675781 C 34.066406 52.566406 31.007812 53.390625 28.875 53.753906 C 27.605469 53.96875 26.316406 54.078125 25.027344 54.078125 C 23.539062 54.074219 22.054688 53.933594 20.59375 53.644531 C 17.78125 53.105469 15.1875 51.910156 13.285156 50.285156 C 11.136719 48.417969 9.871094 45.746094 9.804688 42.910156 L 9.804688 20.417969 C 9.804688 20.050781 9.953125 19.695312 10.214844 19.429688 C 10.472656 19.171875 10.832031 19.023438 11.199219 19.023438 L 39.082031 19.023438 C 39.453125 19.023438 39.808594 19.171875 40.070312 19.429688 C 40.332031 19.695312 40.480469 20.050781 40.480469 20.417969 Z M 40.480469 42.847656 "></path><path style=" stroke:none;fill-rule:evenodd;fill:rgb(100%,100%,100%);fill-opacity:1;" d="M 27.277344 28.9375 L 27.042969 28.507812 L 26.792969 28.9375 L 26.574219 29.324219 C 26.429688 29.519531 26.433594 29.789062 26.578125 29.988281 C 26.722656 30.1875 26.980469 30.269531 27.214844 30.191406 C 27.449219 30.117188 27.609375 29.898438 27.609375 29.652344 C 27.609375 29.546875 27.578125 29.441406 27.519531 29.351562 Z M 27.277344 28.9375 "></path><path style=" stroke:none;fill-rule:evenodd;fill:rgb(100%,100%,100%);fill-opacity:1;" d="M 26.128906 30.710938 L 25.886719 31.125 L 25.667969 31.507812 C 25.597656 31.605469 25.558594 31.722656 25.558594 31.84375 C 25.558594 32.15625 25.816406 32.410156 26.132812 32.410156 C 26.449219 32.410156 26.707031 32.15625 26.707031 31.84375 C 26.707031 31.734375 26.675781 31.632812 26.617188 31.539062 L 26.375 31.125 Z M 26.128906 30.710938 "></path><path style=" stroke:none;fill-rule:evenodd;fill:rgb(100%,100%,100%);fill-opacity:1;" d="M 24.328125 41.074219 L 22.480469 41.074219 L 20.785156 42.71875 L 20.355469 44.1875 L 20.589844 44.253906 C 20.703125 44.289062 20.78125 44.390625 20.789062 44.507812 L 20.789062 44.566406 L 23.589844 44.566406 L 22.347656 42.71875 L 22.347656 41.609375 L 22.597656 41.367188 L 23.554688 41.367188 L 23.148438 42.71875 L 23.820312 44.15625 L 24.160156 44.253906 C 24.273438 44.289062 24.351562 44.390625 24.359375 44.507812 L 24.359375 44.566406 L 24.515625 44.566406 C 24.484375 44.496094 24.464844 44.425781 24.464844 44.347656 L 24.464844 41.179688 C 24.417969 41.144531 24.371094 41.113281 24.328125 41.074219 Z M 24.328125 41.074219 "></path><path style=" stroke:none;fill-rule:evenodd;fill:rgb(100%,100%,100%);fill-opacity:1;" d="M 28.277344 44.566406 L 26.929688 41.691406 L 25.980469 41.691406 C 25.859375 41.691406 25.742188 41.683594 25.625 41.664062 L 25.625 44.355469 C 25.625 44.433594 25.605469 44.503906 25.574219 44.574219 L 25.695312 44.574219 L 26.1875 41.996094 L 26.738281 41.996094 L 27.011719 42.566406 L 26.238281 44.1875 L 26.441406 44.242188 C 26.554688 44.28125 26.632812 44.382812 26.640625 44.5 L 26.640625 44.554688 Z M 28.277344 44.566406 "></path><path style=" stroke:none;fill-rule:evenodd;fill:rgb(100%,100%,100%);fill-opacity:1;" d="M 25.160156 28.9375 L 24.921875 28.507812 L 24.675781 28.9375 L 24.460938 29.324219 C 24.316406 29.519531 24.316406 29.789062 24.460938 29.988281 C 24.605469 30.1875 24.867188 30.269531 25.101562 30.191406 C 25.335938 30.117188 25.496094 29.898438 25.496094 29.652344 C 25.496094 29.546875 25.464844 29.441406 25.40625 29.351562 Z M 25.160156 28.9375 "></path><path style=" stroke:none;fill-rule:evenodd;fill:rgb(100%,100%,100%);fill-opacity:1;" d="M 23.964844 30.710938 L 23.722656 31.125 L 23.507812 31.507812 C 23.363281 31.710938 23.363281 31.976562 23.511719 32.171875 C 23.65625 32.371094 23.914062 32.453125 24.148438 32.378906 C 24.382812 32.304688 24.542969 32.085938 24.542969 31.84375 C 24.542969 31.734375 24.511719 31.632812 24.457031 31.539062 L 24.214844 31.125 Z M 23.964844 30.710938 "></path><path style=" stroke:none;fill-rule:evenodd;fill:rgb(100%,100%,100%);fill-opacity:1;" d="M 22.808594 30.210938 C 23.121094 30.210938 23.378906 29.957031 23.378906 29.644531 C 23.378906 29.539062 23.347656 29.433594 23.292969 29.34375 L 23.050781 28.9375 L 22.808594 28.507812 L 22.566406 28.9375 L 22.347656 29.324219 C 22.277344 29.417969 22.238281 29.53125 22.242188 29.652344 C 22.246094 29.960938 22.496094 30.207031 22.808594 30.210938 Z M 22.808594 30.210938 "></path><path style=" stroke:none;fill-rule:evenodd;fill:rgb(100%,100%,100%);fill-opacity:1;" d="M 28.535156 31.125 L 28.292969 30.710938 L 28.050781 31.125 L 27.832031 31.507812 C 27.707031 31.683594 27.691406 31.910156 27.789062 32.101562 C 27.886719 32.289062 28.085938 32.410156 28.300781 32.40625 C 28.613281 32.40625 28.867188 32.15625 28.867188 31.84375 C 28.867188 31.738281 28.839844 31.632812 28.785156 31.539062 Z M 28.535156 31.125 "></path><path style=" stroke:none;fill-rule:evenodd;fill:rgb(100%,100%,100%);fill-opacity:1;" d="M 22.042969 31.125 L 21.800781 30.710938 L 21.558594 31.125 L 21.339844 31.507812 C 21.273438 31.609375 21.234375 31.722656 21.234375 31.84375 C 21.234375 32.15625 21.488281 32.410156 21.804688 32.410156 C 22.121094 32.410156 22.375 32.15625 22.375 31.84375 C 22.375 31.734375 22.347656 31.632812 22.289062 31.539062 Z M 22.042969 31.125 "></path><path style=" stroke:none;fill-rule:evenodd;fill:rgb(100%,100%,100%);fill-opacity:1;" d="M 39.082031 19.566406 L 11.199219 19.566406 C 10.976562 19.566406 10.761719 19.65625 10.605469 19.816406 C 10.445312 19.976562 10.355469 20.191406 10.355469 20.417969 L 10.355469 42.886719 C 10.363281 43.449219 10.425781 44.011719 10.535156 44.566406 L 19.9375 44.566406 L 20.039062 42.699219 L 20.828125 41.019531 L 20.828125 40.402344 C 20.824219 40.015625 20.957031 39.640625 21.199219 39.339844 L 19.429688 39.339844 C 18.824219 39.34375 18.238281 39.121094 17.78125 38.726562 L 24.464844 38.726562 L 24.464844 36.363281 C 21.347656 36.054688 19.027344 33.375 19.179688 30.273438 C 19.335938 27.167969 21.914062 24.730469 25.042969 24.730469 C 28.175781 24.730469 30.753906 27.167969 30.910156 30.273438 C 31.0625 33.375 28.738281 36.054688 25.625 36.363281 L 25.625 38.726562 L 26.976562 38.726562 L 28.347656 37.902344 L 28.261719 37.761719 L 27.628906 38.027344 L 27.347656 38.027344 L 27.113281 37.199219 L 29.304688 37.199219 C 29.386719 37.210938 29.46875 37.238281 29.542969 37.273438 L 29.566406 37.285156 L 29.8125 37.398438 C 30.058594 37.507812 30.238281 37.722656 30.304688 37.980469 L 31.148438 38.386719 L 30.960938 38.785156 C 30.855469 39 30.644531 39.140625 30.40625 39.160156 L 28.566406 39.160156 L 28.566406 39.335938 L 29.128906 39.472656 L 28.085938 41.691406 L 28.582031 44.15625 L 28.917969 44.253906 C 29.027344 44.289062 29.105469 44.390625 29.113281 44.507812 L 29.113281 44.566406 L 39.769531 44.566406 C 39.847656 44.152344 39.894531 43.734375 39.910156 43.316406 L 39.929688 42.867188 L 39.929688 20.417969 C 39.933594 19.949219 39.550781 19.570312 39.082031 19.566406 Z M 26.824219 22.042969 C 26.824219 22.292969 26.613281 22.496094 26.359375 22.496094 L 25.613281 22.496094 L 25.613281 23.230469 C 25.613281 23.355469 25.566406 23.472656 25.480469 23.558594 C 25.394531 23.648438 25.277344 23.695312 25.152344 23.695312 L 24.976562 23.695312 C 24.722656 23.695312 24.515625 23.484375 24.515625 23.230469 L 24.515625 22.496094 L 23.773438 22.496094 C 23.519531 22.496094 23.308594 22.289062 23.308594 22.035156 L 23.308594 21.863281 C 23.308594 21.609375 23.515625 21.402344 23.773438 21.402344 L 24.515625 21.402344 L 24.515625 20.667969 C 24.515625 20.414062 24.722656 20.210938 24.976562 20.210938 L 25.152344 20.210938 C 25.410156 20.210938 25.613281 20.414062 25.613281 20.667969 L 25.613281 21.410156 L 26.359375 21.410156 C 26.480469 21.40625 26.601562 21.453125 26.6875 21.539062 C 26.777344 21.628906 26.824219 21.746094 26.824219 21.867188 Z M 26.824219 22.042969 "></path><path style=" stroke:none;fill-rule:evenodd;fill:rgb(100%,100%,100%);fill-opacity:1;" d="M 13.632812 49.894531 C 15.46875 51.457031 17.972656 52.609375 20.691406 53.128906 C 23.359375 53.644531 26.097656 53.675781 28.777344 53.230469 C 30.851562 52.882812 33.816406 52.078125 36.183594 50.257812 C 37.214844 49.484375 38.085938 48.515625 38.742188 47.40625 C 39.171875 46.664062 39.488281 45.863281 39.679688 45.027344 L 10.644531 45.027344 C 11.113281 46.917969 12.160156 48.613281 13.632812 49.894531 Z M 26.765625 46.1875 L 26.765625 52.269531 L 25.722656 52.269531 L 25.722656 50.222656 L 26.46875 50.007812 L 26.46875 49.792969 L 25.558594 49.792969 L 19.738281 48.15625 Z M 26.765625 46.1875 "></path><path style=" stroke:none;fill-rule:evenodd;fill:rgb(100%,100%,100%);fill-opacity:1;" d="M 11.46875 16.84375 C 11.652344 17.085938 11.941406 17.230469 12.246094 17.226562 C 15.734375 17.226562 19.5 17.226562 23.761719 17.226562 L 37.234375 17.226562 C 37.519531 17.226562 37.785156 17.105469 37.972656 16.890625 C 38.023438 16.835938 42.742188 11.363281 43.757812 10.363281 C 43.941406 10.164062 44.050781 9.902344 44.054688 9.628906 L 44.054688 9.503906 C 44.054688 9.390625 44.035156 9.277344 43.996094 9.167969 L 43.996094 9.152344 C 43.957031 9.035156 43.902344 8.921875 43.828125 8.8125 C 43.792969 8.761719 43.75 8.710938 43.707031 8.664062 L 43.652344 8.613281 C 43.589844 8.550781 43.519531 8.503906 43.4375 8.464844 C 42.933594 8.195312 42.367188 8.058594 41.796875 8.074219 C 41.25 8.074219 40.707031 8.175781 40.203125 8.378906 C 39.710938 8.589844 39.277344 8.917969 38.949219 9.335938 C 38.703125 9.242188 38.441406 9.195312 38.175781 9.195312 C 37.636719 9.203125 37.109375 9.386719 36.683594 9.722656 C 36.601562 9.789062 36.519531 9.859375 36.445312 9.9375 C 36.4375 9.824219 36.421875 9.71875 36.394531 9.609375 C 36.386719 9.535156 36.367188 9.460938 36.339844 9.394531 L 36.320312 9.351562 C 36.261719 9.199219 36.179688 9.0625 36.078125 8.9375 C 36.050781 8.902344 36.019531 8.867188 35.988281 8.835938 C 35.816406 8.675781 35.617188 8.550781 35.402344 8.453125 C 35.324219 8.421875 35.246094 8.394531 35.164062 8.378906 C 35.003906 8.351562 34.847656 8.335938 34.6875 8.335938 C 34.402344 8.328125 34.125 8.398438 33.878906 8.535156 C 33.84375 8.546875 33.8125 8.558594 33.785156 8.574219 L 33.746094 8.574219 L 33.628906 8.484375 C 33.328125 7.984375 32.796875 7.664062 32.210938 7.625 L 32.042969 7.625 C 31.515625 7.695312 31.046875 7.996094 30.769531 8.449219 C 30.476562 8.914062 30.414062 9.492188 30.597656 10.011719 C 30.617188 10.0625 30.636719 10.113281 30.664062 10.160156 C 30.699219 10.234375 30.746094 10.308594 30.804688 10.375 C 30.839844 10.417969 30.878906 10.457031 30.914062 10.492188 C 30.734375 10.789062 30.417969 10.980469 30.066406 11 C 30.015625 11 29.960938 11 29.902344 11 C 29.410156 11 28.90625 10.835938 28.683594 10.597656 L 28.667969 10.597656 C 28.878906 10.324219 29.003906 9.988281 29.019531 9.640625 C 29.132812 9.511719 29.226562 9.367188 29.300781 9.214844 C 29.324219 9.167969 29.339844 9.121094 29.355469 9.074219 C 29.480469 8.667969 29.480469 8.234375 29.355469 7.824219 C 29.332031 7.75 29.304688 7.679688 29.269531 7.609375 C 29.253906 7.585938 29.242188 7.566406 29.230469 7.539062 C 29.191406 7.453125 29.136719 7.371094 29.074219 7.292969 C 28.917969 7.105469 28.722656 6.941406 28.507812 6.816406 L 28.386719 6.742188 C 28.105469 6.597656 27.792969 6.527344 27.480469 6.527344 L 27.375 6.527344 C 27.324219 6.421875 27.261719 6.320312 27.191406 6.226562 C 26.710938 5.625 25.972656 5.289062 25.203125 5.3125 C 24.457031 5.285156 23.738281 5.601562 23.257812 6.171875 C 23.175781 6.269531 23.105469 6.375 23.042969 6.488281 L 22.949219 6.488281 C 22.589844 6.492188 22.238281 6.582031 21.917969 6.746094 C 21.46875 6.96875 21.140625 7.378906 21.023438 7.863281 C 20.871094 8.421875 20.964844 9.015625 21.273438 9.5 C 21.292969 9.53125 21.3125 9.554688 21.335938 9.582031 C 21.332031 9.601562 21.332031 9.617188 21.335938 9.636719 C 21.339844 9.71875 21.347656 9.800781 21.371094 9.878906 C 21.371094 9.886719 21.371094 9.890625 21.371094 9.894531 C 21.386719 9.996094 21.417969 10.097656 21.460938 10.1875 C 21.472656 10.226562 21.492188 10.261719 21.511719 10.296875 C 21.527344 10.34375 21.550781 10.386719 21.574219 10.429688 C 21.609375 10.492188 21.648438 10.550781 21.691406 10.605469 C 21.539062 10.777344 21.183594 10.960938 20.308594 10.960938 C 19.972656 10.929688 19.664062 10.769531 19.445312 10.515625 C 19.484375 10.476562 19.519531 10.433594 19.554688 10.386719 C 19.605469 10.3125 19.65625 10.230469 19.707031 10.140625 C 19.746094 10.074219 19.777344 10.003906 19.800781 9.925781 C 20.019531 9.21875 19.785156 8.449219 19.207031 7.980469 C 19.164062 7.949219 19.121094 7.917969 19.074219 7.894531 C 18.925781 7.804688 18.765625 7.734375 18.597656 7.679688 C 18.535156 7.660156 18.472656 7.648438 18.410156 7.640625 C 18.347656 7.628906 18.289062 7.625 18.226562 7.625 L 18.148438 7.625 C 18.035156 7.628906 17.925781 7.644531 17.816406 7.667969 C 17.535156 7.75 17.277344 7.882812 17.058594 8.070312 C 16.988281 8.125 16.929688 8.1875 16.878906 8.257812 C 16.859375 8.28125 16.839844 8.304688 16.816406 8.328125 C 16.773438 8.386719 16.714844 8.460938 16.660156 8.542969 C 16.660156 8.542969 16.648438 8.558594 16.644531 8.566406 C 16.546875 8.511719 16.441406 8.472656 16.335938 8.4375 L 16.191406 8.410156 L 16.121094 8.398438 C 15.953125 8.351562 15.785156 8.328125 15.613281 8.328125 C 15.359375 8.328125 15.109375 8.382812 14.886719 8.492188 C 14.777344 8.53125 14.675781 8.589844 14.589844 8.660156 C 14.203125 8.96875 13.960938 9.421875 13.917969 9.910156 C 13.457031 9.441406 12.824219 9.175781 12.164062 9.175781 C 11.910156 9.175781 11.652344 9.21875 11.410156 9.300781 C 11.347656 9.226562 11.285156 9.15625 11.210938 9.089844 C 10.503906 8.433594 9.574219 8.074219 8.605469 8.089844 C 7.988281 8.074219 7.378906 8.226562 6.847656 8.535156 C 6.769531 8.582031 6.703125 8.636719 6.644531 8.703125 C 6.605469 8.730469 6.574219 8.765625 6.546875 8.804688 C 6.460938 8.910156 6.386719 9.023438 6.332031 9.148438 C 6.167969 9.476562 6.207031 9.863281 6.425781 10.15625 Z M 23.988281 15.71875 C 23.972656 15.695312 23.957031 15.671875 23.941406 15.648438 C 23.925781 15.59375 23.910156 15.546875 23.886719 15.496094 C 23.867188 15.386719 23.882812 15.269531 23.933594 15.167969 L 24.003906 15.085938 C 24.03125 15.070312 24.058594 15.054688 24.082031 15.039062 C 24.109375 15.03125 24.136719 15.023438 24.164062 15.007812 C 24.8125 15.070312 24.597656 15.835938 24.496094 16.25 L 23.902344 16.25 C 24.074219 16.195312 24.230469 16.082031 24.332031 15.933594 C 24.195312 15.90625 24.074219 15.832031 23.988281 15.71875 Z M 25.761719 15.238281 C 25.835938 15.101562 25.976562 15.015625 26.136719 15.007812 C 26.203125 15.019531 26.265625 15.046875 26.324219 15.085938 C 26.339844 15.113281 26.363281 15.144531 26.386719 15.167969 C 26.488281 15.453125 26.328125 15.886719 25.996094 15.949219 C 26.113281 16.066406 26.246094 16.160156 26.390625 16.238281 L 26.445312 16.25 L 25.796875 16.25 C 25.6875 15.921875 25.675781 15.570312 25.761719 15.238281 Z M 35.550781 11.554688 C 35.636719 11.515625 35.71875 11.464844 35.792969 11.402344 L 35.839844 11.363281 C 35.835938 11.539062 35.855469 11.710938 35.886719 11.886719 C 35.855469 11.871094 35.824219 11.851562 35.796875 11.832031 C 35.6875 11.765625 35.59375 11.671875 35.53125 11.5625 C 35.53125 11.5625 35.542969 11.554688 35.550781 11.554688 Z M 14.570312 11.386719 C 14.621094 11.433594 14.679688 11.46875 14.738281 11.503906 C 14.78125 11.527344 14.824219 11.550781 14.871094 11.570312 C 14.820312 11.652344 14.753906 11.726562 14.675781 11.785156 C 14.628906 11.820312 14.574219 11.851562 14.515625 11.878906 C 14.550781 11.71875 14.566406 11.554688 14.566406 11.386719 Z M 7.308594 9.414062 L 7.339844 9.390625 L 7.367188 9.359375 C 7.746094 9.140625 8.175781 9.03125 8.609375 9.039062 C 9.761719 9.039062 11.007812 9.6875 11.003906 10.882812 C 11.203125 10.421875 11.664062 10.125 12.167969 10.136719 C 12.832031 10.132812 13.410156 10.574219 13.582031 11.210938 C 13.648438 11.679688 13.449219 12.070312 13.214844 12.453125 C 13.195312 12.472656 13.171875 12.492188 13.148438 12.507812 L 13.121094 12.542969 C 13.433594 12.78125 13.8125 12.910156 14.203125 12.914062 C 14.585938 12.914062 14.957031 12.789062 15.257812 12.554688 C 15.824219 12.171875 16.050781 11.449219 15.792969 10.816406 C 15.589844 10.804688 15.386719 10.75 15.203125 10.65625 C 15.007812 10.503906 14.894531 10.269531 14.902344 10.023438 C 14.90625 9.777344 15.027344 9.546875 15.230469 9.402344 L 15.273438 9.390625 C 15.378906 9.324219 15.5 9.292969 15.621094 9.300781 C 15.710938 9.300781 15.800781 9.308594 15.886719 9.332031 L 15.921875 9.359375 L 16.082031 9.359375 C 16.199219 9.40625 16.3125 9.46875 16.417969 9.542969 C 16.445312 9.546875 16.472656 9.554688 16.496094 9.566406 L 16.554688 9.566406 C 16.773438 9.535156 16.992188 9.484375 17.203125 9.417969 C 17.230469 9.394531 17.261719 9.378906 17.296875 9.371094 L 17.339844 9.324219 C 17.378906 9.242188 17.425781 9.167969 17.472656 9.09375 C 17.53125 9.003906 17.601562 8.925781 17.667969 8.835938 C 17.785156 8.738281 17.921875 8.65625 18.074219 8.609375 L 18.316406 8.609375 C 18.410156 8.644531 18.503906 8.683594 18.59375 8.738281 C 18.871094 8.953125 18.980469 9.320312 18.871094 9.65625 C 18.835938 9.71875 18.796875 9.777344 18.753906 9.839844 C 18.652344 9.933594 18.53125 9.996094 18.394531 10.023438 C 18.152344 11.054688 19.40625 11.929688 20.328125 11.929688 C 21.316406 11.929688 22.441406 11.714844 22.765625 10.65625 C 22.765625 10.5 22.789062 10.351562 22.789062 10.195312 L 22.753906 10.179688 L 22.714844 10.179688 C 22.597656 10.136719 22.503906 10.058594 22.4375 9.953125 L 22.4375 9.917969 C 22.421875 9.894531 22.40625 9.871094 22.386719 9.847656 L 22.386719 9.804688 L 22.363281 9.773438 C 22.355469 9.71875 22.347656 9.664062 22.332031 9.609375 L 22.332031 9.484375 C 22.339844 9.441406 22.339844 9.402344 22.332031 9.359375 C 22.351562 9.292969 22.378906 9.222656 22.410156 9.160156 C 22.289062 9.132812 22.179688 9.0625 22.101562 8.964844 C 21.832031 8.570312 21.886719 7.847656 22.363281 7.609375 C 22.847656 7.347656 23.449219 7.4375 23.835938 7.824219 C 23.597656 6.792969 24.40625 6.289062 25.207031 6.289062 C 26.011719 6.289062 26.863281 6.820312 26.53125 7.871094 C 26.789062 7.632812 27.121094 7.5 27.472656 7.492188 C 27.636719 7.492188 27.792969 7.527344 27.941406 7.597656 L 27.960938 7.621094 C 28.109375 7.695312 28.238281 7.800781 28.339844 7.933594 C 28.363281 7.984375 28.386719 8.039062 28.417969 8.089844 C 28.492188 8.320312 28.492188 8.566406 28.417969 8.792969 C 28.339844 8.96875 28.207031 9.117188 28.035156 9.207031 C 28.085938 9.648438 28.035156 10.066406 27.574219 10.230469 C 27.53125 11.445312 28.835938 11.972656 29.902344 11.972656 C 29.980469 11.976562 30.0625 11.972656 30.144531 11.964844 C 31.183594 11.914062 32.003906 11.070312 32.015625 10.035156 C 31.910156 10.003906 31.804688 9.964844 31.703125 9.921875 C 31.648438 9.878906 31.597656 9.828125 31.554688 9.773438 C 31.542969 9.75 31.535156 9.726562 31.519531 9.703125 C 31.429688 9.46875 31.453125 9.210938 31.578125 9 C 31.703125 8.785156 31.917969 8.636719 32.167969 8.601562 C 32.527344 8.613281 32.714844 8.863281 32.886719 9.136719 C 33.082031 9.324219 33.308594 9.46875 33.558594 9.570312 C 33.800781 9.570312 34.035156 9.519531 34.253906 9.421875 L 34.300781 9.40625 C 34.410156 9.328125 34.550781 9.289062 34.6875 9.292969 C 34.792969 9.296875 34.894531 9.308594 34.996094 9.324219 C 35.113281 9.378906 35.222656 9.453125 35.316406 9.539062 C 35.378906 9.625 35.421875 9.710938 35.457031 9.804688 C 35.550781 10.125 35.433594 10.464844 35.167969 10.664062 L 35.121094 10.675781 L 35.074219 10.710938 L 35.027344 10.722656 L 34.996094 10.746094 C 34.875 10.785156 34.753906 10.804688 34.628906 10.804688 L 34.589844 10.804688 C 34.347656 11.496094 34.628906 12.261719 35.257812 12.644531 C 35.527344 12.824219 35.847656 12.921875 36.175781 12.921875 C 36.570312 12.914062 36.949219 12.777344 37.257812 12.527344 C 37.167969 12.4375 37.109375 12.3125 37.023438 12.226562 C 36.722656 11.632812 36.671875 10.9375 37.265625 10.480469 C 37.519531 10.277344 37.839844 10.164062 38.167969 10.152344 C 38.699219 10.171875 39.171875 10.488281 39.398438 10.964844 C 39.269531 10.226562 39.941406 9.523438 40.570312 9.265625 C 40.957031 9.109375 41.371094 9.03125 41.785156 9.03125 C 42.191406 9.023438 42.59375 9.117188 42.953125 9.300781 L 43 9.34375 C 43.027344 9.378906 43.042969 9.417969 43.058594 9.460938 L 43.070312 9.496094 L 43.070312 9.621094 L 43.058594 9.644531 L 43.058594 9.667969 C 42.730469 9.992188 42.035156 10.761719 41.230469 11.660156 L 40.015625 11.210938 L 38.71875 12.890625 L 39.269531 13.902344 C 38.152344 15.191406 37.238281 16.242188 37.238281 16.242188 L 26.988281 16.242188 C 27.042969 16.222656 27.097656 16.199219 27.160156 16.175781 C 27.769531 15.714844 27.5 14.84375 27.015625 14.410156 C 26.667969 14.097656 26.261719 13.847656 25.933594 13.515625 C 25.632812 13.207031 25.378906 12.859375 25.175781 12.480469 C 24.902344 12.910156 24.582031 13.308594 24.210938 13.660156 C 23.832031 14.042969 23.292969 14.242188 23 14.71875 C 22.753906 15.113281 22.628906 15.726562 23.050781 16.066406 C 23.140625 16.148438 23.25 16.207031 23.367188 16.242188 C 19.667969 16.242188 15.960938 16.246094 12.257812 16.253906 L 10.855469 14.398438 L 11.574219 12.859375 L 10.214844 11.230469 L 8.890625 11.796875 L 7.199219 9.574219 C 7.226562 9.515625 7.261719 9.460938 7.300781 9.414062 Z M 7.308594 9.414062 "></path><path style=" stroke:none;fill-rule:nonzero;fill:rgb(100%,100%,100%);fill-opacity:1;" d="M 23.804688 8.703125 L 26.597656 8.703125 L 26.597656 11.457031 L 23.804688 11.457031 Z M 23.804688 8.703125 "></path><path style=" stroke:none;fill-rule:evenodd;fill:rgb(100%,100%,100%);fill-opacity:1;" d="M 4.253906 70.667969 L 0.222656 70.667969 L 0.222656 69.144531 L 6.613281 69.144531 C 6.652344 69.695312 6.671875 70.1875 6.265625 70.667969 C 5.066406 72.117188 3.933594 73.609375 2.777344 75.097656 C 2.699219 75.199219 2.625 75.3125 2.503906 75.460938 L 6.675781 75.460938 L 6.675781 76.996094 L 0.0273438 76.996094 C -0.0117188 76.460938 -0.0429688 75.972656 0.367188 75.496094 C 1.671875 73.929688 2.921875 72.320312 4.253906 70.667969 Z M 4.253906 70.667969 "></path><path style=" stroke:none;fill-rule:evenodd;fill:rgb(100%,100%,100%);fill-opacity:1;" d="M 16.875 77.089844 L 16.875 79.6875 L 15.269531 79.6875 L 15.269531 71.554688 C 16.519531 71.382812 17.789062 71.179688 19.058594 71.34375 C 20.332031 71.507812 21.15625 72.5625 21.238281 74.003906 C 21.332031 75.632812 20.359375 77.175781 18.289062 77.089844 C 17.832031 77.074219 17.378906 77.089844 16.875 77.089844 Z M 16.898438 75.667969 C 17.289062 75.691406 17.667969 75.710938 18.042969 75.738281 C 19.152344 75.824219 19.761719 75.035156 19.667969 73.988281 C 19.597656 73.183594 19.1875 72.699219 18.417969 72.636719 C 17.917969 72.585938 17.40625 72.625 16.90625 72.625 Z M 16.898438 75.667969 "></path><path style=" stroke:none;fill-rule:evenodd;fill:rgb(100%,100%,100%);fill-opacity:1;" d="M 31.363281 77.089844 L 31.363281 79.667969 L 29.757812 79.667969 L 29.757812 71.554688 C 31 71.382812 32.253906 71.191406 33.519531 71.34375 C 34.78125 71.492188 35.644531 72.558594 35.726562 74.015625 C 35.820312 75.636719 34.847656 77.183594 32.773438 77.097656 C 32.320312 77.074219 31.863281 77.089844 31.363281 77.089844 Z M 31.363281 75.667969 C 31.773438 75.691406 32.140625 75.710938 32.507812 75.738281 C 33.636719 75.828125 34.238281 75.023438 34.144531 73.996094 C 34.066406 73.167969 33.628906 72.683594 32.832031 72.625 C 32.347656 72.589844 31.863281 72.625 31.363281 72.625 Z M 31.363281 75.667969 "></path><path style=" stroke:none;fill-rule:evenodd;fill:rgb(100%,100%,100%);fill-opacity:1;" d="M 13.609375 76.996094 L 12.011719 76.996094 C 12.011719 76.894531 11.988281 76.796875 11.988281 76.765625 C 11.488281 76.90625 10.996094 77.121094 10.496094 77.164062 C 9.820312 77.238281 9.144531 77.042969 8.617188 76.613281 C 8.089844 76.1875 7.761719 75.566406 7.699219 74.898438 C 7.632812 74.40625 7.644531 73.90625 7.730469 73.417969 C 8.027344 71.976562 9.058594 71.234375 10.628906 71.296875 C 11.621094 71.335938 12.601562 71.4375 13.609375 71.511719 Z M 11.996094 72.683594 C 11.597656 72.660156 11.242188 72.621094 10.886719 72.617188 C 9.761719 72.59375 9.261719 73.078125 9.222656 74.183594 C 9.191406 75 9.621094 75.675781 10.269531 75.800781 C 10.832031 75.910156 11.410156 75.765625 11.847656 75.40625 C 11.925781 75.339844 11.980469 75.25 11.988281 75.148438 C 12.003906 74.339844 11.996094 73.539062 11.996094 72.683594 Z M 11.996094 72.683594 "></path><path style=" stroke:none;fill-rule:evenodd;fill:rgb(100%,100%,100%);fill-opacity:1;" d="M 42.652344 76.996094 L 41.058594 76.996094 C 41.050781 76.894531 41.039062 76.796875 41.035156 76.765625 C 40.535156 76.902344 40.046875 77.121094 39.542969 77.164062 C 38.871094 77.238281 38.191406 77.042969 37.667969 76.617188 C 37.136719 76.1875 36.808594 75.570312 36.746094 74.898438 C 36.675781 74.40625 36.6875 73.90625 36.777344 73.414062 C 37.070312 71.976562 38.097656 71.242188 39.671875 71.289062 C 40.175781 71.304688 40.679688 71.332031 41.183594 71.378906 C 41.671875 71.417969 42.15625 71.484375 42.667969 71.542969 Z M 41.042969 72.683594 C 40.644531 72.660156 40.289062 72.621094 39.933594 72.617188 C 38.824219 72.597656 38.328125 73.046875 38.269531 74.148438 C 38.222656 74.972656 38.660156 75.675781 39.324219 75.800781 C 39.878906 75.910156 40.460938 75.765625 40.898438 75.402344 C 40.976562 75.335938 41.027344 75.246094 41.035156 75.144531 C 41.046875 74.339844 41.042969 73.535156 41.042969 72.683594 Z M 41.042969 72.683594 "></path><path style=" stroke:none;fill-rule:evenodd;fill:rgb(100%,100%,100%);fill-opacity:1;" d="M 25.480469 71.21875 C 26.589844 71.242188 27.644531 71.644531 28.183594 72.804688 C 28.722656 73.957031 28.660156 75.109375 27.855469 76.125 C 27.082031 77.105469 25.996094 77.328125 24.800781 77.179688 C 22.097656 76.835938 21.628906 73.890625 22.753906 72.382812 C 23.308594 71.640625 24.230469 71.222656 25.480469 71.21875 Z M 25.363281 72.660156 C 24.425781 72.660156 23.8125 73.265625 23.8125 74.183594 C 23.8125 75.144531 24.433594 75.785156 25.378906 75.789062 C 26.242188 75.789062 26.890625 75.128906 26.890625 74.210938 C 26.917969 73.796875 26.765625 73.390625 26.476562 73.097656 C 26.183594 72.800781 25.78125 72.640625 25.363281 72.660156 Z M 25.363281 72.660156 "></path><path style=" stroke:none;fill-rule:evenodd;fill:rgb(100%,100%,100%);fill-opacity:1;" d="M 45.921875 72.820312 L 45.921875 76.992188 L 44.3125 76.992188 L 44.3125 71.484375 C 45.511719 71.421875 46.714844 71.296875 47.910156 71.320312 C 49.207031 71.34375 49.988281 72.230469 49.988281 73.515625 C 49.988281 74.625 49.988281 75.742188 49.988281 76.859375 C 49.988281 76.902344 49.980469 76.945312 49.972656 76.988281 L 48.355469 76.988281 L 48.355469 74.898438 C 48.355469 74.554688 48.355469 74.210938 48.355469 73.871094 C 48.335938 73.179688 47.914062 72.757812 47.226562 72.757812 C 46.796875 72.75 46.371094 72.792969 45.921875 72.820312 Z M 45.921875 72.820312 "></path><path style=" stroke:none;fill-rule:nonzero;fill:rgb(100%,100%,100%);fill-opacity:1;" d="M 13.390625 68.304688 C 12.878906 68.535156 12.332031 68.660156 11.769531 68.671875 C 10.621094 68.671875 9.855469 67.921875 9.855469 66.804688 C 9.855469 65.6875 10.636719 64.953125 11.800781 64.953125 C 12.222656 64.957031 12.636719 65.015625 13.039062 65.128906 L 12.984375 65.46875 C 12.609375 65.371094 12.226562 65.316406 11.839844 65.304688 C 10.894531 65.304688 10.253906 65.902344 10.253906 66.8125 C 10.234375 67.214844 10.386719 67.609375 10.675781 67.898438 C 10.964844 68.183594 11.363281 68.335938 11.769531 68.3125 C 12.199219 68.308594 12.628906 68.230469 13.035156 68.085938 L 13.035156 66.996094 L 11.597656 66.996094 L 11.597656 66.648438 L 13.390625 66.648438 Z M 13.390625 68.304688 "></path><path style=" stroke:none;fill-rule:nonzero;fill:rgb(100%,100%,100%);fill-opacity:1;" d="M 16.730469 67.367188 C 16.746094 67.90625 16.429688 68.402344 15.933594 68.617188 C 15.433594 68.835938 14.855469 68.730469 14.464844 68.355469 C 14.074219 67.976562 13.957031 67.40625 14.160156 66.90625 C 14.363281 66.40625 14.851562 66.078125 15.394531 66.078125 C 15.746094 66.058594 16.09375 66.1875 16.347656 66.433594 C 16.601562 66.675781 16.738281 67.015625 16.730469 67.367188 Z M 16.359375 67.367188 C 16.359375 66.839844 15.925781 66.410156 15.394531 66.410156 C 14.863281 66.410156 14.429688 66.839844 14.429688 67.367188 C 14.429688 67.898438 14.863281 68.324219 15.394531 68.324219 C 15.925781 68.324219 16.359375 67.898438 16.359375 67.367188 Z M 16.359375 67.367188 "></path><path style=" stroke:none;fill-rule:nonzero;fill:rgb(100%,100%,100%);fill-opacity:1;" d="M 17.816406 66.203125 C 18.097656 66.125 18.390625 66.089844 18.683594 66.09375 C 19.480469 66.09375 19.941406 66.605469 19.941406 67.363281 C 19.941406 68.164062 19.445312 68.652344 18.730469 68.652344 C 18.300781 68.664062 17.878906 68.625 17.460938 68.535156 L 17.460938 64.875 L 17.824219 64.875 Z M 17.816406 66.511719 L 17.816406 68.285156 C 18.09375 68.335938 18.375 68.359375 18.65625 68.355469 C 19.246094 68.355469 19.578125 67.960938 19.578125 67.363281 C 19.578125 66.765625 19.261719 66.398438 18.636719 66.398438 C 18.359375 66.402344 18.082031 66.441406 17.816406 66.523438 Z M 17.816406 66.511719 "></path><path style=" stroke:none;fill-rule:nonzero;fill:rgb(100%,100%,100%);fill-opacity:1;" d="M 20.585938 65.296875 C 20.585938 65.191406 20.648438 65.09375 20.746094 65.050781 C 20.847656 65.011719 20.957031 65.03125 21.035156 65.105469 C 21.113281 65.183594 21.136719 65.292969 21.097656 65.390625 C 21.054688 65.492188 20.957031 65.554688 20.851562 65.554688 C 20.78125 65.558594 20.714844 65.53125 20.664062 65.484375 C 20.613281 65.433594 20.585938 65.367188 20.585938 65.296875 Z M 21.035156 68.585938 L 20.671875 68.585938 L 20.671875 66.171875 L 21.035156 66.171875 Z M 21.035156 68.585938 "></path><path style=" stroke:none;fill-rule:nonzero;fill:rgb(100%,100%,100%);fill-opacity:1;" d="M 24.203125 67.234375 C 24.203125 67.328125 24.195312 67.421875 24.179688 67.515625 L 22.152344 67.515625 C 22.183594 68 22.605469 68.371094 23.097656 68.34375 C 23.398438 68.335938 23.699219 68.292969 23.992188 68.207031 L 24.050781 68.503906 C 23.738281 68.605469 23.414062 68.660156 23.085938 68.667969 C 22.730469 68.695312 22.386719 68.566406 22.132812 68.320312 C 21.878906 68.074219 21.746094 67.730469 21.769531 67.378906 C 21.746094 67.035156 21.871094 66.703125 22.113281 66.460938 C 22.355469 66.21875 22.691406 66.085938 23.035156 66.101562 C 23.34375 66.078125 23.652344 66.195312 23.871094 66.410156 C 24.097656 66.625 24.214844 66.925781 24.203125 67.234375 Z M 22.144531 67.234375 L 23.871094 67.234375 C 23.890625 67.011719 23.808594 66.789062 23.652344 66.628906 C 23.496094 66.46875 23.273438 66.378906 23.046875 66.394531 C 22.8125 66.382812 22.585938 66.464844 22.417969 66.625 C 22.246094 66.78125 22.144531 67.003906 22.144531 67.234375 Z M 22.144531 67.234375 "></path><path style=" stroke:none;fill-rule:nonzero;fill:rgb(100%,100%,100%);fill-opacity:1;" d="M 26.285156 66.464844 C 25.953125 66.460938 25.621094 66.480469 25.289062 66.519531 L 25.289062 68.585938 L 24.925781 68.585938 L 24.925781 66.238281 C 25.375 66.15625 25.832031 66.117188 26.285156 66.113281 Z M 26.285156 66.464844 "></path><path style=" stroke:none;fill-rule:nonzero;fill:rgb(100%,100%,100%);fill-opacity:1;" d="M 29.292969 67.082031 L 29.292969 68.585938 L 28.929688 68.585938 L 28.929688 67.167969 C 28.929688 66.703125 28.667969 66.425781 28.234375 66.425781 C 27.929688 66.425781 27.628906 66.449219 27.328125 66.496094 L 27.328125 68.589844 L 26.964844 68.589844 L 26.964844 66.226562 C 27.402344 66.140625 27.851562 66.101562 28.300781 66.101562 C 28.566406 66.074219 28.835938 66.171875 29.027344 66.359375 C 29.21875 66.550781 29.316406 66.8125 29.292969 67.082031 Z M 29.292969 67.082031 "></path><path style=" stroke:none;fill-rule:nonzero;fill:rgb(100%,100%,100%);fill-opacity:1;" d="M 32.636719 67.367188 C 32.652344 67.90625 32.335938 68.402344 31.839844 68.617188 C 31.339844 68.835938 30.761719 68.730469 30.371094 68.355469 C 29.980469 67.976562 29.863281 67.40625 30.066406 66.90625 C 30.269531 66.40625 30.757812 66.078125 31.300781 66.078125 C 31.652344 66.058594 32 66.1875 32.253906 66.433594 C 32.507812 66.675781 32.644531 67.015625 32.636719 67.367188 Z M 32.269531 67.367188 C 32.269531 66.839844 31.835938 66.410156 31.300781 66.410156 C 30.769531 66.410156 30.339844 66.839844 30.339844 67.367188 C 30.339844 67.898438 30.769531 68.324219 31.300781 68.324219 C 31.835938 68.324219 32.269531 67.898438 32.269531 67.367188 Z M 32.269531 67.367188 "></path><path style=" stroke:none;fill-rule:nonzero;fill:rgb(100%,100%,100%);fill-opacity:1;" d="M 37.050781 68.542969 C 36.636719 68.628906 36.207031 68.667969 35.785156 68.65625 C 35.066406 68.65625 34.570312 68.164062 34.570312 67.367188 C 34.570312 66.609375 35.03125 66.101562 35.828125 66.101562 C 36.121094 66.09375 36.410156 66.132812 36.695312 66.207031 L 36.695312 64.875 L 37.058594 64.875 Z M 34.925781 67.363281 C 34.925781 67.960938 35.261719 68.355469 35.84375 68.355469 C 36.128906 68.359375 36.410156 68.335938 36.6875 68.285156 L 36.6875 66.523438 C 36.421875 66.445312 36.144531 66.410156 35.867188 66.410156 C 35.238281 66.398438 34.925781 66.792969 34.925781 67.363281 Z M 34.925781 67.363281 "></path><path style=" stroke:none;fill-rule:nonzero;fill:rgb(100%,100%,100%);fill-opacity:1;" d="M 40.207031 67.234375 C 40.210938 67.328125 40.203125 67.421875 40.191406 67.515625 L 38.160156 67.515625 C 38.191406 68 38.613281 68.371094 39.105469 68.34375 C 39.40625 68.335938 39.707031 68.292969 40 68.207031 L 40.058594 68.503906 C 39.746094 68.605469 39.421875 68.660156 39.09375 68.667969 C 38.738281 68.695312 38.390625 68.566406 38.136719 68.320312 C 37.886719 68.074219 37.753906 67.730469 37.773438 67.378906 C 37.753906 67.039062 37.878906 66.703125 38.121094 66.460938 C 38.363281 66.21875 38.695312 66.085938 39.039062 66.101562 C 39.351562 66.078125 39.65625 66.191406 39.878906 66.410156 C 40.105469 66.625 40.222656 66.925781 40.207031 67.234375 Z M 38.152344 67.234375 L 39.878906 67.234375 C 39.898438 67.011719 39.816406 66.789062 39.660156 66.628906 C 39.503906 66.46875 39.28125 66.378906 39.054688 66.394531 C 38.820312 66.382812 38.59375 66.464844 38.425781 66.625 C 38.253906 66.78125 38.152344 67.003906 38.152344 67.234375 Z M 38.152344 67.234375 "></path></g></svg>