<svg xmlns="http://www.w3.org/2000/svg" width="168.475" height="30.217" viewBox="0 0 168.475 30.217"><g id="Grupo_2506" data-name="Grupo 2506" transform="translate(-710.531 -528.848)"><path id="Trazado_50066" data-name="Trazado 50066" d="M739.283,536.83h-4.2a.2.2,0,0,0-.226.225v1.126a.2.2,0,0,0,.226.226h1.172v5.131h-1.172a.2.2,0,0,0-.226.225v1.12a.2.2,0,0,0,.226.226h4.2c.158,0,.237-.076.237-.226v-1.12c0-.149-.079-.225-.237-.225h-1.165v-5.131h1.165c.158,0,.237-.074.237-.226v-1.126C739.519,536.906,739.44,536.83,739.283,536.83Z" transform="translate(11.856 3.889)" fill="#fff"></path><path id="Trazado_50067" data-name="Trazado 50067" d="M744.952,538.6h-1.3a.2.2,0,0,0-.22.224v.126a2.655,2.655,0,0,0-1.679-.541,3.064,3.064,0,0,0-2.235.851,3.181,3.181,0,0,0,0,4.381,3.056,3.056,0,0,0,2.235.857,2.646,2.646,0,0,0,1.639-.507v.5a1.307,1.307,0,0,1-.375.979,1.39,1.39,0,0,1-1.016.366,1.765,1.765,0,0,1-.877-.207,1,1,0,0,1-.485-.559.286.286,0,0,0-.259-.18h-1.322c-.182,0-.253.074-.214.224a2.371,2.371,0,0,0,1.037,1.573,3.665,3.665,0,0,0,2.131.592,3.331,3.331,0,0,0,2.295-.775,2.572,2.572,0,0,0,.874-2.026v-5.65A.2.2,0,0,0,744.952,538.6Zm-1.977,4.041a1.374,1.374,0,0,1-1.077.461,1.422,1.422,0,0,1-1.1-.461,1.875,1.875,0,0,1,.006-2.383,1.421,1.421,0,0,1,1.093-.463,1.389,1.389,0,0,1,1.071.457,1.709,1.709,0,0,1,.418,1.193A1.733,1.733,0,0,1,742.976,542.645Z" transform="translate(13.696 4.661)" fill="#fff"></path><path id="Trazado_50068" data-name="Trazado 50068" d="M750.934,542.9a1.416,1.416,0,0,1-.363.04c-.26,0-.391-.153-.391-.463v-3.711a.2.2,0,0,0-.226-.225h-1.333a.2.2,0,0,0-.226.225v2.9a1.25,1.25,0,0,1-.355.931,1.283,1.283,0,0,1-.945.35,1.162,1.162,0,0,1-.9-.369,1.386,1.386,0,0,1-.339-.971v-2.845a.2.2,0,0,0-.225-.225h-1.322a.2.2,0,0,0-.225.225v3.083a2.589,2.589,0,0,0,.7,1.9,2.469,2.469,0,0,0,1.85.715,2.839,2.839,0,0,0,2.006-.686,1.739,1.739,0,0,0,1.588.686,3.257,3.257,0,0,0,.894-.143.214.214,0,0,0,.178-.248l-.109-.982A.209.209,0,0,0,750.934,542.9Z" transform="translate(16.35 4.724)" fill="#fff"></path><path id="Trazado_50069" data-name="Trazado 50069" d="M756.753,542.962a1.412,1.412,0,0,1-.363.04c-.263,0-.394-.153-.394-.463v-3.711a.192.192,0,0,0-.219-.224h-1.3a.2.2,0,0,0-.225.224v.126a2.657,2.657,0,0,0-1.679-.541,3.066,3.066,0,0,0-2.237.848,3.241,3.241,0,0,0,0,4.413,3.056,3.056,0,0,0,2.24.851,2.92,2.92,0,0,0,1.991-.721,1.55,1.55,0,0,0,1.489.721,3.133,3.133,0,0,0,.882-.143.207.207,0,0,0,.19-.248l-.12-.982C756.993,543.01,756.912,542.947,756.753,542.962Zm-2.952-.289a1.369,1.369,0,0,1-1.077.467,1.419,1.419,0,0,1-1.1-.467,1.926,1.926,0,0,1,0-2.411,1.42,1.42,0,0,1,1.1-.463,1.371,1.371,0,0,1,1.077.463,1.969,1.969,0,0,1,0,2.411Z" transform="translate(18.971 4.661)" fill="#fff"></path><path id="Trazado_50070" data-name="Trazado 50070" d="M757.872,543.888a1.376,1.376,0,0,1-.351.04c-.271,0-.4-.15-.4-.451v-6.74a.2.2,0,0,0-.225-.225h-1.322a.2.2,0,0,0-.224.225v7.307a1.232,1.232,0,0,0,.489,1.031,2.119,2.119,0,0,0,1.316.376,3.194,3.194,0,0,0,.9-.143.21.21,0,0,0,.192-.248l-.122-.982C758.113,543.936,758.029,543.874,757.872,543.888Z" transform="translate(21.837 3.735)" fill="#fff"></path><path id="Trazado_50071" data-name="Trazado 50071" d="M765.1,543.888a1.3,1.3,0,0,1-.351.04c-.263,0-.394-.15-.394-.451v-6.74a.193.193,0,0,0-.22-.225h-1.338a.2.2,0,0,0-.225.225v3.11a2.718,2.718,0,0,0-1.645-.507,3.071,3.071,0,0,0-2.237.848,3.241,3.241,0,0,0,0,4.413,3.056,3.056,0,0,0,2.24.851,2.733,2.733,0,0,0,1.963-.744,1.538,1.538,0,0,0,1.493.744,3.212,3.212,0,0,0,.907-.143.2.2,0,0,0,.179-.248l-.109-.982C765.347,543.936,765.261,543.874,765.1,543.888Zm-2.942-.288a1.365,1.365,0,0,1-1.075.467,1.417,1.417,0,0,1-1.1-.467,1.921,1.921,0,0,1,0-2.411,1.418,1.418,0,0,1,1.1-.463,1.366,1.366,0,0,1,1.075.463,1.964,1.964,0,0,1,0,2.411Z" transform="translate(23.041 3.735)" fill="#fff"></path><path id="Trazado_50072" data-name="Trazado 50072" d="M770.775,542.962a1.428,1.428,0,0,1-.363.04c-.263,0-.394-.153-.394-.463v-3.711a.193.193,0,0,0-.22-.224h-1.3a.2.2,0,0,0-.226.224v.126a2.651,2.651,0,0,0-1.679-.541,3.07,3.07,0,0,0-2.237.848,3.241,3.241,0,0,0,0,4.413,3.056,3.056,0,0,0,2.24.851,2.917,2.917,0,0,0,1.991-.721,1.553,1.553,0,0,0,1.489.721,3.142,3.142,0,0,0,.883-.143.207.207,0,0,0,.19-.248l-.12-.982C771.014,543.01,770.932,542.947,770.775,542.962Zm-2.954-.289a1.365,1.365,0,0,1-1.075.467,1.422,1.422,0,0,1-1.1-.467,1.926,1.926,0,0,1,0-2.411,1.423,1.423,0,0,1,1.1-.463,1.366,1.366,0,0,1,1.075.463,1.965,1.965,0,0,1,0,2.411Z" transform="translate(25.803 4.661)" fill="#fff"></path><path id="Trazado_50073" data-name="Trazado 50073" d="M776.446,543.888a1.3,1.3,0,0,1-.352.04c-.263,0-.393-.15-.393-.451v-6.74a.193.193,0,0,0-.22-.225h-1.338a.2.2,0,0,0-.226.225v3.11a2.71,2.71,0,0,0-1.643-.507,3.071,3.071,0,0,0-2.237.848,3.241,3.241,0,0,0,0,4.413,3.055,3.055,0,0,0,2.24.851,2.73,2.73,0,0,0,1.962-.744,1.542,1.542,0,0,0,1.495.744,3.193,3.193,0,0,0,.906-.143.2.2,0,0,0,.18-.248l-.11-.982C776.7,543.936,776.611,543.874,776.446,543.888ZM773.5,543.6a1.37,1.37,0,0,1-1.077.467,1.421,1.421,0,0,1-1.1-.467,1.926,1.926,0,0,1,0-2.411,1.422,1.422,0,0,1,1.1-.463,1.371,1.371,0,0,1,1.077.463,1.969,1.969,0,0,1,0,2.411Z" transform="translate(28.572 3.735)" fill="#fff"></path><path id="Trazado_50074" data-name="Trazado 50074" d="M782.738,540.775a9.291,9.291,0,0,0-1.169-.355q-.625-.145-1.172-.235a2.17,2.17,0,0,1-.9-.342.792.792,0,0,1-.359-.689.829.829,0,0,1,.387-.717,1.776,1.776,0,0,1,1.016-.265,1.88,1.88,0,0,1,1,.245,1.186,1.186,0,0,1,.532.706.282.282,0,0,0,.265.18h1.414c.182,0,.253-.076.213-.225a2.529,2.529,0,0,0-1.168-1.73,4.212,4.212,0,0,0-2.365-.644,3.813,3.813,0,0,0-2.394.708,2.234,2.234,0,0,0-.918,1.856,2.4,2.4,0,0,0,.273,1.188,1.844,1.844,0,0,0,.705.733,4.457,4.457,0,0,0,.955.394,8.28,8.28,0,0,0,1.053.237c.352.058.672.12.958.19a1.715,1.715,0,0,1,.7.333.725.725,0,0,1,.271.589.77.77,0,0,1-.381.675,1.879,1.879,0,0,1-1.034.248,2.489,2.489,0,0,1-1.284-.309,1.367,1.367,0,0,1-.666-.828.254.254,0,0,0-.248-.19h-1.408c-.165,0-.236.079-.213.237a2.643,2.643,0,0,0,1.2,1.875,4.455,4.455,0,0,0,2.57.705,4.043,4.043,0,0,0,2.487-.705,2.213,2.213,0,0,0,.941-1.864,2.159,2.159,0,0,0-.361-1.286A1.95,1.95,0,0,0,782.738,540.775Z" transform="translate(32.292 3.829)" fill="#fff"></path><path id="Trazado_50075" data-name="Trazado 50075" d="M789.473,542.9a1.415,1.415,0,0,1-.363.04c-.26,0-.391-.153-.391-.463v-3.711a.2.2,0,0,0-.226-.225h-1.333a.2.2,0,0,0-.226.225v2.9a1.251,1.251,0,0,1-.355.931,1.284,1.284,0,0,1-.944.35,1.165,1.165,0,0,1-.9-.369,1.387,1.387,0,0,1-.339-.971v-2.845a.2.2,0,0,0-.224-.225h-1.322a.2.2,0,0,0-.225.225v3.083a2.589,2.589,0,0,0,.7,1.9,2.469,2.469,0,0,0,1.85.715,2.839,2.839,0,0,0,2.006-.686,1.74,1.74,0,0,0,1.588.686,3.255,3.255,0,0,0,.894-.143.216.216,0,0,0,.18-.248l-.11-.982A.209.209,0,0,0,789.473,542.9Z" transform="translate(35.129 4.724)" fill="#fff"></path><path id="Trazado_50076" data-name="Trazado 50076" d="M792.378,541.037c-.361-.088-.726-.156-1.093-.208a4.158,4.158,0,0,1-.936-.231.507.507,0,0,1-.384-.472.406.406,0,0,1,.254-.36,1.415,1.415,0,0,1,.669-.137,1.433,1.433,0,0,1,.677.161.813.813,0,0,1,.409.418.255.255,0,0,0,.237.144h1.17q.248,0,.214-.236a1.744,1.744,0,0,0-.869-1.234,3.44,3.44,0,0,0-1.861-.469,3.245,3.245,0,0,0-1.907.507,1.57,1.57,0,0,0-.72,1.344,1.528,1.528,0,0,0,.378,1.092,1.817,1.817,0,0,0,.924.534,9.024,9.024,0,0,0,1.087.193,4.156,4.156,0,0,1,.922.2c.25.091.376.238.376.442a.429.429,0,0,1-.265.381,1.472,1.472,0,0,1-.7.144q-1.039,0-1.286-.641a.3.3,0,0,0-.26-.167l-1.16-.012c-.173,0-.247.079-.225.236a1.885,1.885,0,0,0,.912,1.367,3.724,3.724,0,0,0,2.02.491,3.455,3.455,0,0,0,2-.507,1.589,1.589,0,0,0,.733-1.373,1.494,1.494,0,0,0-.384-1.077A1.848,1.848,0,0,0,792.378,541.037Z" transform="translate(37.76 4.661)" fill="#fff"></path><path id="Trazado_50077" data-name="Trazado 50077" d="M797.31,543.385a3.514,3.514,0,0,1-.883.109.975.975,0,0,1-.715-.26.944.944,0,0,1-.265-.709v-1.985H797.3a.2.2,0,0,0,.225-.225v-.982a.2.2,0,0,0-.225-.225h-1.852v-1.5a.2.2,0,0,0-.226-.225h-1.327a.2.2,0,0,0-.22.225v1.5h-1.09a.2.2,0,0,0-.226.225v.982a.2.2,0,0,0,.226.225h1.09v2.043a2.4,2.4,0,0,0,.666,1.789,2.488,2.488,0,0,0,1.828.657,5.737,5.737,0,0,0,1.379-.189.239.239,0,0,0,.178-.26l-.156-1.016A.2.2,0,0,0,797.31,543.385Z" transform="translate(39.872 4.158)" fill="#fff"></path><path id="Trazado_50078" data-name="Trazado 50078" d="M803.8,542.962a1.414,1.414,0,0,1-.363.04c-.263,0-.394-.153-.394-.463v-3.711a.192.192,0,0,0-.219-.224h-1.3a.2.2,0,0,0-.225.224v.126a2.657,2.657,0,0,0-1.679-.541,3.066,3.066,0,0,0-2.237.848,3.241,3.241,0,0,0,0,4.413,3.056,3.056,0,0,0,2.24.851,2.923,2.923,0,0,0,1.991-.721,1.55,1.55,0,0,0,1.489.721,3.134,3.134,0,0,0,.882-.143.208.208,0,0,0,.19-.248l-.121-.982C804.036,543.01,803.955,542.947,803.8,542.962Zm-2.952-.289a1.369,1.369,0,0,1-1.077.467,1.416,1.416,0,0,1-1.1-.467,1.926,1.926,0,0,1,0-2.411,1.418,1.418,0,0,1,1.1-.463,1.371,1.371,0,0,1,1.077.463,1.969,1.969,0,0,1,0,2.411Z" transform="translate(41.894 4.661)" fill="#fff"></path><path id="Trazado_50079" data-name="Trazado 50079" d="M806.524,538.414a2.816,2.816,0,0,0-2.072.744,1.478,1.478,0,0,0-1.42-.744,2.283,2.283,0,0,0-.848.144.246.246,0,0,0-.178.26v.97c0,.122.085.184.259.184a2.463,2.463,0,0,1,.259-.036.409.409,0,0,1,.463.463v3.711a.2.2,0,0,0,.224.226h1.322a.2.2,0,0,0,.224-.226V541.2a1.223,1.223,0,0,1,.366-.927,1.316,1.316,0,0,1,.951-.348,1.169,1.169,0,0,1,.9.369,1.385,1.385,0,0,1,.338.97v2.845c0,.15.079.226.236.226h1.322a.2.2,0,0,0,.225-.226v-3.082a2.585,2.585,0,0,0-.707-1.9A2.506,2.506,0,0,0,806.524,538.414Z" transform="translate(44.574 4.661)" fill="#fff"></path><path id="Trazado_50080" data-name="Trazado 50080" d="M812.313,543.385a3.492,3.492,0,0,1-.882.109.973.973,0,0,1-.715-.26.945.945,0,0,1-.266-.709v-1.985H812.3a.2.2,0,0,0,.224-.225v-.982a.2.2,0,0,0-.224-.225H810.45v-1.5a.2.2,0,0,0-.225-.225H808.9a.2.2,0,0,0-.22.225v1.5h-1.09a.2.2,0,0,0-.226.225v.982a.2.2,0,0,0,.226.225h1.09v2.043a2.4,2.4,0,0,0,.666,1.789,2.488,2.488,0,0,0,1.828.657,5.737,5.737,0,0,0,1.379-.189.239.239,0,0,0,.178-.26l-.156-1.016A.2.2,0,0,0,812.313,543.385Z" transform="translate(47.184 4.158)" fill="#fff"></path><path id="Trazado_50081" data-name="Trazado 50081" d="M812.723,536.523a1.073,1.073,0,0,0-.751.278.9.9,0,0,0-.3.69.915.915,0,0,0,.3.7,1.138,1.138,0,0,0,1.5,0,.915.915,0,0,0,.3-.7.9.9,0,0,0-.3-.69A1.072,1.072,0,0,0,812.723,536.523Z" transform="translate(49.282 3.74)" fill="#fff"></path><rect id="Rect&#xE1;ngulo_196" data-name="Rect&#xE1;ngulo 196" width="1.772" height="5.731" rx="0.151" transform="translate(861.12 543.266)" fill="#fff"></rect><path id="Trazado_50082" data-name="Trazado 50082" d="M818.9,538.542a.239.239,0,0,0-.248.161l-1.559,3.43-1.541-3.43a.258.258,0,0,0-.259-.161h-1.4c-.18,0-.24.088-.178.26l2.47,5.3a.25.25,0,0,0,.248.168h1.322a.25.25,0,0,0,.248-.168l2.47-5.3a.221.221,0,0,0,0-.19.2.2,0,0,0-.177-.07Z" transform="translate(50.267 4.724)" fill="#fff"></path><path id="Trazado_50083" data-name="Trazado 50083" d="M826.2,543.152c-.009-.143-.091-.205-.248-.19a1.432,1.432,0,0,1-.364.04c-.262,0-.393-.153-.393-.463v-3.711a.193.193,0,0,0-.22-.224h-1.3a.2.2,0,0,0-.224.224v.126a2.651,2.651,0,0,0-1.679-.541,3.071,3.071,0,0,0-2.237.848,3.241,3.241,0,0,0,0,4.413,3.056,3.056,0,0,0,2.24.851,2.918,2.918,0,0,0,1.992-.721,1.553,1.553,0,0,0,1.489.721,3.143,3.143,0,0,0,.883-.143.209.209,0,0,0,.19-.248Zm-3.2-.479a1.367,1.367,0,0,1-1.075.467,1.422,1.422,0,0,1-1.1-.467,1.926,1.926,0,0,1,0-2.411,1.424,1.424,0,0,1,1.1-.463,1.368,1.368,0,0,1,1.075.463,1.964,1.964,0,0,1,0,2.411Z" transform="translate(52.687 4.661)" fill="#fff"></path><path id="Trazado_50084" data-name="Trazado 50084" d="M715.557,540.67h-2.51V548.2h-2.515v2.511h2.515V553.3h2.51v-2.589h2.509V548.2h-2.509Z" transform="translate(0 5.761)" fill="#fff"></path><path id="Trazado_50085" data-name="Trazado 50085" d="M719.755,538.115h7.533V535.6h-7.533a7.535,7.535,0,0,0-7.534,7.536h2.512A5.022,5.022,0,0,1,719.755,538.115Z" transform="translate(0.823 3.292)" fill="#fff"></path><path id="Trazado_50086" data-name="Trazado 50086" d="M729.413,528.848l-5.023,5.024h3.769v7.535h0a5.024,5.024,0,0,1-5.024,5.024H715.6v2.512h7.536a7.533,7.533,0,0,0,7.533-7.536h0v-7.535h3.767Z" transform="translate(2.47)" fill="#fff"></path></g></svg>