<svg xmlns="http://www.w3.org/2000/svg" width="61.905" height="62.61" viewBox="0 0 61.905 62.61"><g id="Grupo_547" data-name="Grupo 547" transform="translate(448.51 -421.089)"><path id="Trazado_819" data-name="Trazado 819" d="M-375.174,435.759c-3.713-4.138-10.126-4.52-13.627-3.916l-4.739,1.608-1.705-1.77s9.006-4.279,16.043-1.489a25.442,25.442,0,0,1,5.133,2.775l-.83-1.415-1.6-2.725a26.169,26.169,0,0,0-6.8-2.371c-5.454-1.078-10.2,2-12.635,4.589L-399,435.136l-2.162-.1c2.383-5.07,7-10,11.613-11.265,4.191-1.145,4.113-.816,5.311-.838l-.71-.309-3.151-1.373h-.012a22.429,22.429,0,0,0-6.109,1.689c-5.1,2.221-7.514,7.457-8.01,11.7l.033,5-2.218,1.06s-1.158-10.307,3.707-16.107a24.515,24.515,0,0,1,3.627-3.5l-1.206.273-3.351.759-.377.225a22.519,22.519,0,0,0-3.676,4.705c-2.814,4.8-1.23,11.021.409,14.173l2.774,4.093-1.169,2.1s-6.979-7.442-6.459-14.994a26.751,26.751,0,0,1,.744-4.655l-.428.49-2.271,2.6-.408.951a22.549,22.549,0,0,0-.083,5.459c.587,5.529,5.561,9.594,8.753,11.154l4.783,1.471.346,2.135s-10.46-1.95-14.167-7.935a28.037,28.037,0,0,1-2.185-4.378l-.089.953-.323,3.449.03.134a24.176,24.176,0,0,0,3.26,4.884c3.794,4.449,10.069,4.645,13.577,4.084l4.952-1.343,1.49,1.585s-9.327,4.462-16.329,1.585a26.869,26.869,0,0,1-4.39-2.308l.657,1.12,1.748,2.98.083.074a21.837,21.837,0,0,0,5.805,1.966c6.1,1.212,10.84-2.333,13.309-4.889l3.04-3.661,2.193.157s-4.714,9-12.041,10.9a27,27,0,0,1-5.413.822l1.328.578,2.816,1.227a22.453,22.453,0,0,0,6.3-1.715c5.1-2.221,7.48-8.186,8.01-11.7l-.033-5,2.218-1.06s1.423,10.241-3.442,16.04a26.985,26.985,0,0,1-3.9,3.78l1.368-.31,3.093-.7a22.429,22.429,0,0,0,4.158-5.162c2.814-4.8,1.462-10.821-.41-14.172l-3.088-4.275,1.131-2.187c3.535,3.142,6.89,10.039,6.546,15.035-.312,4.529-.661,4.689-1.235,6.1l1.336-1.531,2.172-2.488a22.216,22.216,0,0,0,.271-6.7c-.269-4.456-4.585-9.643-8.571-11.237l-4.8-1.389-.428-2.434c8.4,1.542,12.921,5.721,14.349,8.1a24.726,24.726,0,0,1,2.243,4.628l.084-.9.323-3.449-.116-.521A22.521,22.521,0,0,0-375.174,435.759Z" transform="translate(-23.998)" fill="#fff" fill-rule="evenodd"></path><g id="Grupo_546" data-name="Grupo 546" transform="translate(-448.51 477.404)"><path id="Trazado_820" data-name="Trazado 820" d="M-380.674,635.724h1.156l-.586-1.576Z" transform="translate(399.244 -632.138)" fill="#fff" fill-rule="evenodd"></path><path id="Trazado_821" data-name="Trazado 821" d="M-306.132,634a.559.559,0,0,0,.086-.32.519.519,0,0,0-.114-.348.517.517,0,0,0-.32-.167q-.1-.015-.622-.015h-.665v1.083h.63a3.217,3.217,0,0,0,.765-.053A.455.455,0,0,0-306.132,634Z" transform="translate(346.295 -631.412)" fill="#fff" fill-rule="evenodd"></path><path id="Trazado_822" data-name="Trazado 822" d="M-335.048,633.177a4.108,4.108,0,0,0-.611-.029h-.41v1.214h.465a2.16,2.16,0,0,0,.671-.067.553.553,0,0,0,.265-.21.582.582,0,0,0,.1-.332.559.559,0,0,0-.135-.385A.588.588,0,0,0-335.048,633.177Z" transform="translate(366.849 -631.412)" fill="#fff" fill-rule="evenodd"></path><path id="Trazado_823" data-name="Trazado 823" d="M-322.473,635.724h1.156l-.586-1.576Z" transform="translate(356.975 -632.138)" fill="#fff" fill-rule="evenodd"></path><path id="Trazado_824" data-name="Trazado 824" d="M-395.418,634a.56.56,0,0,0,.086-.32.519.519,0,0,0-.114-.348.516.516,0,0,0-.32-.167q-.1-.015-.622-.015h-.665v1.083h.63a3.217,3.217,0,0,0,.765-.053A.456.456,0,0,0-395.418,634Z" transform="translate(411.139 -631.412)" fill="#fff" fill-rule="evenodd"></path><path id="Trazado_825" data-name="Trazado 825" d="M-448.51,626.807v6.3H-386.6v-6.3Zm4.5,3.489v1.787h-.854V630.29l-1.547-2.467h1l1,1.687.971-1.687h.98Zm8.182-1.753h-1.243v3.54h-.854v-3.54h-1.249v-.72h3.346Zm3.329,3.54-.611-.93a5.862,5.862,0,0,0-.451-.625.657.657,0,0,0-.256-.176,1.419,1.419,0,0,0-.431-.048h-.173v1.779h-.854v-4.26h1.794a3.048,3.048,0,0,1,.983.115.969.969,0,0,1,.491.408,1.239,1.239,0,0,1,.184.671,1.145,1.145,0,0,1-.278.792,1.329,1.329,0,0,1-.832.394,1.951,1.951,0,0,1,.454.357,4.833,4.833,0,0,1,.483.692l.515.831Zm4.359,0-.364-.97H-430.2l-.351.97h-.9l1.638-4.26h.9l1.69,4.26Zm4.727,0h-.853l-1.71-2.8v2.8h-.789v-4.26h.827l1.736,2.855v-2.855h.789Zm3.906-.553a1.207,1.207,0,0,1-.569.475,2.362,2.362,0,0,1-.918.156,1.813,1.813,0,0,1-1.228-.373,1.623,1.623,0,0,1-.512-1.085l.831-.083a1.024,1.024,0,0,0,.3.617.908.908,0,0,0,.616.2.937.937,0,0,0,.618-.176.525.525,0,0,0,.208-.411.4.4,0,0,0-.087-.258.692.692,0,0,0-.306-.184q-.149-.053-.679-.186a2.292,2.292,0,0,1-.957-.424,1.119,1.119,0,0,1-.387-.86,1.117,1.117,0,0,1,.182-.611,1.145,1.145,0,0,1,.526-.432,2.07,2.07,0,0,1,.828-.149,1.743,1.743,0,0,1,1.191.355,1.266,1.266,0,0,1,.421.948l-.854.03a.74.74,0,0,0-.233-.474.839.839,0,0,0-.535-.145.948.948,0,0,0-.577.155.315.315,0,0,0-.134.266.328.328,0,0,0,.127.259,2.2,2.2,0,0,0,.78.287,4.049,4.049,0,0,1,.916.306,1.186,1.186,0,0,1,.465.433,1.279,1.279,0,0,1,.168.678A1.263,1.263,0,0,1-419.51,631.529Zm3.657-1.316a1.223,1.223,0,0,1-.441.2,4.793,4.793,0,0,1-.882.061h-.554v1.606h-.854v-4.26h1.366a4.886,4.886,0,0,1,1.011.064,1.107,1.107,0,0,1,.607.417,1.332,1.332,0,0,1,.244.83,1.412,1.412,0,0,1-.14.659A1.177,1.177,0,0,1-415.853,630.214Zm3.642,1.869-.364-.97h-1.692l-.35.97h-.9l1.638-4.26h.9l1.69,4.26Zm4.151,0-.611-.93a5.894,5.894,0,0,0-.451-.625.657.657,0,0,0-.256-.176,1.415,1.415,0,0,0-.431-.048h-.173v1.779h-.854v-4.26h1.794a3.049,3.049,0,0,1,.983.115.968.968,0,0,1,.491.408,1.237,1.237,0,0,1,.185.671,1.145,1.145,0,0,1-.278.792,1.329,1.329,0,0,1-.832.394,1.957,1.957,0,0,1,.454.357,4.855,4.855,0,0,1,.483.692l.515.831Zm4.684,0h-3.205v-4.26h3.123v.72h-2.268v.946h2.109v.72h-2.109v1.154h2.351Zm4.077,0h-.853l-1.71-2.8v2.8h-.79v-4.26h.827l1.736,2.855v-2.855h.789Zm3.793-.27a1.782,1.782,0,0,1-1.12.341,1.809,1.809,0,0,1-1.382-.58,2.235,2.235,0,0,1-.541-1.587,2.349,2.349,0,0,1,.544-1.653,1.856,1.856,0,0,1,1.431-.589,1.745,1.745,0,0,1,1.258.463,1.684,1.684,0,0,1,.432.786l-.843.2a.906.906,0,0,0-.312-.523.89.89,0,0,0-.577-.191.955.955,0,0,0-.762.34,1.67,1.67,0,0,0-.293,1.1,1.8,1.8,0,0,0,.288,1.149.932.932,0,0,0,.749.343.85.85,0,0,0,.585-.218,1.271,1.271,0,0,0,.352-.686l.825.256A1.9,1.9,0,0,1-395.505,631.813Zm2.189.27h-.854v-4.26h.854Zm3.692,0-.364-.97h-1.692l-.351.97h-.9l1.638-4.26h.9l1.69,4.26Z" transform="translate(448.51 -626.807)" fill="#fff" fill-rule="evenodd"></path><path id="Trazado_826" data-name="Trazado 826" d="M-239.966,635.724h1.156l-.586-1.576Z" transform="translate(297.055 -632.138)" fill="#fff" fill-rule="evenodd"></path></g><path id="Trazado_827" data-name="Trazado 827" d="M-442.993,608.547v-4.278h1.041v4.278Zm1.862,0v-4.278H-440l.768,1.4c.125.229.244.455.357.68s.219.446.318.664q-.022-.485-.033-.908t-.011-.746v-1.095h1.007v4.278h-1.125l-.8-1.446q-.142-.256-.307-.574t-.351-.687c.02.28.035.538.044.779s.014.453.014.64v1.289Zm4.138-1.422h1a.763.763,0,0,0,.2.552.787.787,0,0,0,.567.185.912.912,0,0,0,.491-.111.349.349,0,0,0,.175-.311.394.394,0,0,0-.042-.182.275.275,0,0,0-.116-.121,3.57,3.57,0,0,0-.556-.2q-.441-.137-.746-.265a1.574,1.574,0,0,1-.667-.484,1.129,1.129,0,0,1-.228-.7,1.2,1.2,0,0,1,.438-.975,1.808,1.808,0,0,1,1.187-.362,1.7,1.7,0,0,1,1.165.381,1.3,1.3,0,0,1,.431,1.029h-.979a.644.644,0,0,0-.2-.441.728.728,0,0,0-.483-.142.707.707,0,0,0-.409.109.325.325,0,0,0-.158.277q0,.284.75.537l.207.07a.328.328,0,0,0,.042.014,3.7,3.7,0,0,1,.967.427,1.137,1.137,0,0,1,.3.4,1.233,1.233,0,0,1,.1.507,1.181,1.181,0,0,1-.466,1,2.108,2.108,0,0,1-1.305.356,1.723,1.723,0,0,1-1.208-.383,1.641,1.641,0,0,1-.461-1.158Zm4.874,1.422v-3.409h-1.166v-.869h3.373v.869h-1.166v3.409Zm2.69,0v-4.278h1.041v4.278Zm2.683,0v-3.409h-1.166v-.869h3.373v.869H-425.7v3.409Zm2.638-4.278h1.024v2.67a.972.972,0,0,0,.16.629.656.656,0,0,0,.526.187.646.646,0,0,0,.521-.187.984.984,0,0,0,.157-.629v-2.67h1.036v2.54a2.992,2.992,0,0,1-.1.857,1.259,1.259,0,0,1-.329.54,1.578,1.578,0,0,1-.56.344,2.125,2.125,0,0,1-.721.115,2.123,2.123,0,0,1-.72-.115,1.577,1.577,0,0,1-.559-.344,1.3,1.3,0,0,1-.335-.544,2.906,2.906,0,0,1-.1-.853v-2.54Zm7.81,2.778a1.883,1.883,0,0,1-.576,1.194,1.751,1.751,0,0,1-1.217.424,1.839,1.839,0,0,1-1.44-.613,2.331,2.331,0,0,1-.547-1.613,2.39,2.39,0,0,1,.557-1.659,1.909,1.909,0,0,1,1.491-.619,1.774,1.774,0,0,1,1.209.41,1.624,1.624,0,0,1,.535,1.119h-.979a.789.789,0,0,0-.272-.463.831.831,0,0,0-.526-.156.8.8,0,0,0-.692.363,1.71,1.71,0,0,0-.254.993,1.7,1.7,0,0,0,.24.974.777.777,0,0,0,.676.347.837.837,0,0,0,.562-.179.818.818,0,0,0,.264-.523Zm.629,1.5v-4.278h1.041v4.278Zm2.756-2.136a1.694,1.694,0,0,0,.253,1,.843.843,0,0,0,.725.348.851.851,0,0,0,.73-.348,1.678,1.678,0,0,0,.256-1,1.674,1.674,0,0,0-.256-1,.85.85,0,0,0-.73-.35.842.842,0,0,0-.725.348,1.693,1.693,0,0,0-.253,1Zm-1.059,0a2.367,2.367,0,0,1,.548-1.649,1.91,1.91,0,0,1,1.488-.606,1.927,1.927,0,0,1,1.5.607,2.357,2.357,0,0,1,.554,1.648,2.357,2.357,0,0,1-.554,1.648,1.927,1.927,0,0,1-1.5.607,1.909,1.909,0,0,1-1.488-.606,2.366,2.366,0,0,1-.548-1.649Zm4.71,2.136v-4.278h1.127l.768,1.4c.125.229.244.455.356.68s.219.446.318.664c-.015-.323-.026-.626-.033-.908s-.011-.531-.011-.746v-1.095h1.007v4.278h-1.125l-.8-1.446q-.141-.256-.307-.574t-.351-.687c.02.28.035.538.043.779s.014.453.014.64v1.289Zm5.5-1.672h.889l-.453-1.474-.437,1.474Zm-.1-2.606h1.139l1.438,4.278h-1.12l-.248-.785h-1.36l-.232.785h-1.081l1.465-4.278Zm3,4.278v-4.278h1.047v3.349h1.97v.928Zm3.469,0v-4.278h1.041v4.278Zm2.915-.9h.566a.83.83,0,0,0,.708-.3,1.568,1.568,0,0,0,.225-.938,1.568,1.568,0,0,0-.225-.94.831.831,0,0,0-.708-.3h-.566v2.475Zm-1.047.9v-4.278h1.737a1.739,1.739,0,0,1,1.386.553,2.345,2.345,0,0,1,.482,1.589,2.266,2.266,0,0,1-.5,1.6,1.969,1.969,0,0,1-1.5.532Zm5.355-1.672h.89l-.453-1.474-.437,1.474Zm-.1-2.606h1.139l1.437,4.278h-1.12l-.248-.785h-1.36l-.232.785h-1.081l1.465-4.278Zm4.024,3.379h.566a.829.829,0,0,0,.709-.3,1.567,1.567,0,0,0,.225-.938,1.568,1.568,0,0,0-.225-.94.831.831,0,0,0-.709-.3h-.566v2.475Zm-1.047.9v-4.278h1.738a1.74,1.74,0,0,1,1.386.553,2.346,2.346,0,0,1,.482,1.589,2.265,2.265,0,0,1-.5,1.6,1.968,1.968,0,0,1-1.5.532Z" transform="translate(-4.007 -132.948)" fill="#fff"></path></g></svg>