<svg xmlns="http://www.w3.org/2000/svg" width="145.429" height="25.964" viewBox="0 0 145.429 25.964"><g id="Grupo_545" data-name="Grupo 545" transform="translate(707.629 -527.92)"><path id="Trazado_817" data-name="Trazado 817" d="M-702.429,540.821a8.548,8.548,0,0,1-1.015-4.43,8.721,8.721,0,0,1,8.379-8.471h13.4l-5.2,5.246h-8.289a7.85,7.85,0,0,0-7.274,7.654Zm5.11-3.759a7.466,7.466,0,0,1,2.437-3.262,7.126,7.126,0,0,0-5.789,3.262Zm2.681-2.608a8.7,8.7,0,0,0-2.02,2.608h4.022a8.947,8.947,0,0,0-2-2.608Zm-6.368,3.288a7.35,7.35,0,0,0-.833,2.926h3.759a8.482,8.482,0,0,1,.516-2.926Zm4.094,0a11.359,11.359,0,0,0-.58,2.926h5.689a11.328,11.328,0,0,0-.579-2.926Zm8.217-.679a6.912,6.912,0,0,0-5.689-3.262,8.389,8.389,0,0,1,2.427,3.262Zm-3.017.679a8.248,8.248,0,0,1,.5,2.926h3.759a6.679,6.679,0,0,0-.833-2.926Zm-8.959,7.021a6.888,6.888,0,0,0,5.789,3.269,7.749,7.749,0,0,1-2.437-3.269Zm6.033,2.68a9.251,9.251,0,0,0,2-2.68h-4.022a8.993,8.993,0,0,0,2.02,2.68Zm-2.927-3.26a9.475,9.475,0,0,1-.516-2.927h-3.759a7.6,7.6,0,0,0,.833,2.927Zm5.183,0a11.789,11.789,0,0,0,.579-2.927h-5.689a11.823,11.823,0,0,0,.58,2.927Zm.425.58a8.751,8.751,0,0,1-2.427,3.269,6.685,6.685,0,0,0,5.689-3.269Zm3.669-.58a6.887,6.887,0,0,0,.833-2.927h-3.759a9.15,9.15,0,0,1-.5,2.927Zm1.422-3.271a7.847,7.847,0,0,1-7.274,7.791h-8.288l-5.2,5.183h13.4a8.7,8.7,0,0,0,8.379-8.443,8.432,8.432,0,0,0-1.015-4.44v-.091Z" transform="translate(0 0)" fill="#fff" fill-rule="evenodd"></path><path id="Trazado_818" data-name="Trazado 818" d="M-640.77,548.933c-3.482,0-5.974-2.091-5.974-5.363,0-3.231,2.583-5.381,5.974-5.381s5.973,2.136,5.973,5.381c0,3.272-2.513,5.363-5.973,5.363Zm59.523-10.5v10.279h-3.472l-.053-1.037h-.075a4.312,4.312,0,0,1-3.427,1.264c-2.483,0-4.659-2.158-4.659-5.376,0-2.986,1.929-5.369,4.888-5.369a4.067,4.067,0,0,1,3.142,1.17h.093l.036-.931Zm-26.806,0v10.279h-3.474l-.052-1.037h-.075a4.313,4.313,0,0,1-3.426,1.263c-2.483,0-4.66-2.158-4.66-5.375,0-2.986,1.93-5.369,4.888-5.369a4.071,4.071,0,0,1,3.143,1.169h.092l.035-.931Zm-16.872.008h3.583v10.286h-3.583V538.451Zm19.178,10.262V534.219h3.569v4.967h.038a5.593,5.593,0,0,1,3.1-.986,4.888,4.888,0,0,1,4.822,5.19c0,3.693-2.264,5.553-4.843,5.553a4.271,4.271,0,0,1-3.186-1.173h-.057l-.051.943Zm-35.023-2.352c1.452,0,2.306-1.273,2.306-2.791,0-1.537-.813-2.811-2.306-2.811-1.561,0-2.307,1.274-2.307,2.811,0,1.518.856,2.791,2.307,2.791Zm14.111-.441a4.437,4.437,0,0,1-.989.173,1.408,1.408,0,0,1-1.517-1.6v-3.475h2.248v-2.584h-2.248v-3.31h-3.576v3.31H-634.3v2.584h1.564v4.065c0,2.236,1.038,3.84,3.683,3.84a10.7,10.7,0,0,0,1.957-.2l.441-2.813Zm-40.659,2.42a14.969,14.969,0,0,0,4.13.581c3.051,0,6.1-1.081,6.1-4.431,0-4.6-6.339-3.961-6.339-5.793,0-.938.975-1.14,1.931-1.14a10.64,10.64,0,0,1,3.373.787l.288-3.167a12.381,12.381,0,0,0-3.649-.493c-3.012,0-5.984,1.176-5.984,4.16,0,4.517,6.323,3.575,6.323,5.945,0,.911-.911,1.258-2.073,1.258a9.235,9.235,0,0,1-3.745-1.087l-.35,3.381Zm78.17-4.868c0,1.7.949,2.762,2.177,2.762a2.421,2.421,0,0,0,2.2-2.621c0-1.593-.961-2.683-2.2-2.683a2.333,2.333,0,0,0-2.177,2.542Zm-26.806.006c0,1.7.949,2.762,2.177,2.762a2.421,2.421,0,0,0,2.2-2.621c0-1.593-.961-2.682-2.2-2.682a2.332,2.332,0,0,0-2.177,2.541Zm-31.7-4.876a8.551,8.551,0,0,0-2.55-.412c-3.221,0-5.635,2.016-5.635,5.373a5.21,5.21,0,0,0,5.492,5.374,8.512,8.512,0,0,0,2.693-.449l-.174-3a4.234,4.234,0,0,1-1.811.532,2.392,2.392,0,0,1-2.5-2.46,2.42,2.42,0,0,1,2.538-2.482,4.055,4.055,0,0,1,1.769.5l.174-2.981Zm81.645,10.121h3.565v-4.757h.039l3.167,4.757h3.969l-3.822-5.448,3.725-4.817h-3.964l-3.075,4.238h-.039v-8.464h-3.565v14.491Zm-12.922,0h3.479v-5.31a1.933,1.933,0,0,1,1.879-2.1c1.2,0,1.888.783,1.888,2.1v5.31h3.48v-6.19a4.08,4.08,0,0,0-4.252-4.323,4.432,4.432,0,0,0-3.231,1.392h-.073l-.036-1.139h-3.134v10.259Zm-44.2-15.478a2.016,2.016,0,0,0-2.009,2.009,2.016,2.016,0,0,0,2.009,2.007,2.016,2.016,0,0,0,2.008-2.007,2.017,2.017,0,0,0-2.008-2.009Zm25.217,10.329a2.322,2.322,0,0,0-2.149-2.6,2.327,2.327,0,0,0-2.169,2.6c0,1.522.793,2.6,2.169,2.6,1.242,0,2.149-1.032,2.149-2.6Z" transform="translate(-6.927 -0.919)" fill="#fff" fill-rule="evenodd"></path></g></svg>