<svg xmlns="http://www.w3.org/2000/svg" width="129.115" height="24.118" viewBox="0 0 129.115 24.118"><g id="Grupo_549" data-name="Grupo 549" transform="translate(-151 -367.587)"><path id="Trazado_828" data-name="Trazado 828" d="M154.74,369.52a1.807,1.807,0,1,1-1.807,1.806,1.809,1.809,0,0,1,1.807-1.806m0-1.933a3.74,3.74,0,1,0,3.739,3.739,3.74,3.74,0,0,0-3.739-3.739Z" fill="#fff"></path><path id="Trazado_829" data-name="Trazado 829" d="M176.261,369.52a1.807,1.807,0,1,1-1.807,1.806,1.809,1.809,0,0,1,1.807-1.806m0-1.933a3.74,3.74,0,1,0,3.74,3.739,3.739,3.739,0,0,0-3.74-3.739Z" transform="translate(-12.278)" fill="#fff"></path><path id="Trazado_830" data-name="Trazado 830" d="M196.8,369.52A1.807,1.807,0,1,1,195,371.326a1.809,1.809,0,0,1,1.807-1.806m0-1.933a3.74,3.74,0,1,0,3.739,3.739,3.74,3.74,0,0,0-3.739-3.739Z" transform="translate(-23.997)" fill="#fff"></path><path id="Trazado_831" data-name="Trazado 831" d="M172.807,395.336a1.427,1.427,0,0,1,1.426,1.426,1.481,1.481,0,0,1-.008.153l-.013.12V403.9h-20.9v-7.14a1.426,1.426,0,0,1,2.852,0v4.877h6.308v-2.563h.084v-2.314a1.426,1.426,0,0,1,2.852,0,1.442,1.442,0,0,1-.033.3l-.051.239v4.337h6.035v-2.563h.021v-2.314a1.427,1.427,0,0,1,1.426-1.426m0-2.314a3.74,3.74,0,0,0-3.74,3.739h-.021v2.563h-1.408v-1.778a3.739,3.739,0,1,0-7.395-.785h-.084v2.563h-1.681v-2.563a3.74,3.74,0,0,0-7.479,0v9.454h25.526v-9.06a3.737,3.737,0,0,0-3.718-4.133Z" transform="translate(0 -14.51)" fill="#fff"></path><g id="Grupo_548" data-name="Grupo 548" transform="translate(187.4 369.521)"><path id="Trazado_832" data-name="Trazado 832" d="M239.614,380.038a3.8,3.8,0,0,1-2.192-.6,2.263,2.263,0,0,1-1.025-1.6q-.03-.2.183-.2h1.2a.215.215,0,0,1,.212.162,1.175,1.175,0,0,0,.569.707,2.121,2.121,0,0,0,1.1.264,1.6,1.6,0,0,0,.881-.212.655.655,0,0,0,.325-.576.621.621,0,0,0-.231-.5,1.49,1.49,0,0,0-.6-.283q-.367-.091-.818-.162a7.366,7.366,0,0,1-.9-.2,3.836,3.836,0,0,1-.815-.338,1.575,1.575,0,0,1-.6-.625,2.053,2.053,0,0,1-.234-1.015,1.9,1.9,0,0,1,.783-1.584,3.257,3.257,0,0,1,2.045-.6,3.586,3.586,0,0,1,2.017.549,2.159,2.159,0,0,1,1,1.475c.033.128-.028.192-.183.192h-1.207a.24.24,0,0,1-.227-.153,1.013,1.013,0,0,0-.453-.6,1.608,1.608,0,0,0-.857-.209,1.506,1.506,0,0,0-.867.226.706.706,0,0,0-.33.611.68.68,0,0,0,.305.588,1.84,1.84,0,0,0,.771.291q.465.076,1,.2a7.7,7.7,0,0,1,1,.3,1.662,1.662,0,0,1,.771.61,1.852,1.852,0,0,1,.308,1.1,1.892,1.892,0,0,1-.8,1.591A3.458,3.458,0,0,1,239.614,380.038Z" transform="translate(-236.116 -372.417)" fill="#fff"></path><path id="Trazado_833" data-name="Trazado 833" d="M254.628,373.544a.97.97,0,0,1-1.281,0,.781.781,0,0,1-.259-.594.766.766,0,0,1,.259-.589.986.986,0,0,1,1.281,0,.765.765,0,0,1,.259.589A.779.779,0,0,1,254.628,373.544Zm.146,6.2a1.794,1.794,0,0,1-1.124-.323,1.051,1.051,0,0,1-.418-.879v-3.66a.17.17,0,0,1,.192-.192h1.128a.17.17,0,0,1,.192.192v3.177q0,.385.345.384a1.175,1.175,0,0,0,.3-.034q.2-.02.212.162l.1.838a.178.178,0,0,1-.162.212A2.709,2.709,0,0,1,254.774,379.74Z" transform="translate(-245.641 -372.11)" fill="#fff"></path><path id="Trazado_834" data-name="Trazado 834" d="M262.9,382.926a3.194,3.194,0,0,1-1.724-.418,1.614,1.614,0,0,1-.778-1.167q-.03-.2.193-.2l.99.01a.259.259,0,0,1,.222.143q.211.546,1.1.547a1.253,1.253,0,0,0,.6-.123.367.367,0,0,0,.227-.325q0-.261-.323-.377a3.582,3.582,0,0,0-.786-.17,8.025,8.025,0,0,1-.929-.165,1.547,1.547,0,0,1-.788-.456,1.307,1.307,0,0,1-.323-.931,1.34,1.34,0,0,1,.615-1.148,2.771,2.771,0,0,1,1.626-.433,2.947,2.947,0,0,1,1.589.4,1.494,1.494,0,0,1,.741,1.054c.02.135-.041.2-.182.2h-1a.219.219,0,0,1-.2-.123.7.7,0,0,0-.347-.357,1.382,1.382,0,0,0-1.15-.02.346.346,0,0,0-.217.308.431.431,0,0,0,.327.4,3.482,3.482,0,0,0,.8.2q.47.066.934.177a1.582,1.582,0,0,1,.791.453,1.274,1.274,0,0,1,.327.919,1.356,1.356,0,0,1-.625,1.172A2.951,2.951,0,0,1,262.9,382.926Z" transform="translate(-249.81 -375.296)" fill="#fff"></path><path id="Trazado_835" data-name="Trazado 835" d="M275.918,381.187a2.122,2.122,0,0,1-1.559-.561,2.048,2.048,0,0,1-.569-1.527v-1.744h-.931a.17.17,0,0,1-.192-.192v-.837a.17.17,0,0,1,.192-.193h.931v-1.28a.168.168,0,0,1,.187-.192h1.133a.17.17,0,0,1,.192.192v1.28h1.581a.17.17,0,0,1,.192.193v.837a.17.17,0,0,1-.192.192H275.3v1.694a.808.808,0,0,0,.227.606.836.836,0,0,0,.611.222,2.989,2.989,0,0,0,.754-.094.169.169,0,0,1,.221.152l.134.867a.206.206,0,0,1-.153.222A4.818,4.818,0,0,1,275.918,381.187Z" transform="translate(-256.81 -373.556)" fill="#fff"></path><path id="Trazado_836" data-name="Trazado 836" d="M287.608,382.926a2.82,2.82,0,0,1-2.008-.716,2.466,2.466,0,0,1-.766-1.889,2.513,2.513,0,0,1,.742-1.9,2.683,2.683,0,0,1,1.943-.714,2.6,2.6,0,0,1,1.921.707,2.516,2.516,0,0,1,.709,1.865c0,.04,0,.1,0,.172s0,.133,0,.173a.191.191,0,0,1-.212.172h-3.62a1.265,1.265,0,0,0,.48.714,1.4,1.4,0,0,0,.85.261,1.061,1.061,0,0,0,.828-.3.456.456,0,0,1,.241-.1h1.133a.19.19,0,0,1,.158.057.131.131,0,0,1,0,.146,2.028,2.028,0,0,1-.9.99A2.948,2.948,0,0,1,287.608,382.926ZM286.3,379.9h2.409a1.085,1.085,0,0,0-.332-.771,1.134,1.134,0,0,0-.815-.3,1.257,1.257,0,0,0-.843.3A1.206,1.206,0,0,0,286.3,379.9Z" transform="translate(-263.751 -375.296)" fill="#fff"></path><path id="Trazado_837" data-name="Trazado 837" d="M309.016,382.592a.175.175,0,0,1-.153.212,2.794,2.794,0,0,1-.773.123,1.8,1.8,0,0,1-1.126-.322,1.049,1.049,0,0,1-.421-.879v-1.582a1.2,1.2,0,0,0-.28-.827A.968.968,0,0,0,305.5,379a.825.825,0,0,0-.664.3,1.186,1.186,0,0,0-.252.791v2.483a.17.17,0,0,1-.192.192h-1.137a.17.17,0,0,1-.192-.192v-2.429a1.25,1.25,0,0,0-.263-.827.865.865,0,0,0-.7-.315.965.965,0,0,0-.741.3,1.11,1.11,0,0,0-.278.791v2.483a.17.17,0,0,1-.192.192h-1.128a.17.17,0,0,1-.192-.192V379.4a.349.349,0,0,0-.394-.394,2.129,2.129,0,0,0-.222.03q-.222,0-.222-.158v-.828a.209.209,0,0,1,.153-.222,1.957,1.957,0,0,1,.724-.123,1.274,1.274,0,0,1,1.2.616,2.262,2.262,0,0,1,1.7-.616,1.938,1.938,0,0,1,1.6.714,2.222,2.222,0,0,1,1.764-.714,2.131,2.131,0,0,1,1.59.611,2.21,2.21,0,0,1,.6,1.621v1.3q0,.385.329.384a1.155,1.155,0,0,0,.305-.034q.211-.02.222.162Z" transform="translate(-271.681 -375.296)" fill="#fff"></path><path id="Trazado_838" data-name="Trazado 838" d="M330.446,382.592a.178.178,0,0,1-.163.212,2.666,2.666,0,0,1-.754.123,1.327,1.327,0,0,1-1.271-.615,2.492,2.492,0,0,1-1.7.615,2.61,2.61,0,0,1-1.911-.726,2.766,2.766,0,0,1,0-3.766,2.616,2.616,0,0,1,1.909-.724,2.267,2.267,0,0,1,1.433.463v-.108a.17.17,0,0,1,.192-.192H329.3a.166.166,0,0,1,.188.192v3.167q0,.394.335.394a1.22,1.22,0,0,0,.311-.034q.2-.02.212.162Zm-3.753-.848a1.168,1.168,0,0,0,.918-.4,1.676,1.676,0,0,0,0-2.057,1.171,1.171,0,0,0-.918-.4,1.213,1.213,0,0,0-.939.4,1.639,1.639,0,0,0,0,2.057A1.209,1.209,0,0,0,326.692,381.744Z" transform="translate(-286.042 -375.296)" fill="#fff"></path><path id="Trazado_839" data-name="Trazado 839" d="M353.143,379.386a.168.168,0,0,1-.152.212,2.72,2.72,0,0,1-.774.123,1.313,1.313,0,0,1-1.275-.635,2.329,2.329,0,0,1-1.675.635,2.61,2.61,0,0,1-1.911-.726,2.766,2.766,0,0,1,0-3.766,2.616,2.616,0,0,1,1.909-.724,2.326,2.326,0,0,1,1.4.433v-2.655a.17.17,0,0,1,.192-.192h1.143a.166.166,0,0,1,.188.192v5.753q0,.385.335.384a1.106,1.106,0,0,0,.3-.034q.211-.02.222.162Zm-3.743-.847a1.167,1.167,0,0,0,.918-.4,1.675,1.675,0,0,0,0-2.057,1.171,1.171,0,0,0-.918-.4,1.213,1.213,0,0,0-.938.4,1.64,1.64,0,0,0,0,2.057A1.209,1.209,0,0,0,349.4,378.538Z" transform="translate(-298.997 -372.09)" fill="#fff"></path><path id="Trazado_840" data-name="Trazado 840" d="M366.111,382.926a2.821,2.821,0,0,1-2.008-.716,2.468,2.468,0,0,1-.766-1.889,2.514,2.514,0,0,1,.741-1.9,2.686,2.686,0,0,1,1.944-.714,2.6,2.6,0,0,1,1.922.707,2.517,2.517,0,0,1,.709,1.865c0,.04,0,.1-.005.172s-.005.133-.005.173a.19.19,0,0,1-.212.172h-3.62a1.268,1.268,0,0,0,.48.714,1.4,1.4,0,0,0,.85.261,1.059,1.059,0,0,0,.828-.3.458.458,0,0,1,.242-.1h1.133a.19.19,0,0,1,.158.057.129.129,0,0,1,0,.146,2.026,2.026,0,0,1-.9.99A2.949,2.949,0,0,1,366.111,382.926ZM364.8,379.9h2.409a1.088,1.088,0,0,0-.333-.771,1.134,1.134,0,0,0-.815-.3,1.256,1.256,0,0,0-.842.3A1.208,1.208,0,0,0,364.8,379.9Z" transform="translate(-308.536 -375.296)" fill="#fff"></path><path id="Trazado_841" data-name="Trazado 841" d="M235.92,408.28q-.231,0-.153-.222l3-6.7a.212.212,0,0,1,.212-.143h1.182a.219.219,0,0,1,.222.143l2.976,6.7a.171.171,0,0,1,0,.16.158.158,0,0,1-.143.061H241.93a.219.219,0,0,1-.222-.143l-.557-1.3h-3.177l-.542,1.3a.219.219,0,0,1-.222.143Zm2.591-2.744h2.118l-1.069-2.512Z" transform="translate(-235.748 -388.706)" fill="#fff"></path><path id="Trazado_842" data-name="Trazado 842" d="M257,411.112a3.186,3.186,0,0,1-1.724-.419,1.612,1.612,0,0,1-.778-1.167q-.03-.2.192-.2l.99.01a.26.26,0,0,1,.222.143q.211.547,1.1.547a1.264,1.264,0,0,0,.6-.123.368.368,0,0,0,.227-.326q0-.26-.323-.377a3.568,3.568,0,0,0-.786-.17,7.955,7.955,0,0,1-.929-.165,1.549,1.549,0,0,1-.788-.456,1.309,1.309,0,0,1-.323-.931,1.341,1.341,0,0,1,.616-1.148,2.767,2.767,0,0,1,1.626-.433,2.944,2.944,0,0,1,1.588.4,1.492,1.492,0,0,1,.741,1.054q.03.2-.182.2h-1a.219.219,0,0,1-.2-.123.7.7,0,0,0-.347-.357,1.224,1.224,0,0,0-.579-.136,1.211,1.211,0,0,0-.571.116.345.345,0,0,0-.216.308.431.431,0,0,0,.327.4,3.505,3.505,0,0,0,.8.2q.47.066.933.177a1.584,1.584,0,0,1,.791.454,1.271,1.271,0,0,1,.327.919,1.356,1.356,0,0,1-.625,1.172A2.949,2.949,0,0,1,257,411.112Z" transform="translate(-246.441 -391.376)" fill="#fff"></path><path id="Trazado_843" data-name="Trazado 843" d="M269.331,401.729a.97.97,0,0,1-1.28,0,.781.781,0,0,1-.259-.594.766.766,0,0,1,.259-.588.985.985,0,0,1,1.28,0,.766.766,0,0,1,.259.588A.781.781,0,0,1,269.331,401.729Zm.146,6.2a1.793,1.793,0,0,1-1.123-.323,1.05,1.05,0,0,1-.419-.879v-3.66a.17.17,0,0,1,.192-.192h1.128a.17.17,0,0,1,.192.192v3.177q0,.385.345.384a1.175,1.175,0,0,0,.3-.034c.135-.013.205.041.212.162l.1.838a.178.178,0,0,1-.162.212A2.71,2.71,0,0,1,269.477,407.926Z" transform="translate(-254.028 -388.189)" fill="#fff"></path><path id="Trazado_844" data-name="Trazado 844" d="M277.607,411.112a3.189,3.189,0,0,1-1.725-.419,1.612,1.612,0,0,1-.778-1.167q-.03-.2.192-.2l.99.01a.259.259,0,0,1,.222.143q.212.547,1.1.547a1.263,1.263,0,0,0,.6-.123.368.368,0,0,0,.227-.326q0-.26-.323-.377a3.573,3.573,0,0,0-.786-.17,7.922,7.922,0,0,1-.929-.165,1.547,1.547,0,0,1-.788-.456,1.308,1.308,0,0,1-.323-.931,1.34,1.34,0,0,1,.615-1.148,2.768,2.768,0,0,1,1.626-.433,2.946,2.946,0,0,1,1.589.4,1.494,1.494,0,0,1,.741,1.054q.03.2-.183.2h-1a.219.219,0,0,1-.2-.123.7.7,0,0,0-.347-.357,1.226,1.226,0,0,0-.579-.136,1.213,1.213,0,0,0-.572.116.346.346,0,0,0-.216.308.432.432,0,0,0,.328.4,3.5,3.5,0,0,0,.8.2q.47.066.934.177a1.587,1.587,0,0,1,.791.454,1.273,1.273,0,0,1,.327.919,1.356,1.356,0,0,1-.625,1.172A2.949,2.949,0,0,1,277.607,411.112Z" transform="translate(-258.198 -391.376)" fill="#fff"></path><path id="Trazado_845" data-name="Trazado 845" d="M290.62,409.372a2.123,2.123,0,0,1-1.559-.562,2.046,2.046,0,0,1-.569-1.527v-1.744h-.931a.17.17,0,0,1-.192-.192v-.838a.17.17,0,0,1,.192-.192h.931v-1.28a.167.167,0,0,1,.187-.192h1.133a.169.169,0,0,1,.192.192v1.28h1.582a.17.17,0,0,1,.192.192v.838a.17.17,0,0,1-.192.192H290v1.694a.81.81,0,0,0,.226.606.838.838,0,0,0,.611.222,2.986,2.986,0,0,0,.753-.094.169.169,0,0,1,.222.153l.133.867a.206.206,0,0,1-.152.222A4.824,4.824,0,0,1,290.62,409.372Z" transform="translate(-265.197 -389.635)" fill="#fff"></path><path id="Trazado_846" data-name="Trazado 846" d="M302.311,411.112a2.821,2.821,0,0,1-2.008-.717,2.466,2.466,0,0,1-.766-1.889,2.511,2.511,0,0,1,.741-1.9,2.68,2.68,0,0,1,1.943-.714,2.6,2.6,0,0,1,1.922.706,2.519,2.519,0,0,1,.709,1.865c0,.04,0,.1-.005.172s0,.133,0,.173a.19.19,0,0,1-.212.172h-3.62a1.264,1.264,0,0,0,.48.714,1.4,1.4,0,0,0,.85.261,1.058,1.058,0,0,0,.828-.3.46.46,0,0,1,.242-.1h1.132a.191.191,0,0,1,.158.057.13.13,0,0,1,0,.145,2.026,2.026,0,0,1-.9.99A2.945,2.945,0,0,1,302.311,411.112Zm-1.31-3.03h2.409a1.084,1.084,0,0,0-.333-.771,1.13,1.13,0,0,0-.815-.3,1.255,1.255,0,0,0-.843.3A1.206,1.206,0,0,0,301,408.083Z" transform="translate(-272.139 -391.376)" fill="#fff"></path><path id="Trazado_847" data-name="Trazado 847" d="M320.442,410.777a.168.168,0,0,1-.153.212,2.813,2.813,0,0,1-.779.123,1.792,1.792,0,0,1-1.123-.323,1.049,1.049,0,0,1-.419-.879v-1.581a1.178,1.178,0,0,0-.288-.828.994.994,0,0,0-.771-.315,1.125,1.125,0,0,0-.812.3,1.044,1.044,0,0,0-.31.791v2.483a.17.17,0,0,1-.192.192h-1.128a.17.17,0,0,1-.192-.192v-3.167a.348.348,0,0,0-.394-.394,2.125,2.125,0,0,0-.222.03c-.148,0-.222-.053-.222-.158v-.828a.21.21,0,0,1,.153-.222,1.957,1.957,0,0,1,.724-.123,1.291,1.291,0,0,1,1.212.625,2.392,2.392,0,0,1,1.768-.625,2.141,2.141,0,0,1,1.594.61,2.207,2.207,0,0,1,.6,1.621v1.3q0,.385.335.384a1.1,1.1,0,0,0,.3-.034q.212-.02.222.162Z" transform="translate(-280.068 -391.376)" fill="#fff"></path><path id="Trazado_848" data-name="Trazado 848" d="M333.747,411.112a2.817,2.817,0,0,1-2.012-.717,2.735,2.735,0,0,1,0-3.785,3.172,3.172,0,0,1,3.707-.219,2.076,2.076,0,0,1,.847,1.332c.02.135-.038.2-.173.2h-1.079a.226.226,0,0,1-.212-.162.95.95,0,0,0-.4-.468,1.393,1.393,0,0,0-1.638.2,1.579,1.579,0,0,0,0,2.012,1.264,1.264,0,0,0,.958.379,1.329,1.329,0,0,0,.687-.172.843.843,0,0,0,.391-.473.239.239,0,0,1,.212-.163h1.079c.135,0,.192.068.173.2a2.076,2.076,0,0,1-.847,1.332A2.817,2.817,0,0,1,333.747,411.112Z" transform="translate(-290.073 -391.376)" fill="#fff"></path><path id="Trazado_849" data-name="Trazado 849" d="M346.951,401.729a.97.97,0,0,1-1.28,0,.781.781,0,0,1-.259-.594.766.766,0,0,1,.259-.588.985.985,0,0,1,1.28,0,.767.767,0,0,1,.259.588A.782.782,0,0,1,346.951,401.729Zm.146,6.2a1.793,1.793,0,0,1-1.123-.323,1.05,1.05,0,0,1-.419-.879v-3.66a.17.17,0,0,1,.192-.192h1.128a.17.17,0,0,1,.192.192v3.177q0,.385.344.384a1.182,1.182,0,0,0,.3-.034q.2-.02.212.162l.1.838a.178.178,0,0,1-.162.212A2.709,2.709,0,0,1,347.1,407.926Z" transform="translate(-298.31 -388.189)" fill="#fff"></path><path id="Trazado_850" data-name="Trazado 850" d="M359.3,410.777a.178.178,0,0,1-.163.212,2.661,2.661,0,0,1-.753.123,1.327,1.327,0,0,1-1.271-.616,2.493,2.493,0,0,1-1.7.616,2.61,2.61,0,0,1-1.912-.727,2.767,2.767,0,0,1,0-3.766,2.617,2.617,0,0,1,1.909-.724,2.264,2.264,0,0,1,1.433.463v-.109a.17.17,0,0,1,.192-.192h1.113a.166.166,0,0,1,.187.192v3.168q0,.394.335.394a1.215,1.215,0,0,0,.311-.034c.134-.013.205.041.212.162Zm-3.754-.847a1.167,1.167,0,0,0,.919-.4,1.677,1.677,0,0,0,0-2.056,1.17,1.17,0,0,0-.919-.4,1.211,1.211,0,0,0-.938.4,1.639,1.639,0,0,0,0,2.056A1.207,1.207,0,0,0,355.548,409.93Z" transform="translate(-302.504 -391.376)" fill="#fff"></path><path id="Trazado_851" data-name="Trazado 851" d="M378.775,408.223a3.8,3.8,0,0,1-2.192-.6,2.262,2.262,0,0,1-1.025-1.6c-.019-.135.041-.2.182-.2h1.2a.215.215,0,0,1,.212.163,1.175,1.175,0,0,0,.569.707,2.121,2.121,0,0,0,1.1.264,1.6,1.6,0,0,0,.882-.212.655.655,0,0,0,.325-.576.622.622,0,0,0-.232-.5,1.48,1.48,0,0,0-.6-.283q-.367-.091-.817-.163a7.345,7.345,0,0,1-.9-.2,3.821,3.821,0,0,1-.815-.338,1.583,1.583,0,0,1-.6-.625,2.054,2.054,0,0,1-.234-1.015,1.9,1.9,0,0,1,.784-1.584,3.253,3.253,0,0,1,2.044-.6,3.589,3.589,0,0,1,2.018.549,2.159,2.159,0,0,1,1,1.475c.033.128-.028.192-.182.192h-1.207a.239.239,0,0,1-.226-.153,1.012,1.012,0,0,0-.454-.6,1.611,1.611,0,0,0-.857-.209,1.5,1.5,0,0,0-.867.227.7.7,0,0,0-.33.611.681.681,0,0,0,.305.588,1.843,1.843,0,0,0,.771.291q.466.077,1,.2a7.679,7.679,0,0,1,1,.3,1.664,1.664,0,0,1,.771.61,1.853,1.853,0,0,1,.308,1.1,1.891,1.891,0,0,1-.8,1.591A3.453,3.453,0,0,1,378.775,408.223Z" transform="translate(-315.506 -388.497)" fill="#fff"></path><path id="Trazado_852" data-name="Trazado 852" d="M396.807,410.4a3.183,3.183,0,0,1-4.025,0,2.734,2.734,0,0,1,0-3.785,3.189,3.189,0,0,1,4.025,0,2.732,2.732,0,0,1,0,3.784Zm-2.976-.9a1.44,1.44,0,0,0,1.926,0,1.51,1.51,0,0,0,0-1.973,1.434,1.434,0,0,0-1.926,0,1.51,1.51,0,0,0,0,1.973Z" transform="translate(-324.899 -391.376)" fill="#fff"></path><path id="Trazado_853" data-name="Trazado 853" d="M409.544,411.112a2.817,2.817,0,0,1-2.012-.717,2.735,2.735,0,0,1,0-3.785,3.172,3.172,0,0,1,3.707-.219,2.076,2.076,0,0,1,.847,1.332c.019.135-.038.2-.173.2h-1.079a.226.226,0,0,1-.212-.162.951.951,0,0,0-.4-.468,1.393,1.393,0,0,0-1.638.2,1.579,1.579,0,0,0,0,2.012,1.264,1.264,0,0,0,.958.379,1.328,1.328,0,0,0,.687-.172.843.843,0,0,0,.391-.473.238.238,0,0,1,.212-.163h1.079c.135,0,.192.068.173.2a2.076,2.076,0,0,1-.847,1.332A2.817,2.817,0,0,1,409.544,411.112Z" transform="translate(-333.314 -391.376)" fill="#fff"></path><path id="Trazado_854" data-name="Trazado 854" d="M422.748,401.729a.97.97,0,0,1-1.28,0,.781.781,0,0,1-.259-.594.766.766,0,0,1,.259-.588.985.985,0,0,1,1.28,0,.767.767,0,0,1,.259.588A.782.782,0,0,1,422.748,401.729Zm.146,6.2a1.793,1.793,0,0,1-1.123-.323,1.05,1.05,0,0,1-.419-.879v-3.66a.17.17,0,0,1,.192-.192h1.128a.17.17,0,0,1,.192.192v3.177q0,.385.345.384a1.177,1.177,0,0,0,.3-.034q.2-.02.212.162l.1.838a.178.178,0,0,1-.162.212A2.709,2.709,0,0,1,422.894,407.926Z" transform="translate(-341.551 -388.189)" fill="#fff"></path><path id="Trazado_855" data-name="Trazado 855" d="M435.1,410.777a.178.178,0,0,1-.163.212,2.661,2.661,0,0,1-.753.123,1.327,1.327,0,0,1-1.271-.616,2.493,2.493,0,0,1-1.7.616,2.61,2.61,0,0,1-1.911-.727,2.767,2.767,0,0,1,0-3.766,2.617,2.617,0,0,1,1.909-.724,2.264,2.264,0,0,1,1.433.463v-.109a.17.17,0,0,1,.193-.192h1.113a.166.166,0,0,1,.188.192v3.168q0,.394.335.394a1.218,1.218,0,0,0,.311-.034q.2-.02.212.162Zm-3.754-.847a1.167,1.167,0,0,0,.919-.4,1.677,1.677,0,0,0,0-2.056,1.171,1.171,0,0,0-.919-.4,1.212,1.212,0,0,0-.938.4,1.641,1.641,0,0,0,0,2.056A1.208,1.208,0,0,0,431.344,409.93Z" transform="translate(-345.745 -391.376)" fill="#fff"></path><path id="Trazado_856" data-name="Trazado 856" d="M447.386,407.906a1.8,1.8,0,0,1-1.124-.323,1.051,1.051,0,0,1-.418-.879v-6.236a.17.17,0,0,1,.192-.192h1.128a.17.17,0,0,1,.192.192v5.753q0,.384.345.384a1.173,1.173,0,0,0,.3-.034q.2-.02.212.162l.1.838a.178.178,0,0,1-.162.212A2.711,2.711,0,0,1,447.386,407.906Z" transform="translate(-355.604 -388.169)" fill="#fff"></path></g></g></svg>