<svg xmlns="http://www.w3.org/2000/svg" width="56.531" height="40.313" viewBox="0 0 56.531 40.313"><g id="Grupo_2491" data-name="Grupo 2491" transform="translate(-544.341 -1174.126)"><path id="Trazado_49937" data-name="Trazado 49937" d="M612.979,1201.473a24.736,24.736,0,0,0,1.142-3.131c.446-1.555,1.1-3.032,1.652-4.547.227-.624.4-1.27.662-1.879.745-1.742,1.4-3.52,2.148-5.264,1.025-2.4,2.1-4.775,3.271-7.1a17.72,17.72,0,0,1,1.683-2.68c.264-.351.8-.5,1.29-.788l1.6,1.08c.374,1.612.611,3.1,1.086,4.5.272.8-.018,1.683.5,2.4-.1,1.8.727,3.484.617,5.281a5.439,5.439,0,0,1,.319,2.486c.052.628.224,1.245.29,1.873a12.505,12.505,0,0,0,.263,1.885,20.536,20.536,0,0,1,.36,3.549c.14,1.847.265,3.7.39,5.448l-.54.539h-1.323a7.681,7.681,0,0,1-.363-1.343,42.817,42.817,0,0,1-.63-5.126c-.458-.566-.122-1.3-.352-1.853-.247-.593-.08-1.219-.3-1.721a10.087,10.087,0,0,1-.309-2.757l-.493-.492-3.8.4c-.5,1.147-.994,2.33-1.534,3.492-.681,1.466-1.027,3.052-1.708,4.523a31.986,31.986,0,0,0-1.311,3.6,41.757,41.757,0,0,1-2.423,5.308c-.314.647-.708,1.254-1.022,1.8h-2.148l-.812-1.767a17,17,0,0,0-.907,4.178l.52.183c-.26.786-.489,1.533-1.434,1.713h-.936l-1.075-1.08a24.576,24.576,0,0,1,.14-9.056,3.917,3.917,0,0,0-.728,1.079,1.831,1.831,0,0,1-.945,1.068c-.408.276-.778.607-1.173.879a14.433,14.433,0,0,1-2.527.6c-.518.159-1.205-.215-1.814-.362a4.014,4.014,0,0,1-2.482-2,7.091,7.091,0,0,1-1.265-3.316c-1.161-2.768-.4-5.674-.616-8.51-.008-.1-.04-.229.005-.3a8.13,8.13,0,0,0,.663-2.659,32.2,32.2,0,0,1,.932-3.6c.573-1.657,1.211-3.3,1.882-4.912a29.916,29.916,0,0,1,2.024-3.317,14.188,14.188,0,0,1,3.489-3.443c.2-.168.549-.147.822-.233,1.1-.348,2.2-.845,3.358-.2.274.153.52.356.859.591a2.155,2.155,0,0,1-1.907.6,14.881,14.881,0,0,0-2.629,4.459c-.291.876-.665,1.771-1.008,2.653a13.6,13.6,0,0,0-.651,2.188c-.155.758-.307,1.532-.488,2.27-.3,1.211-.2,2.515-.826,3.649a1.124,1.124,0,0,0-.049.44,32.9,32.9,0,0,1-.344,4.325c-.492,2.37-.165,4.741-.255,7.107a4.427,4.427,0,0,0,.33,1.7c.1.254.512.387.792.582a5.45,5.45,0,0,0,1.916-2.945c.327-.785.588-1.6.928-2.385.412-.956.635-1.992.952-2.989.167-.525.362-1.041.54-1.552l-2.338-.32v-1.212l.715-.709h6.8l.757.8c0,1.124.029,2.3-.014,3.476-.017.474-.23.937-.283,1.412a12.469,12.469,0,0,0-.011,1.384c.068.006.135.011.083.038-.4.474-.4.474-.358,1.062,0,.027.128.045.238.08A3.512,3.512,0,0,1,612.979,1201.473Zm10.052-11.115,2.924-.441c-.181-1.1-.339-2.158-.534-3.209-.191-1.035-.419-2.064-.692-3.39C624.16,1185.82,623.212,1187.952,623.03,1190.358Z" transform="translate(-29.375 -0.835)" fill="#fff"></path><path id="Trazado_49938" data-name="Trazado 49938" d="M546.836,1175.827c.8-1.306.8-1.306,2.613-1.7.14.208.308.436.451.678s.264.5.415.8c1.05.422,2.085-.245,3.164-.229,1.127.017,2.255,0,3.363,0l.673.671c.388,1.723.388,1.723.019,2.352h-6.684c.108,1.478-.359,2.918.286,4.319-.232.919.359,1.736.317,2.64-.042.921-.009,1.844-.009,2.889a2.875,2.875,0,0,0,1.119-.023,2.888,2.888,0,0,1,2.779.176l.69,1.338v1.339a15.818,15.818,0,0,0-4.544.4l-.344.361.123.123c.339.349-.308.506-.156.885a2.851,2.851,0,0,1,.023,1.066c-.008.342.1.709-.264.976-.078.057-.059.289-.038.434.213,1.467-.4,2.87-.332,4.332a4.824,4.824,0,0,1-.289,1.255c-.1.426.193.895-.21,1.3-.323.326.043.834-.306,1.264s.129,1.193-.409,1.663a5.226,5.226,0,0,1-1.278,3.11c-1.218.263-2.117-.733-3.219-.905a2.934,2.934,0,0,1-.442-1.979c.017-1.229.037-2.46,0-3.689-.055-1.661.548-3.276.317-4.946.639-.915.2-2.007.5-3.014.3-.985-.056-2.15.155-3.179.267-1.3.116-2.6.32-3.869.134-.834.1-1.69.3-2.484.209-.838.09-1.707.314-2.482.3-1.049.046-2.12.311-3.1A15.081,15.081,0,0,0,546.836,1175.827Z" fill="#fff"></path><path id="Trazado_49939" data-name="Trazado 49939" d="M579.879,1179.8l-.427-.455c-.627.474-1.324.12-1.924.271l-.834-1.723a5.17,5.17,0,0,1,1.219-.739c.7-.194,1.477-.139,2.17-.353a12.66,12.66,0,0,1,3.114-.3,3.962,3.962,0,0,0,1.059-.37l.494.543a1.97,1.97,0,0,1-.584,1.846l-1.854.507c0,.332-.025.632,0,.926.217,2.177-.442,4.311-.313,6.482-.439,1-.051,2.141-.372,3.078-.368,1.074.033,2.134-.278,3.112a10.783,10.783,0,0,0-.264,3.265c-.007.6-.453,1.072-.347,1.721a1.8,1.8,0,0,1-.256,1.579c-.152.182-.024.595-.024.9,0,1.486.011,2.972-.008,4.458a8.484,8.484,0,0,1-.171,1.141l1.345.49v1.635a11.689,11.689,0,0,1-1.486.533c-.529.12-1.1.058-1.628.175a4.978,4.978,0,0,1-1.725.3c-.529-.067-1.151.216-1.555-.481l.571-1.982h1.436c.177-.2.438-.36.426-.5-.1-1.093.285-2.216-.212-3.288a1.831,1.831,0,0,1-.074-.736,53.144,53.144,0,0,1,.049-5.989c.185-1.656.084-3.319.313-4.943.147-1.041.08-2.1.283-3.1.441-2.183.68-4.4,1.216-6.564A8.77,8.77,0,0,1,579.879,1179.8Z" transform="translate(-17.605 -1.14)" fill="#fff"></path></g></svg>