<svg xmlns="http://www.w3.org/2000/svg" width="66.349" height="26.787" viewBox="0 0 66.349 26.787"><g id="Grupo_2490" data-name="Grupo 2490" transform="translate(-26.544 -125.484)"><path id="Trazado_49940" data-name="Trazado 49940" d="M694.065,127.406H683.02l.68-1.9h10.364Z" transform="translate(-601.172 -0.016)" fill="#fff"></path><path id="Trazado_49941" data-name="Trazado 49941" d="M464.631,125.485h10.254l.671,1.909s-10.922,0-10.922,0S464.627,125.485,464.631,125.485Z" transform="translate(-401.179)" fill="#fff"></path><path id="Trazado_49942" data-name="Trazado 49942" d="M213.875,125.489a7.375,7.375,0,0,1,4.411,1.908s-18.587,0-18.587,0v-1.908Z" transform="translate(-158.568 -0.005)" fill="#fff"></path><g id="Grupo_2448" data-name="Grupo 2448" transform="translate(26.546 125.485)"><rect id="Rect&#xE1;ngulo_176" data-name="Rect&#xE1;ngulo 176" width="12.912" height="1.904" transform="translate(0 0)" fill="#fff"></rect><path id="Trazado_49943" data-name="Trazado 49943" d="M103.2,136.795" transform="translate(-96.746 -135.843)" fill="#fff"></path></g><path id="Trazado_49944" data-name="Trazado 49944" d="M680.308,169.916H668s.671-1.894.667-1.895h11.642Z" transform="translate(-587.415 -38.953)" fill="#fff"></path><path id="Trazado_49945" data-name="Trazado 49945" d="M476.828,169.914H464.634v-1.9H476.16Z" transform="translate(-401.183 -38.949)" fill="#fff"></path><path id="Trazado_49946" data-name="Trazado 49946" d="M219.772,168.011a4.921,4.921,0,0,1,.535,1.895H199.741v-1.895Z" transform="translate(-158.606 -38.944)" fill="#fff"></path><g id="Grupo_2449" data-name="Grupo 2449" transform="translate(26.546 129.067)"><rect id="Rect&#xE1;ngulo_177" data-name="Rect&#xE1;ngulo 177" width="12.912" height="1.895" transform="translate(0 0)" fill="#fff"></rect><path id="Trazado_49947" data-name="Trazado 49947" d="M103.2,179.258" transform="translate(-96.746 -178.311)" fill="#fff"></path></g><path id="Trazado_49948" data-name="Trazado 49948" d="M653.051,212.333l.676-1.9,9.243,0v1.9Z" transform="translate(-573.727 -77.79)" fill="#fff"></path><path id="Trazado_49949" data-name="Trazado 49949" d="M516.943,210.424l.673,1.9h-9.825v-1.9Z" transform="translate(-440.705 -77.785)" fill="#fff"></path><path id="Trazado_49950" data-name="Trazado 49950" d="M381.627,210.42a6.214,6.214,0,0,1-.272,1.9h-5.631v-1.9Z" transform="translate(-319.763 -77.781)" fill="#fff"></path><g id="Grupo_2450" data-name="Grupo 2450" transform="translate(30.145 132.649)"><rect id="Rect&#xE1;ngulo_178" data-name="Rect&#xE1;ngulo 178" width="5.55" height="1.895" transform="translate(0)" fill="#fff"></rect><path id="Trazado_49951" data-name="Trazado 49951" d="M102.221,221.776" transform="translate(-99.446 -220.829)" fill="#fff"></path></g><g id="Grupo_2451" data-name="Grupo 2451" transform="translate(44.871 132.639)"><rect id="Rect&#xE1;ngulo_179" data-name="Rect&#xE1;ngulo 179" width="5.54" height="1.904" transform="translate(0 0)" fill="#fff"></rect><path id="Trazado_49952" data-name="Trazado 49952" d="M276.967,221.722" transform="translate(-274.197 -220.77)" fill="#fff"></path></g><path id="Trazado_49953" data-name="Trazado 49953" d="M513.249,252.526s0,1.441,0,1.444h-5.458v-1.895h10.4l.646,1.767s.623-1.771.624-1.767h10.482v1.9h-5.431s0-1.444,0-1.444l-.5,1.444-10.257,0Z" transform="translate(-440.705 -115.926)" fill="#fff"></path><path id="Trazado_49954" data-name="Trazado 49954" d="M244.08,252.067h15.9a7.157,7.157,0,0,1-1.578,1.9s-14.327,0-14.327,0S244.08,252.07,244.08,252.067Z" transform="translate(-199.21 -115.918)" fill="#fff"></path><g id="Grupo_2452" data-name="Grupo 2452" transform="translate(30.145 136.148)"><rect id="Rect&#xE1;ngulo_180" data-name="Rect&#xE1;ngulo 180" width="5.55" height="1.895" transform="translate(0 0)" fill="#fff"></rect><path id="Trazado_49955" data-name="Trazado 49955" d="M102.221,263.317" transform="translate(-99.446 -262.37)" fill="#fff"></path></g><g id="Grupo_2453" data-name="Grupo 2453" transform="translate(83.808 139.722)"><rect id="Rect&#xE1;ngulo_181" data-name="Rect&#xE1;ngulo 181" width="5.431" height="1.895" transform="translate(0 0)" fill="#fff"></rect><path id="Trazado_49956" data-name="Trazado 49956" d="M738.511,305.734" transform="translate(-735.796 -304.787)" fill="#fff"></path></g><path id="Trazado_49957" data-name="Trazado 49957" d="M513.249,294.488h-5.458v1.9h5.459S513.256,294.488,513.249,294.488Z" transform="translate(-440.705 -154.766)" fill="#fff"></path><path id="Trazado_49958" data-name="Trazado 49958" d="M594.57,294.488c-.025,0-.636,1.894-.662,1.895l-7.736,0c-.006,0-.68-1.9-.681-1.9Z" transform="translate(-511.859 -154.766)" fill="#fff"></path><path id="Trazado_49959" data-name="Trazado 49959" d="M244.076,294.483h14.3a9.354,9.354,0,0,1,1.705,1.9h-16S244.076,294.485,244.076,294.483Z" transform="translate(-199.206 -154.762)" fill="#fff"></path><path id="Trazado_49960" data-name="Trazado 49960" d="M74.933,296.378v-1.9h-5.54s0,1.895,0,1.895Z" transform="translate(-39.239 -154.762)" fill="#fff"></path><g id="Grupo_2454" data-name="Grupo 2454" transform="translate(83.808 143.294)"><rect id="Rect&#xE1;ngulo_182" data-name="Rect&#xE1;ngulo 182" width="5.431" height="1.895" transform="translate(0 0)" fill="#fff"></rect><path id="Trazado_49961" data-name="Trazado 49961" d="M738.511,348.147" transform="translate(-735.796 -347.199)" fill="#fff"></path></g><g id="Grupo_2455" data-name="Grupo 2455" transform="translate(67.086 143.294)"><rect id="Rect&#xE1;ngulo_183" data-name="Rect&#xE1;ngulo 183" width="5.458" height="1.895" transform="translate(0 0)" fill="#fff"></rect><path id="Trazado_49962" data-name="Trazado 49962" d="M540.182,348.143" transform="translate(-537.453 -347.196)" fill="#fff"></path></g><path id="Trazado_49963" data-name="Trazado 49963" d="M606.23,338.8c0-.009.67-1.906.68-1.9h-6.576c-.011,0,.674,1.9.674,1.9S606.228,338.809,606.23,338.8Z" transform="translate(-525.451 -193.603)" fill="#fff"></path><path id="Trazado_49964" data-name="Trazado 49964" d="M244.078,338.788c0,.008,0-1.895,0-1.9H249.7s.005,1.9,0,1.9S244.078,338.787,244.078,338.788Z" transform="translate(-199.208 -193.599)" fill="#fff"></path><path id="Trazado_49965" data-name="Trazado 49965" d="M382.509,336.893a5.506,5.506,0,0,1,.353,1.9H376.9v-1.9Z" transform="translate(-320.845 -193.599)" fill="#fff"></path><g id="Grupo_2456" data-name="Grupo 2456" transform="translate(30.154 143.294)"><rect id="Rect&#xE1;ngulo_184" data-name="Rect&#xE1;ngulo 184" width="5.54" height="1.895" transform="translate(0 0)" fill="#fff"></rect><path id="Trazado_49966" data-name="Trazado 49966" d="M102.276,348.139" transform="translate(-99.506 -347.192)" fill="#fff"></path></g><g id="Grupo_2457" data-name="Grupo 2457" transform="translate(83.808 146.794)"><rect id="Rect&#xE1;ngulo_185" data-name="Rect&#xE1;ngulo 185" width="9.085" height="1.896" transform="translate(0)" fill="#fff"></rect><path id="Trazado_49967" data-name="Trazado 49967" d="M760.192,389.693" transform="translate(-755.65 -388.745)" fill="#fff"></path></g><g id="Grupo_2458" data-name="Grupo 2458" transform="translate(63.45 146.794)"><rect id="Rect&#xE1;ngulo_186" data-name="Rect&#xE1;ngulo 186" width="9.094" height="1.896" transform="translate(0)" fill="#fff"></rect><path id="Trazado_49968" data-name="Trazado 49968" d="M518.6,389.693" transform="translate(-514.053 -388.745)" fill="#fff"></path></g><path id="Trazado_49969" data-name="Trazado 49969" d="M618.432,380.333h-2.774l-.666-1.9h4.081Z" transform="translate(-538.875 -231.644)" fill="#fff"></path><path id="Trazado_49970" data-name="Trazado 49970" d="M26.556,378.438v1.895h12.9c.005,0-.006-1.894,0-1.894Z" transform="translate(-0.011 -231.644)" fill="#fff"></path><path id="Trazado_49971" data-name="Trazado 49971" d="M220.379,378.438a4.074,4.074,0,0,1-.717,1.9h-19.93v-1.895Z" transform="translate(-158.598 -231.644)" fill="#fff"></path><path id="Trazado_49972" data-name="Trazado 49972" d="M631.073,422.749h-.255l-.648-1.9h1.569Z" transform="translate(-552.773 -270.483)" fill="#fff"></path><g id="Grupo_2459" data-name="Grupo 2459" transform="translate(83.807 150.367)"><rect id="Rect&#xE1;ngulo_187" data-name="Rect&#xE1;ngulo 187" width="9.085" height="1.904" transform="translate(0 0)" fill="#fff"></rect><path id="Trazado_49973" data-name="Trazado 49973" d="M760.192,432.152" transform="translate(-755.649 -431.2)" fill="#fff"></path></g><path id="Trazado_49974" data-name="Trazado 49974" d="M199.7,422.783v-1.9l18.7,0a7.081,7.081,0,0,1-4.819,1.9l-13.874,0" transform="translate(-158.568 -270.517)" fill="#fff"></path><g id="Grupo_2460" data-name="Grupo 2460" transform="translate(63.45 150.367)"><rect id="Rect&#xE1;ngulo_188" data-name="Rect&#xE1;ngulo 188" width="9.094" height="1.904" transform="translate(0 0)" fill="#fff"></rect><path id="Trazado_49975" data-name="Trazado 49975" d="M518.6,432.152" transform="translate(-514.053 -431.2)" fill="#fff"></path></g><path id="Trazado_49976" data-name="Trazado 49976" d="M39.448,420.892s-.006,1.891,0,1.891-12.9.008-12.9,0,0-1.9,0-1.9S39.443,420.9,39.448,420.892Z" transform="translate(0 -270.517)" fill="#fff"></path></g></svg>