<svg xmlns="http://www.w3.org/2000/svg" width="121.959" height="45.553" viewBox="0 0 121.959 45.553"><g id="Grupo_2512" data-name="Grupo 2512" transform="translate(783.586 -1884.639)"><path id="Trazado_50195" data-name="Trazado 50195" d="M-495.381,1875.819a12.731,12.731,0,0,1,.96-.939,10.226,10.226,0,0,1,1.139-.68,41.958,41.958,0,0,1-5.8-1.663l-.258-.47,1.123-4.381a3.5,3.5,0,0,0,4.386,1.281c1.368-1.068,2.056-2.353,1.277-4.177-.638-.435-1.013-1.454-2.1-1.466-.891-.5-1.711.047-2.63.209a15.85,15.85,0,0,1,.471-2.344,4.837,4.837,0,0,1,.73-2.312,5.746,5.746,0,0,1,1.525.168c.524.2,1.049-.077,1.59.229a6,6,0,0,0,1.668.274,14.225,14.225,0,0,1,1.64.345,11.529,11.529,0,0,0,1.356.278c.775.156,1.565.263,2.32.487,1,.3,2.029.5,3.038.775a9.448,9.448,0,0,1,1.5.442c.235.108.364.449.5.625-.884,4.538-2.2,8.919-3.273,13.333l-.557.281c-1.952-.356-3.824-.7-5.687-1.231-.027.088-.1.238-.077.261a2.734,2.734,0,0,1,.834,2.6.721.721,0,0,0-.006.1,2.735,2.735,0,0,1-1.606,1.738c-1.05.353-1.241.48-2.176.128-.361-.136-.646-.49-1.009-.6-.511-.153-.544-.658-.824-.968a1.849,1.849,0,0,1-.25-1.135A6.547,6.547,0,0,1-495.381,1875.819Z" transform="translate(-263.788 25.762)" fill="#fff"></path><path id="Trazado_50196" data-name="Trazado 50196" d="M-502.187,1987.586c-2.925,1.354-6.064,2.091-9.053,3.242-2.038.346-3.922,1.316-6,1.505-.638-1.751-.742-3.613-1.455-5.454-.785.723-1.173,1.668-2.231,2.026l-1.183.19c-1.888-.616-1.7-.767-2.373-1.724v-1.491c.569-.795,1.075-1.755,2.32-1.779,1.053-.647,1.863.317,2.89.48a14.285,14.285,0,0,0-.6-2.687c-.219-.891-.424-1.786-.656-2.772a5.132,5.132,0,0,1,.911-.476c.813-.244,1.645-.424,2.466-.645.4-.108.795-.251,1.293-.411a9.2,9.2,0,0,0-.222,1.044,10.9,10.9,0,0,0-.009,1.1c.473.859.863,1.741,1.865,2.055,1.362.426,1.951.485,2.745.112,1.873-.88,2.833-2.245,2.083-4.918l-1.008-.816a42.127,42.127,0,0,1,4.963-1.364,9.02,9.02,0,0,1,.478,1.592c.107.959.512,1.833.7,2.77.153.755.332,1.527.555,2.28.369,1.25.549,2.553,1.028,3.779.155.4-.017.853.237,1.272A3.681,3.681,0,0,1-502.187,1987.586Z" transform="translate(-243.934 -65.787)" fill="#fff"></path><path id="Trazado_50197" data-name="Trazado 50197" d="M-593.011,1946.048c-.244-.894-.478-1.676-.668-2.468-.228-.954-.508-1.9-.731-2.847-.276-1.18-.7-2.312-.975-3.493-.217-.944-.6-1.852-.907-2.774a9.635,9.635,0,0,1-.325-.914,4.054,4.054,0,0,1-.01-.809c.94-.275,1.866-.588,2.812-.811.987-.232,1.955-.521,2.928-.8.945-.269,1.922-.427,2.868-.694.971-.274,1.942-.58,2.92-.8.96-.215,1.9-.517,2.855-.678.59.491.545,1.212.742,1.825.329,1.025.565,2.078.865,3.113.041.143.221.246.371.4a3.784,3.784,0,0,0,.623-.78,2.183,2.183,0,0,1,1.815-1.183c.376-.085.721-.364,1.146-.143.373.194.78.325,1.144.532a2.306,2.306,0,0,1,.811.8,1.325,1.325,0,0,0,.177.18c0,.21-.015.452,0,.692a1.992,1.992,0,0,1-.634,1.841c-.007.436-.459.427-.684.63a2.506,2.506,0,0,1-1.564.474,1.968,1.968,0,0,1-1.568-.5c-.1-.1-.314-.081-.522-.127a3.29,3.29,0,0,0,.261,1.94,11.5,11.5,0,0,1,.7,3.74c-1.548.225-2.984.93-4.7,1.12a2.957,2.957,0,0,0-.437-3.35,3.742,3.742,0,0,0-3.38-1.09,6.6,6.6,0,0,1-1.193.744c-.769.29-.948.979-1.206,1.6a2.658,2.658,0,0,0,.711,3.1l.3.3c-.248.6-.873.305-1.3.521-.6.3-1.353.281-1.978.544C-592.162,1946.066-592.553,1945.919-593.011,1946.048Z" transform="translate(-186.942 -29.588)" fill="#fff"></path><path id="Trazado_50198" data-name="Trazado 50198" d="M-576.047,2000.067c-.229-1.234-.423-2.3-.627-3.37s-.435-2.134-.625-3.206c-.184-1.039-.477-2.064-.6-3.1a22.217,22.217,0,0,1-.661-3.268c1.842-.668,3.79-.971,5.781-1.685-.31-.26-.522-.433-.728-.613a7.877,7.877,0,0,1-.984-.9,1.623,1.623,0,0,1-.274-.822,11.846,11.846,0,0,1-.012-1.259,3.325,3.325,0,0,1,1.854-1.723,2.78,2.78,0,0,1,2.633.471,3.3,3.3,0,0,1,.863,1.218,2.237,2.237,0,0,1-.252,1.792,5.64,5.64,0,0,1-.524.83l.308.338,5.74-1.488a13.612,13.612,0,0,1,.514,1.368c.242.942.438,1.9.678,2.956a4.055,4.055,0,0,0-2.888.11,5,5,0,0,0-2.028,2.123c.054.746.116,1.589.169,2.323a3.869,3.869,0,0,0,2.981,1.693,4.665,4.665,0,0,0,3.055-1.346l.91,3.847-.241.425C-565.88,1997.948-570.86,1999.175-576.047,2000.067Z" transform="translate(-201.22 -69.875)" fill="#fff"></path><path id="Trazado_50199" data-name="Trazado 50199" d="M-723.894,2122.07c.47.082.861-.318,1.322-.128.274.113.562.193.808.275a2.8,2.8,0,0,1-.341,1.759c-.458,1.319-.944,2.628-1.413,3.944q-.415,1.164-.813,2.332c-.257.755-.607,1.474-.8,2.258a1.048,1.048,0,0,1-.861.734h-2.5c-.107-.253-.337-.537-.318-.8a14.876,14.876,0,0,0-.194-1.552,8.536,8.536,0,0,0-.151-.9,6.653,6.653,0,0,0-.134-.912,11.973,11.973,0,0,1-.228-1.954l-.213-.031c-.308.91-.609,1.81-.919,2.706-.253.73-.54,1.45-.768,2.188a2.621,2.621,0,0,1-.729,1.251h-2.621l-.373-.465c-.1-.395-.19-.894-.295-1.385a8.134,8.134,0,0,1-.19-1.3,8.941,8.941,0,0,1-.192-1.552,2.06,2.06,0,0,0-.157-.573,13.141,13.141,0,0,0-.457-2.4c-.031-.067,0-.159-.015-.236-.06-.3.1-.607-.139-.919-.149-.2-.035-.526-.148-.821a3.749,3.749,0,0,1-.035-1.274,3.757,3.757,0,0,1,2.025-.391,1.506,1.506,0,0,1,.758.293,1.093,1.093,0,0,1,.3.839,7.981,7.981,0,0,0,.148.985c.04.3-.1.639.164.9-.113.482.162.917.171,1.388a5.406,5.406,0,0,0,.152.823c.049.275-.049.547.133.84.13.209.025.564.081.864a8.612,8.612,0,0,0,.85-2.111c.3-.739.546-1.5.805-2.254.251-.732.488-1.469.718-2.162a2.707,2.707,0,0,1,2.892-.042c.062.68.117,1.381.192,2.08.03.277.119.547.154.823a1.883,1.883,0,0,0,.146.752c.1.188,0,.477.026.716.022.2.173.4.142.579-.1.57.237,1.063.284,1.63.288-.755.587-1.5.859-2.264a20.822,20.822,0,0,1,.709-2.051,11.057,11.057,0,0,0,.568-1.544A2.122,2.122,0,0,1-723.894,2122.07Z" transform="translate(0 -220.432)" fill="#fff"></path><path id="Trazado_50200" data-name="Trazado 50200" d="M-632.646,2130.056l-.231,2.084a2.981,2.981,0,0,1-1.736,1.1,7.374,7.374,0,0,1-1.274.234,7.8,7.8,0,0,1-1.694,0,4.638,4.638,0,0,1-2.934-1.29,4.051,4.051,0,0,1-1.055-2.551c-.011-.2.068-.416-.138-.6a.406.406,0,0,1-.013-.382,2.12,2.12,0,0,0,.154-1.07,7.533,7.533,0,0,1,1.122-3.417,4.438,4.438,0,0,1,1.839-1.608,4,4,0,0,1,2.025-.569c.484.015.971.023,1.454,0a3.987,3.987,0,0,1,2.616.9,2.553,2.553,0,0,1,.811,1.355,1.759,1.759,0,0,1,.146.895,8.867,8.867,0,0,1-.307,1.4,3.049,3.049,0,0,1-.533.9,4.653,4.653,0,0,1-2.268,1.335,8.581,8.581,0,0,1-1.386.164c-.483.027-.97-.005-1.455.01-.329.01-.611-.343-.96-.1l.191,1.037c-.027-.034.008,0,.036.048.3.446.571.9,1.205.968.527.057,1.043.35,1.564-.011a5.1,5.1,0,0,0,2.354-.759A1.794,1.794,0,0,1-632.646,2130.056Zm-5.521-3.194c.734-.1,1.419.016,2.139-.145a1.947,1.947,0,0,0,1.437-1.192l-.221-.727-.737-.376a2.832,2.832,0,0,0-1.419.19A2.71,2.71,0,0,0-638.167,2126.862Z" transform="translate(-79.661 -220.505)" fill="#fff"></path><path id="Trazado_50201" data-name="Trazado 50201" d="M-322.893,2127.859l-.8.8h-6.133c.1.42.182.806.3,1.181a2.142,2.142,0,0,0,1.471,1.406,6,6,0,0,0,.984.158,7.274,7.274,0,0,0,2.9-.8,2.145,2.145,0,0,1,.954,1.672,2.581,2.581,0,0,1-1.631.9,8.52,8.52,0,0,1-2.855.347,5.931,5.931,0,0,1-3.342-1.3,4.037,4.037,0,0,1-1.239-2.23c-.106-.43-.1-.886-.194-1.3a3.032,3.032,0,0,1-.117-1.152,9.281,9.281,0,0,1,.719-3.1,4.244,4.244,0,0,1,2.68-2.263,6.668,6.668,0,0,1,2.039-.153,3.762,3.762,0,0,1,1.312.149,4.568,4.568,0,0,1,2.628,2.529,12.232,12.232,0,0,1,.329,2.294A7.038,7.038,0,0,0-322.893,2127.859Zm-5.667-3.491c-.314.348-.829.655-.956,1.217-.08.356-.361.715-.1,1.129h4.009a.143.143,0,0,0,.07-.025.364.364,0,0,0,.054-.049,2.486,2.486,0,0,0-.7-2.117A2.14,2.14,0,0,0-328.56,2124.368Z" transform="translate(-338.759 -220.539)" fill="#fff"></path><path id="Trazado_50202" data-name="Trazado 50202" d="M-496.537,2122.25c.379.243.849.43,1.27.72a3.112,3.112,0,0,1,.994,1.057,10.025,10.025,0,0,1,.8,2.092,1.123,1.123,0,0,1,.031.311,21.616,21.616,0,0,1-.017,2.5,5.217,5.217,0,0,1-1.445,3.35,4.257,4.257,0,0,1-2.295,1.1,7.372,7.372,0,0,1-1.715.125,4.717,4.717,0,0,1-3.354-1.454,5.218,5.218,0,0,1-1.04-1.912,2.78,2.78,0,0,1-.185-1.062,5.268,5.268,0,0,0-.142-.822,4.23,4.23,0,0,1,0-.807c.035-.384.1-.764.158-1.146a5.328,5.328,0,0,1,.175-1.06,5.8,5.8,0,0,1,.644-1.266,4.481,4.481,0,0,1,1.748-1.49,6.694,6.694,0,0,1,3.284-.455A6.183,6.183,0,0,1-496.537,2122.25Zm-1.448,1.874c-.227,0-.5-.011-.766,0a1.858,1.858,0,0,0-1.749,1.175,4.385,4.385,0,0,0-.392,1.782c.019.512,0,1.025.005,1.538a3.694,3.694,0,0,0,.375,1.463,4.8,4.8,0,0,0,1,1.163c.125,0,.225-.031.284,0,.706.426,1.332-.046,1.985-.177.088-.017.167-.135.228-.222a3.525,3.525,0,0,0,.8-1.845,10.482,10.482,0,0,0-.124-3.092,2.6,2.6,0,0,0-.866-1.419A4.081,4.081,0,0,0-497.985,2124.124Z" transform="translate(-195.41 -220.538)" fill="#fff"></path><path id="Trazado_50203" data-name="Trazado 50203" d="M-392.627,2134.114H-394.6a2.17,2.17,0,0,1-.736-1.374c-.054-.4-.406-.713-.338-1.152a16.665,16.665,0,0,1-.846-2.319c-.3-.769-.524-1.565-.776-2.351s-.546-1.554-.788-2.343c-.139-.452-.32-.892-.482-1.337a.47.47,0,0,1,.5-.295c.673.016,1.346.006,2.025.006a3.776,3.776,0,0,1,.7,1.659c.379,1.3.824,2.573,1.238,3.858.162.5.269,1.022.4,1.535.074.292.141.587.249,1.033.409-1.447.652-2.784,1.056-4.074.395-1.262.863-2.5,1.3-3.764.6-.3.6-.3,2.2-.216a.586.586,0,0,1,.137.773c-.323.757-.578,1.549-.821,2.326s-.541,1.51-.761,2.283-.5,1.513-.768,2.266c-.346.991-.634,2-.992,2.989C-392.183,2133.823-392.455,2133.956-392.627,2134.114Z" transform="translate(-283.482 -221.306)" fill="#fff"></path><path id="Trazado_50204" data-name="Trazado 50204" d="M-553.335,2131.179l.5-.683a1.352,1.352,0,0,0-.96-1.568c-.554-.227-1.136-.41-1.661-.669a2.8,2.8,0,0,1-1.8-1.865,16.309,16.309,0,0,1-.1-2.054c.339-.475.441-1.1.957-1.462a4.845,4.845,0,0,1,1.017-.665,3.109,3.109,0,0,1,1.2-.246c.511.024,1.027-.033,1.535.015a2.966,2.966,0,0,1,2.086.874,2.479,2.479,0,0,1-.7,1.705,8.2,8.2,0,0,0-1.342-.466,7.853,7.853,0,0,0-1.368-.018,2.49,2.49,0,0,0-.466.246.962.962,0,0,0-.082,1.376,2.378,2.378,0,0,0,1.207.789,9.753,9.753,0,0,0,1.091.477,2.941,2.941,0,0,1,1.007.513,2.069,2.069,0,0,1,.984,1.479c.043.2.126.384.154.581a2.849,2.849,0,0,1,0,.565,4.714,4.714,0,0,1-.822,2.165,7.305,7.305,0,0,1-1.989,1.069,6.724,6.724,0,0,1-2.2.1,3.474,3.474,0,0,1-2.619-1.251l.241-.817c.095-.152.418-.264.448-.594.321-.2.607.005.871.116a3.876,3.876,0,0,0,1.907.466C-553.953,2131.33-553.682,2131.25-553.335,2131.179Z" transform="translate(-150.117 -220.492)" fill="#fff"></path><path id="Trazado_50205" data-name="Trazado 50205" d="M-427.569,2092.352l.607-.364c.585.072,1.267-.186,1.9.306a3.476,3.476,0,0,1,.259,1.222q-.023,5.782,0,11.565a5.542,5.542,0,0,0,.1.8c.528.658,1.069.128,1.621.2.162.592.683,1.148.115,1.9a3.2,3.2,0,0,1-3.243-.123,2.44,2.44,0,0,1-1.2-1.6,5.478,5.478,0,0,1-.15-1.635C-427.57,2100.548-427.569,2096.477-427.569,2092.352Z" transform="translate(-259.177 -195.367)" fill="#fff"></path><path id="Trazado_50206" data-name="Trazado 50206" d="M-291.482,2204.029h1.211l.836.661.207,1.091-.45.879-.836.43h-.718l-.838-.433a3.415,3.415,0,0,1-.4-.913,3.743,3.743,0,0,1,.189-1.065Zm1.189,2.422c.368-.5.2-1.053.235-1.554a1.292,1.292,0,0,0-1.062-.376l-.511.528-.156.543a1.276,1.276,0,0,0,.53.859Z" transform="translate(-372.401 -289.273)" fill="#fff"></path><path id="Trazado_50207" data-name="Trazado 50207" d="M-726.876,2204.679l.188,1.05-.352.7a2.769,2.769,0,0,1-2.4.6v-3.049c.387,0,.785.022,1.179-.006a1.313,1.313,0,0,1,1.111.453C-727.057,2204.522-726.953,2204.608-726.876,2204.679Zm-.745-.06-1.159-.2v1.963h.878l.41-.41C-727.528,2205.582-727.57,2205.147-727.62,2204.619Z" transform="translate(-6.179 -289.221)" fill="#fff"></path><path id="Trazado_50208" data-name="Trazado 50208" d="M-634.939,2205.273h1.3v-1.242h.649v3h-.611v-1.224h-1.3v1.23h-.848c.039-.329.1-.635.1-.941.005-.289-.06-.579-.072-.869-.014-.322,0-.646,0-.969.176-.314.458-.3.781-.235Z" transform="translate(-84.7 -289.237)" fill="#fff"></path><path id="Trazado_50209" data-name="Trazado 50209" d="M-464.583,2207.179a1.664,1.664,0,0,1-1.108-1.968,1.84,1.84,0,0,1,1.135-1.094h1.007c.685.2.883.812,1.053,1.426l-.184.781C-463.5,2207.179-463.5,2207.179-464.583,2207.179Zm1.309-1.053v-.947l-.558-.585a1.242,1.242,0,0,0-1.018.341,1.42,1.42,0,0,0,.2,1.594h.977Z" transform="translate(-227.195 -289.346)" fill="#fff"></path><path id="Trazado_50210" data-name="Trazado 50210" d="M-614.167,2206.219l-.322-.886c.2-.594.213-1.358,1.358-1.654,1.289-.181,2.05.717,1.866,2.063-.615.965-.814,1.066-2.024,1.035Zm2.056-1.679a1.25,1.25,0,0,0-1.027-.32l-.554.548v1.022l.851.6c.149-.395.842-.07.768-.718C-611.685,2205.27-612.114,2204.917-612.111,2204.539Z" transform="translate(-102.519 -288.959)" fill="#fff"></path><path id="Trazado_50211" data-name="Trazado 50211" d="M-691.731,2204.1h1.568l.695.481a1.022,1.022,0,0,1-.485,1.244l.864,1.312h-.792l-.691-1.086h-.4l.107.94-.557.211c-.066-.066-.1-.083-.1-.1-.062-.323-.129-.646-.172-.973-.007-.051.1-.117.157-.186-.036-.032-.108-.066-.11-.1C-691.681,2205.285-691.7,2204.729-691.731,2204.1Zm1.06.467-.327.163.147.778c.39-.008.766-.236.766-.537Z" transform="translate(-37.782 -289.335)" fill="#fff"></path><path id="Trazado_50212" data-name="Trazado 50212" d="M-403.549,2206.3v-1.383l.862-.774h1.126l.665.338.405.572v1.075a2.171,2.171,0,0,1-1.027,1.062C-402.667,2207.214-402.667,2207.214-403.549,2206.3Zm.645-1.18v.738a1.159,1.159,0,0,0,.79.85l.649-.219a1.1,1.1,0,0,0,.321-1.141,1.079,1.079,0,0,0-.972-.753Z" transform="translate(-279.308 -289.372)" fill="#fff"></path><path id="Trazado_50213" data-name="Trazado 50213" d="M-441.392,2203.969c.791.063,1.638-.253,2.228.583v.675l-.512.413.767,1.366-.675.048-.737-1.118h-.444v1.1h-.628Zm.635,1.415c.3.078.577.12.778-.19v-.512c-.4-.308-.4-.309-.778,0Z" transform="translate(-247.592 -289.215)" fill="#fff"></path><path id="Trazado_50214" data-name="Trazado 50214" d="M-377.13,2204.859l-.464.915.685,1.21h-.776c-.355-.345-.2-1.115-1.027-1.1V2207h-.632v-3.069a6.044,6.044,0,0,1,1.6.155c.274.117.468.166.471.5C-377.268,2204.672-377.182,2204.76-377.13,2204.859Zm-1.031.533c.328-.212.248-.494.2-.769l-.749-.238v1.007Z" transform="translate(-299.595 -289.191)" fill="#fff"></path><path id="Trazado_50215" data-name="Trazado 50215" d="M-549.483,2207.075a1.681,1.681,0,0,1-1.084-2.053,1.9,1.9,0,0,1,1.111-1.019c.481.042,1.121-.174,1.579.381l-.212.445-.786-.362c-.441.145-.95.156-1.052.767a1.111,1.111,0,0,0,.254,1.061,1.017,1.017,0,0,0,.8.315l.471-.335-.58-.438v-.338h1.088c.183.465-.061.9-.146,1.361C-548.495,2207.2-549.036,2207.045-549.483,2207.075Z" transform="translate(-156.057 -289.244)" fill="#fff"></path><path id="Trazado_50216" data-name="Trazado 50216" d="M-526.79,2207.246h-.653l-.276-.608H-528.9l-.279.611h-.629c.279-1.048.782-1.978,1.061-3.022h.764Zm-1.67-2.265c.056.418-.334.728-.1,1.158l.609-.028-.244-1.079Z" transform="translate(-173.495 -289.438)" fill="#fff"></path><path id="Trazado_50217" data-name="Trazado 50217" d="M-420.813,2207.009h-.548c-.014-.016-.047-.036-.047-.056,0-.987,0-1.974,0-2.975a4.692,4.692,0,0,1,1.888.146l.346.544a1.179,1.179,0,0,1-.717,1.393h-.877C-420.785,2206.4-420.8,2206.7-420.813,2207.009Zm.819-2.358c-.2-.315-.484-.256-.754-.195v.909h.754Z" transform="translate(-264.339 -289.176)" fill="#fff"></path><path id="Trazado_50218" data-name="Trazado 50218" d="M-358.5,2207.253h-.612l-.417-.787c-.256.049-.564-.122-.8.158l-.166-.152-.418.79h-.632l1.168-3.029h.716Zm-1.956-1.157h.879l-.436-1.165Z" transform="translate(-314.511 -289.444)" fill="#fff"></path><path id="Trazado_50219" data-name="Trazado 50219" d="M-311.134,2204.128h.712l-1.193,3.025h-.652l-1.189-3.011h.6c.47.573.456,1.428.941,2.085Z" transform="translate(-354.815 -289.355)" fill="#fff"></path><path id="Trazado_50220" data-name="Trazado 50220" d="M-706.812,2207.2h-1.674c-.084-.148-.249-.339-.213-.393.2-.293-.193-.566,0-.836a1.033,1.033,0,0,1,.113-.115l-.173-.3.189-.2c-.324-.281-.08-.654-.171-.959l.234-.234h1.7v.456h-1.1v.814h.778v.463h-.719l-.2.624.2.209h1.032Z" transform="translate(-23.513 -289.381)" fill="#fff"></path><path id="Trazado_50221" data-name="Trazado 50221" d="M-669.659,2204.206v.437h-1.016l-.238.239v.588h.918v.466l-.919.041v.573l.239.239h1.016v.437h-1.909c-.04-.977-.006-1.985-.022-3.019Z" transform="translate(-54.664 -289.421)" fill="#fff"></path><path id="Trazado_50222" data-name="Trazado 50222" d="M-565.793,2204.659v.819h.937l.022.5h-.945v.819h1.238v.448h-1.9v-3h1.9v.424Z" transform="translate(-142.792 -289.445)" fill="#fff"></path><path id="Trazado_50223" data-name="Trazado 50223" d="M-485.237,2205.643l.157-1,.814-.652c.513.043,1.043-.109,1.544.223v.367c-.034.018-.078.059-.123.06a2.418,2.418,0,0,1-.564,0c-.736-.149-.849-.092-1.121.618a.749.749,0,0,1-.124.169c.105.257.185.494.3.713a1.414,1.414,0,0,0,.27.286h.814l.213-.2.464.359-.672.481h-.9A1.757,1.757,0,0,1-485.237,2205.643Z" transform="translate(-210.845 -289.242)" fill="#fff"></path><path id="Trazado_50224" data-name="Trazado 50224" d="M-653.5,2207.019a1.687,1.687,0,0,1-2.068-1.086v-.83a1.674,1.674,0,0,1,2.03-1.091l.493.292-.416.408a2.044,2.044,0,0,0-.329-.161,4.661,4.661,0,0,0-.525-.119l-.6.673a1.421,1.421,0,0,0,.432,1.333l1.146-.153.327.4Z" transform="translate(-68.091 -289.224)" fill="#fff"></path><path id="Trazado_50225" data-name="Trazado 50225" d="M-507.4,2204.125h.8c-.074.491.114.987-.194,1.476.34.267.149.574-.056.908h.983l.451.326-.279.333H-507.2l-.2-.2Z" transform="translate(-192.274 -289.353)" fill="#fff"></path><path id="Trazado_50226" data-name="Trazado 50226" d="M-339.184,2204.205v.418c-.311.13-.727-.128-.968.342v2.265h-.615v-2.544h-.8c-.011-.168-.021-.313-.032-.481Z" transform="translate(-331.226 -289.42)" fill="#fff"></path><path id="Trazado_50227" data-name="Trazado 50227" d="M-582.43,2207.2v-3.056h.615v2.4h.888l.255.254c0,.107,0,.214,0,.4C-581.265,2207.2-581.858,2207.2-582.43,2207.2Z" transform="translate(-129.388 -289.366)" fill="#fff"></path><path id="Trazado_50228" data-name="Trazado 50228" d="M-321.664,2207.054h-.751v-3.032l.623-.035c0,.535-.016,1.039,0,1.541A3.893,3.893,0,0,0-321.664,2207.054Z" transform="translate(-347.307 -289.237)" fill="#fff"></path></g></svg>